<svg version="1.1" id="Layer_1" xmlns="http://www.w3.org/2000/svg" x="0" y="0" viewBox="0 0 482.1 515.6" xml:space="preserve"><style>.st0{fill:#f8c22c}.st1{fill:#3d0941}</style><path class="st0" d="M144.5 0h8.7l2.4.5c16.1 3.2 28.3 13.4 38.4 25.8 3.4 4.4 6.7 8.2 8.9 13.3 4.4 8.7 8.6 17.4 12.3 26.4 10.7-1.1 21.3-2.7 32.1-3.3 3.2-.1 6.3.8 9.4 1.6.4 3.5 1.3 7.2.8 10.7-.6 1.9-2.9 2.8-4.5 3.7-6.2 3-12.2 6.2-18.4 9.3 1 5.3 2.6 10.6 3.1 15.9.4 2.8-1 4.8-2.7 6.8-3.1 3.3-6.6 6.4-10.2 9.3-.2-.5-.5-1.1-.7-1.6 3.6-3.1 7.5-6.2 10.5-10 2.1-2.6.9-6.4.5-9.4-.7-3-.9-6.5-2.2-9.3-5.1 1.3-9.8 4.2-14.6 6.4-.9-.4-1.8-.8-2.8-1.2 1.2 7.8 1.8 15.6 1.6 23.4 3.9-3.2 7.9-6.3 11.8-9.6 1-1 2.7-2.3 2.8-3.9.3-3-.2-6.2-.3-9.2-.1-1.1-.2-3.3 1.4-3.4 1 3.7 1.1 7.9 1.1 11.8-.1 4-3.1 5.8-5.8 8.1-19.6 15.6-38.9 31.7-58.7 47.1-1.1-3-2.1-6.1-2.7-9.2-2.3-10.6-4.9-21.2-7.1-31.9-1.3-.1-2.5-.2-3.8-.3 2.5 10.7 4.9 21.4 7.5 32 1.6 6.9 3 13.8 5.1 20.5 2.6-.3 4.6-.6 6.5-2.7 16.1-16.2 32.3-32.3 48.5-48.4.2 2.5.1 5 0 7.5-1.1 11-2.5 21.8-6.2 32.3-3.9 11.6-10.3 23.3-19.4 31.5-7.3 6.7-16.8 10.3-26.6 10.7-4.7.1-9.3-.8-14-.8-15-.2-29.9-3.2-43.1-10.4-9.2-4.8-16.7-11.7-23.4-19.6-4.5-5.4-7.6-11.2-11-17.2-1.7.9-3.5 1.8-5.2 2.7 9 24.8 18.5 49.4 27.5 74.2 2.1 6 5.2 12 2.9 18.5-1.3 4.1-4.3 6.2-7.2 9.1-1.3 1-.9 2.7-1.1 4.1 0 21.6-.1 43.4-.1 65-.7 4.3 4.5 7.2 6.9 10.2 3.8-.9 7.6-1.7 11.5-2.1 1.8-2.4 4.2-5.1 4.9-8.1-.3-5.1-2.9-9.7-1.8-15.1 1.3-5.8 3.5-11.4 5.2-17.1 2.2-7.5 5.4-14.5 8.4-21.8 1.8-4.2 3.8-8.7 6.8-12.1 2.9-3 7.6-3.8 11.5-4.6 10.9-2.3 21.8-2.9 32.8-3.4 1.1-5.5 2.4-11.1 4.6-16.3 1.6-3.5 4.5-5.3 7.7-7.2 4-2.2 8.1-4.1 12.4-5.6 3.8-1.3 7.8-.9 11.7-.7 5.7-3.6 11.6-5.4 17.8-8.1 7.4-3.1 14.9-5.6 22.5-8.3 8.1-3 16.6-5.3 25.1-6.9 6.7-1.3 13.4 1.1 19.9 2.6 5.8-7.4 12.3-14.1 18.5-21.2 6.2-7.1 13.9-12.3 20.7-18.8.3-4.6 1.2-9.1 1.9-13.6 1.1-6.7.4-12.9 2.5-19.5 1.7-5.1 1.5-10.4 3.4-15.5 3-8 5.5-15.5 11.6-21.7 1.3-9.4 2.3-18.8 2.6-28.3-.2-5 4.3-8.2 7.8-10.9 7.5-5 15.2-10 23.5-13.6 2.8-1.1 7.1-2 9.3.6 3.7 4.4 2.6 11.6-.8 15.9-4.1 5.2-9.1 9.6-13.7 14.3-3.4 3.4-5.1 8.9-6.6 13.4-2.2 7-2.1 14-1.4 21.2.6 6 .5 12 1.1 18 1 8.9-.6 18-.5 27 .1 7.4-.6 14.7-.4 22 0 3.8-.9 7.5-2.9 10.7-6.1 9.6-14.2 17.1-21.1 25.6 7.9-2.6 15.7-5.9 23.1-9.6 4.9-2.4 9.8-6.6 11-12.2 1.5-6.1 2.2-12.7 4.3-18.6 4.4-11.2 10-21.7 15.8-32.2 3.3-5.7 6.2-11.6 10.4-16.6 2.5-3 5.2-5.4 6.5-9.3 2-6.6 2.4-13 2.9-19.8.3-3 .6-6.4 2.7-8.8 4.5-5.2 10.3-8.1 16.7-10.4 5.9-2.1 8.3-7.8 14.7-9.4 4.1-1.2 11.3-.6 13.6 3.6 2.2 5.3-1.6 12-4.8 16.2-5.7 7-16 13.1-20.5 21.5-2.2 5.2-3 10.9-4.7 16.3-1.4 4.4-.5 8.5-.9 13-.4 4.7-1.4 9.3-2 14-1.1 9.7-4.2 19.5-6.4 29-1.1 4.8-2.1 9.5-3.6 14.2-2.4 7.6-4.2 15.6-7 23-1.1 2.8-2.5 5.2-4.5 7.4-5.7 6.6-12.5 12.2-19.4 17.6-6.4 3.9-13.1 7.2-20 10.1-9.1 3.8-18.2 7.7-27.4 11.5-6.7 2.8-13.6 4.9-20.5 7.3-4.7 5.9-10.5 10.3-16.3 15-11.9 9.4-24.6 17.7-37.3 26.1-1.2 7-4.6 12.7-7.7 18.9-1.2 2.4-2.6 4.6-4.3 6.7-5.6 7.4-10.2 15.7-15.8 23.2-1.7 2.1-3.3 4.1-6 4.7-5.9 1.5-12 2.2-18 3.2-12.2 1.9-24.6 2.2-36.9 3.9 4.4 2.2 8.9 3.6 13.8 4.2 4.3.8 9.8 1.6 12.9 5 2.4 2.6 2.4 5.6 3 8.9 6.2 3.5 12.6 6.4 17.5 11.6 6.6 6.7 10.5 16 10.3 25.4 0 12.4.1 24.8 0 37.1 3.5 1.7 7.6 3 9.8 6.4 2.3 3.1 1.8 7.7 1.9 11.4-.1 5.4.3 10.8-.2 16.1-.4 3.5-3.5 6-6.6 7.1-5.3 1.5-10.3.4-15-2.1 0 3 .2 6-.2 9-.7 3.9-4.5 6.4-8.2 7.1-5 1.1-11.5-.3-14.8-4.5-1.3-3.9.1-8.8-1.3-12.6-1.9-2.2-5.1-3.5-7.8-4.4-2.4-.9-4 .3-6.1 1.3-8 4.3-15.9 9-24.2 12.5-13-7-25.6-14.7-38.5-22-4.2-2.3-8.3-5.3-12.8-7.1-2.8-.5-6.1.8-8.9 1.3-5.4 1.2-11.3 2.6-16.9 2.3-3.7-1.2-7.1-3.7-10.5-5.6-26.5-15.1-53-30.4-79.5-45.5-1.1-.7-2.2-1.4-3.1-2.2-.6-2.6-.3-5.4-.3-8.1 9.6-1.6 20.1-3.6 28.8-8.2-5.1-3.5-11.5-5.4-15-10.7-2.8-3.8-3.4-8.2-3.4-12.9 0-9.7.2-19.3.5-29 0-9.6 4.7-18.8 10.9-25.9 2.2-2.6 5.5-4.5 7.4-7.2.5-3.5.2-7.2.2-10.8v-41c0-3.9.3-7.9-.2-11.8-.8-3.7-2.5-7.2-3.8-10.8-11.5-29.9-22.8-60.6-34.2-91.3-2.4-6.9-4-13.9-2.7-21.3 1.8-14.5 12.2-27.9 26-32.8 8.3-2.9 17-1 24.5 3.2 4.4 2.5 7.2 6.3 10.1 10.3 2.3-1.2 4.6-2.5 6.9-3.7-2.8-16-3.5-33.4 1.6-49 2.4-6.9 4-13.6 8.3-19.6 7.4-12.5 18-22 29.9-30.1 7-4.8 14.9-8.6 22.4-12.5 4.6-2.4 9.4-3.8 14.4-4.8z"/><path class="st1" d="M169.6 7.8c3.8 2.5 7.3 5.2 11 7.9 9.4 6.6 16 16.6 21.9 26.2 4.6 7.5 7.4 15.5 10.6 23.6-1.2.8-2.3 1.6-3.5 2.3-5.5-15-12.8-29.6-24-41.1-6.2-6.3-13.5-12.1-22-15.1-8.6-3.1-18.6-3.1-27.1.4-7.3 3.2-13.5 8.4-18.1 14.9-10.6 14.4-15.1 33.3-15.6 51-1.1 27.6 5.6 55.9 20 79.5 7.3 11.2 17.4 22.5 29.6 28.4 8.5 3.9 19.2 5.5 28.2 2.4 8.9-2.9 16-9.3 21.4-16.7 8.7-12.2 13.2-27.5 14.6-42.3 1.8-1.8 3.5-3.5 5.2-5.3-.8 12.3-2.5 25-6.8 36.6-3.5 9.6-8.7 18.9-15.6 26.4-8.2 8.6-20.1 13.2-32 12.4-10.1-.3-19.6-5.9-27.4-12-14.8-11.9-24.8-28.9-31.5-46.4-6.1-15-9.3-31.2-10.6-47.3-.8-9.9 0-20 1.1-29.9 2.9-18.1 8.5-36.2 21.8-49.5 4.9-5.6 11.6-9.1 18.7-11.1 10.1-2.6 21.1-.6 30.1 4.7z"/><path class="st1" d="M162.8 13.6c8.3 2.9 15.3 8.4 21.4 14.7 10.4 10.5 17.6 24.5 22.8 38.2 1.5 3.3-.6 5.3-1.8 8.2-3.7.4-7.5 1-11.2 1.4-3.8-9.8-8.9-18.8-16.1-26.5-3.8-4.1-8-7.6-13.3-9.8-6.7-2.8-14.1-3.5-20.8-.6-8.7 3.6-14.9 12.1-18.4 20.6-5.1 13.3-6.8 28.1-4.9 42.2 2.1 18.4 8.5 36.2 20.5 50.5 6.1 7.4 14.6 12.7 24.1 14.2 1.5 2.4 2 5.6 5.4 5.7 2.7.3 4.4-1.5 6.3-3.2 12.6-12.6 25.1-25.3 37.9-37.8-1.2 6.6-2.2 12.9-4.4 19.3-3.6 10.9-9.3 21.4-18.1 28.8-7.6 6.4-17.5 9.8-27.4 7.8-11.3-1.5-20.1-7.8-27.9-15.7-14.6-14.7-22.7-34-27.9-53.8-2.8-13-4.6-26.6-3.9-40 .7-17.4 4.9-35.9 15.4-50 4-5.7 9.4-10.2 15.6-13.3 8.3-3.8 18-4 26.7-.9z"/><path class="st1" d="M120 12.1c-3.7 4-7.2 7.9-10 12.6-4.9 7.7-7.8 16.1-10.3 24.9-1.8 7.2-3.3 14.3-3.6 21.7-2.1 21.3 1 43.1 7.7 63.3 5.2 14.8 11.8 29.1 21.8 41.3 7.7 10 17.8 17.7 29.1 23.1-9-.9-17.8-1.9-26.5-4.8-16.9-5.4-31.5-16.8-41-31.9-2.3-3.7-4.4-7.6-6.7-11.3-3.9 2-7.9 4.8-12.1 6-5.5 1.9-12.4-.4-15.8-5.1-5.6-8.2-4-20.5 3.8-26.8 4-3.4 9.1-5 13.1-8.1.2-3.9-.9-8-1.1-11.9-.9-10.4-1-21.6 1.4-31.8 3.2-12.7 8.4-24.7 17-34.8 8.9-11 21-19.5 33.2-26.4z"/><path class="st1" d="M170 45.3c10.2 7.9 17.3 19.3 21.9 31.2-11.9 1.5-23.8 3.4-35.8 5-7 .6-12.6 6.5-13.1 13.4-.4 5.5.5 11.2 3.5 15.9 1.8 3.1 4.6 4.7 7.5 6.6 3.6 15.8 7.3 31.5 10.9 47.2-9.2-2-16.5-6.4-22.6-13.6-13.6-16.3-19.6-37.1-20.6-58.1-.2-11.2 1.6-22.6 5.7-33.1 3.6-8.2 9.8-16.4 18.5-19.3 8-2.8 17.4.1 24.1 4.8zm234.9-3.9c1.9 2.2 1.7 5.9 1.4 8.6-.8 4.5-5.3 8.3-8.3 11.5-3.6 4-8.1 7.4-11.3 11.7-2.6 4.7-3.6 10.4-4.7 15.6-1.2 5.4-.8 10.7-.5 16.1 1 12.6.8 25.4.8 38 0 8.4-.2 16.8-1 25.1-.4 4.5-.8 9.2-2.5 13.4-2.3 5.3-6.4 9.6-10.1 13.9-4 4.8-8.6 8.9-12.5 13.8.8.6 1.5 1.2 2.3 1.7 11.4-4.4 23.9-8.8 33.9-15.9 5.1-6.5 4.6-17.9 7.4-25.6 4.9-13.1 12-25.9 18.9-38 3.5-6 6.5-11.7 12.4-15.8 1.6-4.5 3.2-9.1 4-13.8.9-5.6-.3-13.4 2.4-18.7 3.7-5.4 11.2-8.5 17.1-10.8 3.6-1.4 5.8-4 8.7-6.4 3.8-3.3 9.6-3.9 14.1-2 1.7.7 2.7 2.2 2.8 4.1.1 3.1-1.5 6.3-3 8.9-3.9 7-11 11.1-16.7 17.2-3.2 3.2-5.9 6.5-7.2 10.9-1.7 5.4-3.3 10.9-4.5 16.5-.7 3.6.1 7.3-.3 11-2 17.9-6.6 34.8-10.7 52.3-2.6 8.4-4.8 16.9-7.6 25.1-2.6 7.3-7.7 11.7-13.1 16.9-4.2 4.1-9 7-13.8 10.3-4.3 2.9-8.9 5.3-13.7 7.3-16.9 7-33.3 14.7-50.9 20-3.3 4.1-7 7.6-11.1 10.9-9.1 7.7-19 14.5-28.8 21.3-4.7 3.3-10 6-14.3 9.8-2.7 10.3-7.7 20.3-14.3 28.7-4.2 6.1-8.1 12.5-12.4 18.6-1.3 1.7-2.8 4-4.8 5-3.4 1.3-7.2 1.6-10.8 2.3-13.8 2.5-28 3.3-42 4.8-2.6.1-6.4.8-8.4-1.1-2.3-2-4.4-4.5-6-7.1-2.1-3.4-2.3-8.3.4-11.5 2.2-2.4 5.9-3.3 9-3.9 11.4-2.1 23.2-1.7 34.6-3.6 3.8-.7 5.6-3.4 7.7-6.2 3.8-5.5 7.6-11 11.1-16.6-6.3-2.6-12.5-3.1-19.1-4.7-.8-3.1-1.6-6.1-2.4-9.2 3.3-1.6 6.4-3.2 8.7-6.2 3-3.6 3.6-7.8 4.2-12.2 3.7-4 7.3-8.1 10.7-12.4 6.4 3.7 12.7 7.9 19.2 11.4 3.8 2.3 7.6-1.1 10.9-2.7 22.9-12.5 46-24.7 69-37.1 1.9-1.2 3.7-2.3 4.5-4.6.3-4.6-2.4-9.3-5.5-12.5-5.1-5.2-11.8-8.3-18.2-11.7-8-4.1-16.2-7.2-24.5-10.7 6-7.1 12.3-13.9 18.5-20.9 5.4-6 11.8-10.8 17.9-16 3.5-2.8 3-7.1 3.9-11.2 1.3-7.3 1.9-14.5 2.4-21.9 1.8-11.4 5.3-22.8 10.8-33 1.7-3.4 5.6-6.2 5.8-10 1.1-9 2-18 2.3-27.1.5-3.8 4.8-6.9 7.7-9 6.9-4.6 14-8.9 21.5-12.4 2.5-1.1 5.7-2.2 8-.2zM246.5 64.1c.6 5.1 1.6 9.4 3.7 14.1-10.5 5.6-21.2 10.6-31.9 15.9-3.1-1.6-6.7-3.2-8.7-6.2-2.2-3.4-3-7.8-2.5-11.8.3-3.4 3.1-5.6 5.3-7.9 11.4-1.2 22.8-2.6 34.1-4.1zm2.5-.2c1.9.7 4.2 1.3 5.6 2.8 1 1.9 1.3 4.2 1.2 6.3.3 2.2-2.4 3.3-3.8 4.6-1.6-4.5-3.3-8.9-3-13.7z"/><path class="st1" d="M204.7 76.8c.3 6.1 1.5 10.5 5.5 15.1-14.6 7-29.2 14-43.8 21.1-3.3 1.5-6.3 3.6-10 2.7-5.6-1.3-9.1-5.8-10.5-11.2-1.1-4.5-1.7-10.1.6-14.4 2.1-3.8 5.6-6 9.9-6.5 16.1-2.2 32.2-4.6 48.3-6.8zm28.5 12.9c1.3 2.8 1.5 6.3 2.2 9.3.4 3.1 1.6 6.8-.5 9.4-3 3.8-6.9 6.9-10.5 10 .2.5.5 1.1.7 1.6-1.3 2.2-1.1 4.4-1.4 6.8.1-2.5.1-5 0-7.5-16.1 16.1-32.4 32.3-48.5 48.4-1.9 2.1-3.8 2.4-6.5 2.7-2.1-6.7-3.5-13.6-5.1-20.5-2.5-10.7-4.9-21.4-7.5-32 1.3.1 2.5.2 3.8.3 2.2 10.7 4.9 21.2 7.1 31.9.7 3.1 1.6 6.2 2.7 9.2 19.8-15.4 39-31.5 58.7-47.1 2.7-2.3 5.7-4.1 5.8-8.1 0-3.8-.1-8.1-1.1-11.8-1.6.1-1.5 2.3-1.4 3.4.2 3 .6 6.2.3 9.2-.2 1.5-1.8 2.9-2.8 3.9-3.9 3.3-7.9 6.3-11.8 9.6.2-7.9-.4-15.7-1.6-23.4.9.4 1.8.8 2.8 1.2 4.7-2.3 9.5-5.2 14.6-6.5z"/><path class="st1" d="M213.1 92.9c2.1 9 2.3 17.8 2.2 27.1-5.6 4.6-11.2 9.1-16.8 13.7 3.1-11.4 2.6-22.9 1.5-34.5 4.4-2.2 8.7-4.4 13.1-6.3zm-14.9 7.1c.5 11.7 1.4 22.5-1.9 34.1-.5 2-2.6 3.5-4.1 4.8-7.3 5.7-14.4 11.6-21.6 17.3-3-12.8-5.7-25.7-8.8-38.6 12.1-5.9 24.3-11.7 36.4-17.6zm-159.8 6.5c-4.2 1.7-8.3 2.7-12 5.5-7.6 5.4-12.2 14.6-11.6 23.9.3 6.1 2.7 11.2 4.8 16.8 11.8 30.6 23.5 61.2 35.2 91.8 1.4 3.6 3.1 7.3 3.8 11 .8 6.4-1.4 12.2-5.7 17-2.7-1.3-5.9-2.8-7.8-5.2-1.6-2.2-2.5-5-3.5-7.5-12.1-32.9-24.2-65.8-36.4-98.7-2.6-6.8-4-13.8-3.1-21.1 1.3-13.6 10.4-25.8 22.8-31.3 4.5-1.9 8.9-2 13.5-2.2z"/><path class="st1" d="M44.2 108.6c6.9 1.6 11.3 6.3 15.2 11.8-3.6 2.4-6.4 5-9.2 8.3-5.2.1-10 .7-14.2 4-7.3 5.4-9.9 15.6-6 23.8 3.2 6 8.7 9.6 15.2 11.2 9.3 23 18.2 46.2 27.3 69.3 2.2 5.6 4.1 11 3.7 17.1-.3 6-1.8 13.1-7.2 16.6-4.3 2.9-8.8 2.6-13.7 2.6 2.8-3.7 5-7.4 5.4-12.2 1.1-6.6-1.7-11.5-3.9-17.4-12.5-32.5-25-65.1-37.5-97.6-2.7-6.7-3.3-14.1-.7-20.9 3.9-10.1 14.8-17.1 25.6-16.6z"/><path class="st1" d="M49.3 130.4c-2.9 7.8-3.1 15.9 1.8 22.8 2.9 4.1 7.1 5.2 11.6 6.7-3.5 2.6-7.8 6.2-12.3 6.1-5.7 0-11.7-2.2-15.6-6.4-6.8-6.5-5.7-18.9 1.5-24.7 3.8-3.3 8.2-3.9 13-4.5zm23.8 27.3c9.8 25.5 19.2 51.2 28.7 76.8 1.5 4.2 2.9 8.2 1.8 12.7-1 3.9-3.6 6.4-6.4 9.1-.6-6.5-1.3-12.6-4.7-18.4-2.7-4.5-6.2-7.2-7.9-12-7.7-20.8-15.5-41.6-23.3-62.4 3.4-3.7 7-4.8 11.8-5.8zm-13.4 7.5c7.8 20.4 15.2 40.9 23 61.2-4.4-3.1-9.1-5.5-13.9-8-1.9-.9-2.4-2.7-3.2-4.6-5.7-14.9-11.6-29.7-17.4-44.6 3.9-1 7.7-2.4 11.5-4zm223.7 37c7.9-1.5 16.7 1.1 24.2 3.7 13.4 5.4 27.7 11.2 39.2 20-23.2 10.7-46.3 21.4-69.5 32.2-13.1-7.3-26.6-14-40-21-3.6-1.9-5.5-4.9-8.5-7.5-2.5-2.3-5.2-3.8-8-5.5 7.8-3.5 15.8-6.6 23.8-9.8 13-4.6 25.2-9.6 38.8-12.1z"/><path class="st1" d="M68.3 220.5c6.8 3.3 14.3 7.3 19 13.5 5.4 6.4 8.3 15.5 7.3 23.9-5.6 2.1-11.7 2.8-17.5 4.2 1.2-5.8 1.9-11.4.3-17.2-2.3-8.3-6.3-16.2-9.1-24.4zm142.1 4.7c6.2-1.4 12.4 1.9 17 5.8 5.6 4.7 7.6 10.7 11.5 16.5 3.5 5.4 8.8 9.1 12.3 14.5-.9 3.4-1.3 6.6-3.5 9.5-3.7 4.9-8.1 9.2-12.3 13.6-.7-4.6-1.4-8.9-4.4-12.7-3.2-3.9-7.9-5.5-12-8.1-3.6-2.3-6.2-6-9.9-8-4-2.1-8.7-2.2-13.1-2.6-2.3 6-4.3 11.8-4.1 18.4.1 7.6 3.7 14.2 8.2 20.1-3.1-1.9-6-3.9-8-6.9-4.6-6.8-7.1-15.1-7.9-23.2-.2-8.3 1.6-16.8 4.8-24.5 1.6-3.5 4.8-5.1 8-6.9 4.3-2.2 8.7-4.4 13.4-5.5zm137.9 2.2c1.9 3.2 4.2 6.5 4 10.4-1.6 2.3-4.8 3.6-7.1 4.9-19.4 10.2-38.6 20.7-57.9 31-3.6 1.9-7.2 3.9-10.8 6.1 3.2-7 3.8-12.6 2.2-20.1 23.2-10.8 46.4-21.5 69.6-32.3z"/><path class="st1" d="M236.1 238.8c13.5 7 26.9 13.9 40.3 21.1 1 4.3 1.4 8.6.4 12.9-.7 3.1-2.2 5.9-3.6 8.8-7.4-3.6-14.3-8.3-21.4-12.5.4-2.6 1.3-5.5.8-8-1.2-3.3-4.4-6-6.8-8.5-4.1-4-6.9-8.8-9.7-13.8zM182.2 255c-.8 10.7 2.1 21.7 8 30.7-2.5-1.7-4.6-3.4-7.7-3.6-6-.6-12.1-.2-18.1 0-2.4.4-5.4 0-6.1 2.9-3.4 10.5-6.9 21-10.6 31.4-1.8 5.1-5.4 8.5-10.2 10.9-3.8 2.4-7.8 1.6-11.9.5-1.4-.5-3-.6-3.5-2.2-1.8-4.5-3.1-10-1.8-14.7 1.3-4.9 3.1-9.7 4.6-14.6 2.5-8.6 6.3-16.8 9.7-25.1 2.4-4.9 4.4-10.1 10.3-11.6 12-3.1 24.9-4.2 37.3-4.6zm15.5 1.1c3.8-.3 7.9.4 11.2 2.4 2.7 1.8 4.9 4.4 7.5 6.4 3.8 2.9 8.8 4.4 12.2 7.9 2.7 2.7 3.6 6.6 4.7 10.2-2 3.6-3.8 7.2-7.2 9.8-3.8 2.8-8.7 3.9-13.3 2.6-3.6-1-6.9-3.1-10.1-4.9-3.9-2.2-5.4-6-7-10-3.1-7.6-1.6-17.1 2-24.4zm-102.8 4.3c-.1 22.2-.1 44.4-.3 66.6-.5 5.2 3.7 7.1 6.8 10.4-14.3 5.2-27.8 14.6-35.7 27.9-6.6 10.7-9.1 24.3-8.7 36.8-4.5 3.8-9.2 6.8-14.5 9.4-3.9-2.3-8-4.3-11.7-6.9-4.1-3-6.5-7.5-6.6-12.6-.2-6.6.2-13.3.2-20 .2-7.6-.8-15 1.8-22.2 2.5-7 6.9-13.6 12.7-18.3 1.3-1.2 3.1-2.4 3.9-3.9.5-2.8.3-5.7.3-8.5-.2-16.9.2-33.9-.2-50.8 3.3 2.9 6.6 5.6 11 6.6 6.9 1.5 15.1.3 19.5-5.7 1.5-1.6 2.6-4.6 5-5 5.4-1.6 11-2.5 16.5-3.8z"/><path class="st1" d="M160.9 284.6c4.7-1 9.7-.6 14.4-.9 4 .1 9.4-.3 12.4 2.8 3.3 3.4 3.4 9.7 6.8 13.1 4 4 9.8 5 13.8 9.2 3.2 3.5 7.4 4.2 11.9 5 4.1.6 7.7-1 11.8-.4 4.6.8 9.1 2 13.7 2.8-3.4 5-6.7 10.1-10.2 15-1.8 2.4-3.4 4.6-6.5 5.1-11.8 1.9-24.9 1.2-36.9 4.1-3.1.7-5.5 2.4-8.1 4.2-7.6 1-14.4.5-21.4 4.1-8.3-4.5-16-9.6-25.3-12.2-.3-2-.7-4.1-1-6.1 3.2-2.5 7.3-4.5 9.8-7.7 2.6-3.2 3.8-7.1 5.1-11 2.4-7.3 5.1-14.4 7.3-21.8.8-1.6 1.4-3.6 2.4-5.3z"/><path class="st1" d="M238.3 285.5c-1.8 5.2-3.4 9.9-8.6 12.8-5.1 2.5-12.1 1.7-17.5.7-3.3-.5-5.2-2.6-7.4-4.8 3.1 1.4 6 2.9 9.4 3.5 3.6.7 7.1-.2 10.4-1.6 3.4-1.5 5.6-4.5 8.1-7.2 1.9-.9 3.8-2.1 5.6-3.4zm-47.7.9c1.4 1.7 2.8 3.5 4.5 4.9 2.2 1.7 5.3 2.4 7.9 3.2 1.4 1.9 2.9 3.7 4.5 5.5-.2 1.6-.5 3.2-.7 4.8-3.6-2-8.3-3.8-11-7-2.5-3.4-3.5-7.7-5.2-11.4zm19 14.3c5.2.9 10.3 1.5 15.5 1.3l2.4 9.6c-6.5 1-15-.1-19.3-5.7.5-1.7 1-3.4 1.4-5.2zm-87.8 28.5c4.3.5 8.5 1.6 12.9 1.8l1.2 11.1c-1.8 2.6-3.5 5.2-5.2 7.8-.3-2.5 1.6-8.4-2.4-8.5-4.4 5.2-6 12.1-10.2 17.5.6-3.6 1.6-7.3 1.7-11 .3-3.3-2.8-5.3-4.7-7.5.9-4.4 3.5-8 6.7-11.2zm-8.5 7.8c0 1.6.1 3.3.1 5-4.6 1.5-9.2 3.2-13.5 5.6-10.1 5.4-18.3 14.4-23.1 24.8-1.6 3.4-1.6 7-3.7 10.2-3.9 6.4-8.7 12.3-14 17.5-.1-14.4 3.4-28.6 12.6-39.9 10.4-12.5 25.4-20.9 41.6-23.2zm24.5 1.9c8.5 2.7 15.7 7.3 23.4 11.5-2.1 2.1-4.2 4.3-6.2 6.5-6.9 1.1-13.4 2.2-19.8 5-4.1 1.8-7.4 4.5-11 7.2 1.8-5.4 3.5-10.8 5.6-16.2 3.4-2.8 6-6.2 8.1-10.1-.1-1.3-.1-2.6-.1-3.9z"/><path class="st1" d="M115.5 343.5c.9 1.2 2.4 2.9 2.2 4.5-.3 4-1.5 7.9-1.8 11.9-.4 5.3-2.1 10.3-3.7 15.4-2.3 1.8-5.8 3.8-6.9 6.6.2 3 1.6 6.1 2.6 8.9 1.3-2.1 2.7-4.2 4-6.3 1.3.3 2.7.6 4 .9.4 2.3.5 4.7.7 7.1 1.7-1 3.3-2.3 4.8-3.5 3.1-2.7.9-7 4-10.1 9.7-10.2 23.3-14.2 37.2-13.4.9 1.9 1.4 4.9 3.7 5.6 4.4 1.8 9.4 3 14.1 3.3 2.6.3 4.7-1.4 6.9-2.6 6 2.5 11.7 5.8 18.1 6.6 3.3.6 7.2.8 10.3 2.3 1.8.7 1.4 3.6 2.2 5.1-2.4 1.3-4.5 2.7-7.4 2.7-4.2.4-8.6-.7-12 2.4-3.3 2.7-2.9 8.3-3.3 12.1-1.3 1.2-2.6 2.5-3.9 3.8-.4-1.2-.9-2.4-1.4-3.6-4.7-13.6-23.8-18.9-35.6-11.4-8.5 4.9-13.2 12.6-18.4 20.5-19.6-11.6-39.4-23.1-59-34.7 2.2-6 5.4-11.8 9.6-16.6 7.6-8.9 17.9-14.3 29-17.5z"/><path class="st1" d="M129.3 343.5c-1.3 10.6-6.1 21.1-9.2 31.3-1.5 3.3 1.5 6.7 1.4 10.3-.4 1.6-1.8 2.9-2.7 4.3-.1-1.6-.2-3.2-.3-4.7-2.3-.9-4.4-2.4-7-1.7-1.2.7-2.2 2-3.2 2.9-.4-1.3-.7-2.6-.9-4 2.2-1.8 4.6-3.5 6.9-5.2 2-6.1 2.7-13.3 6.6-18.3 3.3-4.7 5-10.2 8.4-14.9zM183 347c-.4 2.7-1 5.6-.2 8.3 1 3.6 3.6 6.3 6 9.1-1.5 2.5-3.4 7.4-6.5 8.1-5.5.2-11.3-1.8-16.5-3.6-.6-3.9-.8-8.1-2.2-11.8-1.8-.4-3.7-.6-5.5-.8 3.3-3.1 7-6.9 11.6-7.7 4.3-.8 8.8-1.2 13.3-1.6z"/><path class="st1" d="M162.2 358.5c.2 1.7.3 3.3.5 5-9-.3-17.8.8-26 4.8-6 2.8-10.4 7.1-15.2 11.5.5-3.1.2-6.5 2.9-8.6 4.6-3.5 9.6-7.2 15.2-8.9 7.3-2.3 14.9-3.5 22.6-3.8zm27.8 8.1c6.1 2.7 11.7 5.6 18.4 6.8 4.3.9 10 1.2 13.6 4 4.1 3.4 4.1 9.8.2 13.3-4.6 4.4-9.9 3.3-15.6 4.4-3.4 1.5-6.3 4-9.3 6.1.7-3.1.5-8.1 3.9-9.5 4.3-1.8 11.2.3 15.4-2.5 3.3-2 4.3-7 1.2-9.6-3.1-2.4-8.1-2.6-11.8-3.2-6.4-.9-12.1-4-18-6.6.6-1 1.3-2.1 2-3.2zM77.1 380.4c2.9 1.3 5.5 3.1 8.2 4.7l83.7 49.2c.6 1.5 1.1 3.1 1.7 4.6-4.1 6.6-8.2 13.4-13.5 19.1-6 6.3-12.6 11.8-20.6 15.4-6.7 3.2-13.6 4.6-20.8 5.9-3.4.5-7.1 1.2-10.5.8-3.3-1-6.3-3.1-9.3-4.8-27.5-15.8-55.1-31.5-82.6-47.3 0-1.9.1-3.7.1-5.6 15.1-2.1 29.6-7.1 41.8-16.3 6.1-4.8 11.5-10.7 15.9-17 2.1-2.9 3.8-6 5.9-8.7zm150.1 8c1.3.3 2.6.9 3.8 1.4-2.2.1-4.4 0-6.5-.2l2.7-1.2zm-43.8 8.5c3.3 3.1 4.8 7.6 6.4 11.8-1.4 1.6-2.8 3.2-4.2 4.9-1.1-4.1-1.9-7.8-4.7-11.2-3.1-4-8.6-5.5-13.5-5.7-4.9-.2-9.3 2.1-13.1 5-4.9 3.8-8.1 9.6-11.2 14.8-1.8-1-3.5-2.1-5.3-3.1 4.7-7.2 9.3-14.7 16.8-19.2 8.6-5.8 21.2-4.2 28.8 2.7z"/><path class="st1" d="M224 392.1c3.5 0 7.5-.5 10.9.4 4.3 1.7 7.9 5.7 11.1 8.9-4.5-1.8-8.7-3.6-13.7-3.5-7.5.1-14.3 4.5-20.1 8.8-16 12.2-26.3 30.6-29.4 50.3-.9 8.1 0 16.6-.1 24.8-.2 7.8-.3 15.6-.4 23.5-16.6-9.2-32.9-19-49.4-28.3 8.1-3.1 15.1-7.4 21.3-13.4 8.1-7.1 13.4-15.8 18.9-25-.5-1.1-.9-2.1-1.4-3.2 5.6-4.9 8.6-11.9 13.3-18.1 5.9-7.6 12.1-14.4 20.4-19.5 2.7-1.8 6.8-1.2 10-1.9 3.4-.1 5.9-2 8.6-3.8z"/><path class="st1" d="M176.9 401.5c4.9 3.5 5.7 8.8 6.9 14.2-4.1 5.8-7.7 12.1-12.2 17.6-8.9-5.2-17.8-10.5-26.8-15.7 3.8-6.2 6.9-12.1 13.3-16 5.4-3.7 13.2-3.5 18.8-.1zm71.9 5c3.5 4.8 4.4 11.7 4.3 17.5 0 11.6 0 23.2.1 34.8-1.6-.7-3.1-1.4-4.7-2.2-.1-3 .2-6.3-.6-9.2-1.1-3.4-5-5.3-8.4-4.3-3.2 1.1-6.2 3.1-9.2 4.7-8.8 4.9-17.6 9.7-26.5 14.5-2 1.2-4.3 2.5-5.5 4.7-1.1 2.4-1 5.3-1.1 7.9.1 7.6.1 15.3.1 22.9-4.3 2.3-8.6 4.6-13 6.9.1-11.3.6-22.6.2-33.8-.1-5.7-.3-11.4.9-17 1.4-6.6 3.7-13.2 6.5-19.4 6.6-13.3 17.5-25.3 30.8-32.1 8.5-4.3 19.5-2.4 26.1 4.1z"/><path class="st1" d="M245 446.4c1.9 2.2 1.2 6.5 1.5 9.3-3.2-1.4-6.6-3.6-10.1-3.9-3.6.7-6.8 3.4-8.9 6.3-2.4 3.3-2.8 7.1-3.5 11-3-1.5-5.9-2.9-8.9-4.3-4.8 2.3-9 4.8-11.1 9.9-2.7 5.9-2.4 14.3 4 17.8-2.9 1.4-5.8 2.9-8.6 4.4V474c.1-1.9 0-4.3.9-6 1.2-2 3.8-3.2 5.7-4.4 10.4-5.6 20.6-11.3 30.9-17 2.8-1.5 5.5-2.6 8.1-.2z"/><path class="st1" d="M236.5 454c5.8 1.3 11.3 4.8 16.7 7.2 3.7 2 9.5 3.7 10.9 8.1.9 4.8.3 9.9.5 14.7-.1 3.8.4 8-.5 11.7-1.5 3.4-6.4 4.5-9.7 4.4-3.5.1-6.2-1.4-9.3-2.9 0-5.9 1.3-14.1-3.2-18.7-4.1-4-10.8-5.2-15.5-8.6-.6-6.7 3.2-14.2 10.1-15.9z"/><path class="st1" d="M215 467.1c6.3 2.7 12.3 5.9 18.6 8.7 2.5 1.2 5.6 2.4 7.4 4.6 2.5 3.3 2.2 7.7 2.2 11.6-.1 5 .1 10-.3 15-.1 3-2.7 5.1-5.3 6-4.6 1.6-10.7.7-14.1-3-1-4.1.3-9.6-1.8-13.2-3.6-4.1-10.8-4.8-15-8.1-2.2-2.3-2.4-6.7-1.9-9.7 1-5.7 4.9-9.7 10.2-11.9z"/><circle class="st0" cx="200.1" cy="273.3" r="2.6"/><circle class="st0" cx="209.6" cy="267.9" r="2.6"/></svg>