<svg xmlns="http://www.w3.org/2000/svg" viewBox="0 0 400 488"><style>.st0{fill:#f8c331}</style><g id="Layer_2"><path class="st0" d="M390.7 343c0-4.6-1.7-7.6-5.7-10-20.4-11.9-40.8-23.9-61.3-35.7-1-.6-2.1-1.3-3-2.2-.3-1.6-.2-3.4-.2-5 .3-10 .1-20 .4-30 .4-15 .8-29.8-.9-44.7 10.3-10.9 20.9-22.3 29.8-34.4 1.9-2.8 4.6-6.2 4.4-9.8-.1-5-1.4-10-2.5-14.8-4.2-17.5-9.6-34.8-14.9-52-.9-2.7-1.8-6.1-4.1-7.9-3.1-2.6-7.1-4.5-10.8-6.2-10.6-4.9-21.7-8.9-33.2-11.5-1.8-7.9 0-15 2.1-22.6 1.4-1 4-1.6 4.4-3.5 1.2-3.8 1-8.1.5-12.1-.6-4.7-.6-9.6-1.4-14.2-1.1-6.4-7.1-11.3-13.4-11.8-5.5-.5-10.5.9-15.7 2.5-3.2-1.9-7.5-4.5-11.3-3.1-4.5 1.8-6.7 8-10.1 11.1-2.9 1.5-6.4 1.9-9.5 3 2.3 8 6.8 15 15.4 16.8.7 6.4 1.5 12.7 3.5 18.8 1.6 5.6 5.9 9.4 7.9 14.9-9.1 2.6-17.8 4.2-26.5 8.3-3.8 1.9-8 3.9-10.3 7.7-2.9 4.8-4.7 10.2-6.7 15.4-5 14-9.2 28.3-13.5 42.5-11-.2-23.2-.1-30.6 9.5-.3 5.7-1.2 11.1-1.9 16.8-9.5 3.4-18.3 7-24.2 15.7-1.3-5.3-3.7-10-6.4-14.7 1.3.8 2.6 1.5 3.9 2.2l2.4-1.2c-3.1-6.7-8.2-11.9-15.5-13.9-5-10.9-9.9-21.9-14.9-32.9-7-15-11.2-31.2-17.1-46.8-3.2-8.5-6.3-17.4-10.9-25.2-2.2-3.9-5.8-4.6-9.6-6 2.1-7.4 3.9-14.8 4-22.6 5.6-2 10-6 9.8-12.4-.3-4-4.7-5.7-7.5-7.8C81.2 10.4 80 5 76.4 1.6c-2-1.3-5-1.2-7.3-1.6h-.7l-.2.1C64.5.9 60.7 2.3 57 2.3c-5.1-.7-9.5-3.2-14.8-1.1-4.6 2.1-5.9 7.5-7 12-1.1 3.8-1.2 9-3.9 12.1-3.9 4.1-8.2 6.9-11 12.1-1.8 3.3-2.3 7.2 0 10.3 2.5 3.1 6.7 4.9 10 7.1-2.1 5.3-3.7 10.4-4 16.1-7.5 4.7-14.6 9.3-20.4 16.1-2.9 3.1-2.1 8.1-1.8 12 1.4 10.9 4.7 21.6 7.8 32 2.8 9.1 5.7 18.1 9.5 27-6.5 12.5-13.6 23.5-14.7 38-.6 12.9.7 26.1 1.7 39 1 11.8 1.8 23.5 3 35.3C7 273.8 1 276.6.5 283c-.4 3.8-1.2 9.2 1.1 12.5 3.2 3.5 8 5.5 12 8.1.2 6 .7 11.5 0 17.5-1.5 12.4-3.2 24.8-4.3 37.2-.6 6.2 1.1 11.7-.3 17.7-1.1 5.4-2.9 10.4-3.4 16-.5 6-.5 12.1.1 18 .5 3.9 1.2 8.2 4.4 10.9 3 2.6 6.5 3.1 10.2 4 .1 8.7-.1 17.5.2 26.2-.2 4.2 5.2 6.2 8.3 3.7 2.2-1.7 1.9-4.2 2.1-6.7v-74c0-4.5 1.9-7.9 3.1-12 3.7-13.4 6.9-27 10.3-40.5 2.2 1.2 4.5 2.5 6.7 3.8-.5 5.6-1.2 11.2-1.2 16.8-.1 4.3 2.2 7.8 1.8 12-.4 5.3-1.6 10.4-.9 15.9.2 1.8.9 3.4 2.5 4.3 4.2 1.8 10.4 0 14.2 2.7 5.4 3.5 10.4 8.9 16.9 10.3 3.9.8 8.5.1 10.2-4 1.9-5-.4-9.9-4-13.4-6.4-6.3-14.3-10.8-20.7-17.1 2.6-4.4 3.7-8.8 4.4-13.8 20.9 12.1 41.7 24.2 62.5 36.4.1 2.6.1 5.2.5 7.8.5 3.1 4.6 4.7 7.2 3.1 1.5-1.1 2.6-2.8 3.7-4.3 24.8 14.5 49.6 29 74.5 43.5-3.6 4.7-7.8 9-11.1 13.9-1.6 2.5-3.5 6.7-2 9.5 2.4 3.5 8.2 3.1 11.9 2.6 6.5-.8 11.6-4.2 16.4-8.4 0 5.5-.2 11.2.5 16.6 1 2 4.1 3.4 5.9 4.8-.2 7.9-.2 15.8-.2 23.7h2.2c0-7.2 0-14.4-.1-21.5 2-.2 3.9-.4 5.9-.5 0 7.3-.1 14.7 0 22h2.3c-.1-7.9-.1-15.8-.1-23.7 1.8-1.2 3.9-2.3 5.5-3.8.4-2.1.3-4.4.4-6.5-.1-7.6.1-15.2.2-22.7 12.7-7 25.2-14.4 37.8-21.7 1 5.1 3.1 9.7 4.7 14.6.6 5.2-.5 10.6-.1 15.9-.1 5.3 4.3 8.5 5.9 13.7 1.6 5.5 2.3 10.6 5.8 15.3 3.3 4.5 8.1 9.1 14.2 8.3 4.5-.4 7.4-4.2 8-8.4.3-3.3-.4-6.8-1.2-10-2.8-11.4-7.1-21.8-10.9-32.8 4.3-10.3 2.3-22.1 2.6-33.4 9.3-5.5 18.8-10.8 28.1-16.3-.1 4.1 0 8.2.1 12.2 2.1 1.3 4.1 2.6 6.2 4-.5 31.7-.2 63.5-.3 95.2h2.3c0-31 .1-62.1.1-93.2.9.2 1.9.3 2.8.5.9-.2 1.9-.5 2.8-.7-.1 31.1 0 62.3 0 93.4h2.4c-.1-31.7.2-63.5-.3-95.2 2.1-1.2 4.3-2.5 6.4-3.7 0-8.5.2-17 .2-25.5 3.8-2.4 8.4-4.4 11.5-7.6 2.2-3.4 1.2-9.3 1.3-13.2zm-10.4-10.3c2.5 1.5 5.6 3.2 7.1 5.9 1.6 2.7.7 7-1.9 8.8-2.5 1.9-5.4 3.3-8.2 4.9-40.8 23.5-81.6 47.2-122.6 70.4-4.4 2.5-9.9 3.3-14.6 1.3-3.8-1.7-7.3-4.1-11-6.1-30.9-17.7-61.6-35.5-92.5-53.1 20.1-11.9 40.5-23.5 60.6-35.3 18.9 10.8 37.6 22 56.5 32.8 1.9 1 4.1 2.3 6.2 2.5 4.2-1 8.1-3.9 11.8-6 12.4-7.2 24.9-14.4 37.3-21.7 2-1.3 4.1-2.3 4.2-5 .6-9.7.1-19.4.5-29.1-.2-2.5.6-5.2-1.7-6.9-4.2-3.5-8.6-6.5-12.5-10.4 27 15.5 53.9 31.3 80.8 47zm-247.7 30.4c-14.1-8.1-28.2-16.3-42.2-24.6-2.8-1.7-6.1-3.2-8.5-5.5-.6-2.2-.4-4.8-.5-7.1.1-8.3 0-16.6.1-24.9 16.9 10.1 34 19.7 51 29.6.2 10.9 0 21.7.1 32.5zm-.1-34.8c-17-9.8-33.9-19.8-51.1-29.4 7.5-7.7 15.6-14.8 23.7-21.8 9.6-7.8 18.8-15.9 28.1-24 2.8-2.4 5.5-4.9 8.1-7.6-3.3-1.5-6.8-2.8-10.3-3.8-9.3-2.8-18.4-5.9-27.8-8.6 12.2-6.3 24.4-12.8 36.5-19.3 1-.5 2-1.1 3-1.6-.2 1.5-.4 3-.5 4.5-3 .9-6.4 1.7-8.9 3.6-3.2 2.7-4.4 8.2-1.4 11.5 2.4 2.8 6.7 3.5 10 4.5-.1 5.1-.7 10.4.2 15.4 1.7 7.8 7.4 14.5 13.9 19 11.6 8 25.3 10.9 39.2 11.4-18.8 13.6-37.7 26.9-56.5 40.5-2.1 1.9-4.2 3.7-6.2 5.7zm-30.8-57.9c-.6-2-.4-4.3-.5-6.4.1-9.8 0-19.5.1-29.2 12.1 3.8 24.2 7.5 36.3 11.1-10.7 9.3-21.3 18.6-31.8 28-1.5-1.1-3-2.1-4.1-3.5zm40.7-64.2c.4 1.2-.2 3.6-1.8 2.9-1-1.3.4-2.9 1.8-2.9zm-.3 24.6c0 1.3.1 2.5.1 3.8-2.9-1.5-7.2-2.7-8-6.4 1.3-3.7 5-4.3 8.2-5.7-.1 1.1-.1 2.1-.2 3.1l-3 1.2c-.7.3-.9 1.3-.3 1.9.9.9 2 1.3 3.2 2.1zm-9.7-6.4c3.5-3.1 6.2-4.4 10.9-5.2-3.5 2.1-7.2 3.6-10.9 5.2zm169.4-20.8c-2 2.8-3.7 6.3-6.3 8.7-2.8 1.2-5.8 1.5-8.7 2.5-4.6 1.6-8.4 4.5-12.2 7.5-7.4-3.7-14.6-7.5-22-11.2-.2-2.9-.4-5.7-1-8.5-.3-1.1-.7-2.3-1-3.4 15.8 6.1 34.4 5.8 51.2 4.4zm-57.6-12.7c-.7-.8-1.4-1.6-2.2-2.4 1.1.4 2.2.9 3.3 1.3 10.1 4.2 20.9 4.4 31.7 5.2 10.5.7 20.8 0 31-2.3l-2.1 4.2c-.9 1.3-1.7 2.9-3 3.9-1.5.7-3.3.7-4.9.9-15.9.8-31.2.9-46.4-4.5-3.2-.9-5.1-4-7.4-6.3zm48.3 80.6c1.7-5.6 0-12.2 1.3-17.9 1.9-4 4.4-7.7 6-11.9 2.2-4.7 3.5-11 7.4-14.5 3.5-3.3 7.2-6.3 10.8-9.5.4 7.5 1.2 14.8 1 22.3-.3 17.9-.5 35.7-.8 53.6-10.1-6.2-21.1-11.4-30.8-18.2 1.7-1.2 3.7-2.3 5.1-3.9zm-6.7 2.2c-9.8-7.8-19.5-16-29.2-24 11.5-4.7 23.1-9.1 34.6-13.7.5 11.4-.1 22.7-.4 34-1.6 1.3-3.3 2.5-5 3.7zm14.1-38.9c-2 5.2-3.9 10.3-6.7 15.2.4-1.1.8-2.3 1.2-3.4-.4-.6-.9-1.2-1.3-1.9.1-3.6 1-8.1-.4-11.4-1.8-2.2-4.2-3.8-6.2-5.8-2.2-2.8-6.9-2.4-10.2-3.3 4.1-3.2 7.8-6.3 12.9-7.7 3.8-.9 7.7-1.8 11.5-3 1.9 2.7 4 5 3.9 8.5-.1 4.3-3.1 8.8-4.7 12.8zm-48.3-6.1c.2-1.4.3-2.8.5-4.2 2.2.5 4.6.8 6.8 1.6 1.4.7 2.6 2 3.7 3.3.6.7.6 1.7-.1 2.3-1.3 1.4-2.5 2.6-4.3 3.5-2.3 1.1-5.1 1.2-7.7 1.5m.8 2.4c2.6-.5 5.5-.8 7.9-1.8 3.2-1.2 5.6-4.2 6.6-7.4.8-3-.9-5.6-3.3-7.3-3.2-2.4-6.7-2.6-10.5-3.3.1-1.9.2-3.8.2-5.6 12.8 6.9 26 13.1 38.8 20.1-12.7 5-25.6 9.7-38.1 15.3 3.4 3.7 7.3 6.7 11.1 9.9 15 12.5 30 25 44.9 37.6-14.5 7.9-29 15.9-43.5 24-2.1 1.2-4.1 2.6-6.1 4.1-19.1-14.3-38.5-28.4-57.8-42.5 12.4-.6 23.6-5.1 34.3-11.1 5.5-2.9 9.8-8 12.6-13.4 3-5.6 2.7-12.6 2.9-18.6zm60 58.7c.3 11.7.1 23.5-.3 35.2-16.5 10.3-33.7 19.7-50.5 29.4-.1-11.1-.2-22.2 0-33.3 0-3.3 3-4.6 5.4-6.2 15.1-8.5 30.2-16.8 45.4-25.1zM258.5 333c-.2 9.8-.2 19.6-.3 29.5-20.1-11.6-40-23.5-60.1-34.9.5-14.7 1.3-29.4 1.9-44.1 18.2 13.3 36.4 26.7 54.7 40 1.2 1 2.8 2.2 3.5 3.7.3 1.8.3 3.9.3 5.8zm-9.5-91c-.1 5.9-.3 11.3-3.6 16.4-5.5 9.4-14.4 13.1-24 17-15.8 6-32.9 5.8-49 1-9.5-3-19.2-8.6-24.8-17.1-2.9-4.3-4-9.2-3.8-14.3.3-8.4 1-16.8.9-25.2 2.8 4.3 5.9 8.2 10.2 11.2 11.8 8.6 27.6 11.9 42 11.8 14.3.4 28.8-3.4 40.9-11 5-3.2 8.7-7.6 12-12.5-.6 7.6-.5 15.1-.8 22.7zm-112.9 86.1c2.5-2.7 6-4.8 9-7 17.6-12.6 35.3-25.1 52.9-37.8-.7 10.6-.9 21.2-1.5 31.7-.3 4 0 8.4-1 12.3-2.3 2.1-5.3 3.5-8 5.1-17.5 10.2-35.1 20.3-52.7 30.5 0-9.6 0-19.3-.1-29 .1-1.9-.1-4.2 1.4-5.8zM293.2 53c-1.1.2-2.1.3-3.2.5.3-3.9.7-7.8 1.1-11.7 1.1.1 2.1.2 3.2.3-.2 3.6-.5 7.2-1.1 10.9zm-47.1-12.1c-4.4-2.3-6.8-7.3-9.2-11.4 2.9-.7 5.7-1.4 8.6-2 2.7-3.6 5.1-8.5 8.8-11.1 3.1-1.6 7.8 1.8 10.6 3.1 4.9-1.1 10.1-2.7 15.1-2.6 5 .1 10.1 3.6 11.6 8.5 1.3 4.4 1.1 9.4 1.3 14-1.1 0-2.2.1-3.3.1-1 4-1.4 8-1.7 12.1-.7-3.8-1.1-7.7-2.2-11.3-.2-1-.9-1.8-1.9-2.3-3 0-5.9 1-8.8 1.2-1.7-2.1-2.5-6.1-5-7.2-5.1 1.6-9.3 5.7-14.2 8-3 1.2-6.5 2.7-9.7.9zm12.1 27.9c-4.4-7-5.4-16.7-6.3-24.8 6.6-2.3 11.8-6.5 17.8-10 1.2 2.2 2.2 5.7 4.4 6.9 2.9.7 6.4-.6 9.2-1.2 1.7 5.6 1 12.8 5.1 17-.9 4-2.2 8.1-2.6 12.2-.4 4.2.7 8.8 1.4 12.9-5 2.8-9.4 5.4-15.3 5.4-3.7 0-6.3-1.9-9.3-3.8 0-2.2-.1-4.5-.2-6.8 2.5-.2 5.8.4 7.9-1.3 3.9-2.9 7.8-6 11.1-9.5-5.7.3-9.4 6.9-14.7 8.7-3.6 1.1-6.7-3-8.5-5.7zm-36.7 37.7c1.4-3.5 2.7-7.2 4.7-10.3 1.9-3.1 5.1-4.9 8.3-6.7 7.8-4.3 16.1-6.1 24.8-7.7 1.9 3.4 4.2 5.9 7.9 7 8.1 2.9 17.9-1.2 23.4-7.4 7.5 2.5 14.9 5.3 22.4 7.7 4.8 1.5 9.4 3.7 13.8 6.1 1.8 1 3.8 2.2 5.2 3.8 1.3 1.8 2 4.1 2.7 6.2 4.7 15.1 9.4 30.4 13.4 45.7 1.3 5.3 2.7 10.7 3.5 16.1.2 2.6.7 5.4-.6 7.8-2.2 4-5.2 7.6-8 11.1-7.2 9.1-15.1 17.5-23 26-3.9 4.8-8.7 8.7-13 13 .2-6.2-1.2-11.8-7.5-14.4 4.7-6.4 8.9-13.2 13.4-19.8 5-7.9 11.4-14.5 16-22.7-1.5-6.4-2.9-12.8-4.8-19.1-1.7-5.7-2.7-11.8-5.2-17.1-2.2.8-1.5 3.2-1.9 5.1-.3 8.4-1.1 16.8-1.8 25.2-.7 7.3-.1 14.4-1.1 21.6-.4 2.3-2.2 4.5-3.4 6.5-7.3 1.1-14.2 2.4-21.6 2.6-10.4.2-20.8-.5-31-2-6.4-.9-12.2-3.2-18.1-5.8 0-12-.3-24.1-1.3-36.1-.5-5.4-.7-10.6-2-15.9-1.6 2.4-2.9 4.9-3.8 7.7-1.9 5.8-3.8 11.5-5.8 17.2-2.5 6.6-1.3 13.5-2.8 20.7-1.5-5.8-1.1-12.2-3.2-17.7-2.5-4.9-9.4-7.2-14.3-8.9 4.7-15 9.1-30.6 14.7-45.5zm94.9 75.1c.2-13.7 2-27.2 2.7-40.9.3 1.1.7 2.1 1 3.2 1.9 6.6 3.7 13.4 5.2 20.1.3 1.8.9 3.4-.1 5.2-2.5 4.3-5.8 8.3-8.8 12.4zm-78.9 3.7c-3.4-2.3-6.9-4.2-10.7-5.8l.9-13.5c.3-4.1 1.8-8.3 3.2-12.2 1.6-4.4 2.9-8.9 4.5-13.3 1.4 14.9 2.1 29.8 2.1 44.8zm-16.2-7c-3.7-1.2-7.4-2-11.3-2.5 3.8-1.7 7.2-3.8 10.4-6.5.2 2.9.5 6 .9 9zm-15.4-23.6c3.7 1 7.6 2.5 10.6 4.8 2.2 1.7 2.8 4.4 3.8 7-2.2 1.8-4.2 3.7-6.8 5.1-3.5 1.9-7.1 2.6-10.9 3.5.5-7.1.7-13.8 3.3-20.4zm1.1 28.2c0 2.6-2.1 4.7-4.7 4.7s-4.7-2.1-4.7-4.7 2.1-4.7 4.7-4.7c2.5 0 4.7 2.1 4.7 4.7zm-27.8-23.7c7.4-5.1 15.9-4.5 24.5-4.6-2.7 6.7-3 13.5-3.2 20.6-6 .3-11.7 0-17.2-2.5-3.4-1.4-5.6-4.1-8.2-6.6.9-2.7 1.4-5.2 4.1-6.9zm-4.2 10.1c3.1 3.2 5.9 5.2 10.1 6.7-3.8.5-7.4 1.3-11.1 2 .4-2.9.7-5.8 1-8.7zm-1.2 11c8-1.7 15.4-2.7 23.5-2.8-2 4-1.8 5.9-.5 10.1-1.3 2.7-2.6 5.3-3.9 8-3.3-.2-6.4-1-9.2 1.2-4.2 3.2-3.9 10.2.5 13.1 3.9 2.7 9.6 1.5 11.8-2.8 1.7-3.1.4-6.1-.4-9.2 1.3-2.8 2.6-5.6 4-8.4 1.7 0 3.5-.1 5.2-.1.4.9.8 1.8 1.2 2.6-.2 1.9-.8 4.4-.1 6.2 1.3 3.5 6.9 3.6 8.9.7 1.6-2 1.4-5.2-.8-6.6-1.5-.9-3.2-1.3-4.8-1.9-.4-.7-.9-1.4-1.3-2.1 1.4-4.1 1.5-6.4.1-10.5 4.6.9 9.2 1.9 13.7 3.2.5 6.5 1 13 1.8 19.5.2 3.7 1 7.5-1.9 10.4-5.7 5.8-14.7 8.3-22.6 8.4-7.6-.2-14.7-.7-21.3-4.7-4-2.4-7.5-6.2-6.9-11.2.7-8 2-15.6 3-23.1zm17.7 28.2c-3.4 2.1-8.1-.8-8.6-4.5-.4-2.8 1.1-5.3 3.6-6.5 3.1-1.2 6.5 0 7.9 3.1 1.4 3.1-.1 6.3-2.9 7.9zm16-12.9c0-1.7 1.4-3.1 3.1-3.1s3.1 1.4 3.1 3.1-1.4 3.1-3.1 3.1-3.1-1.4-3.1-3.1zm-55.8-3c5.3-6.3 12.3-8.9 19.8-11.8-.8 7.4-2.1 14.8-2.8 22.2-.6 5.3 2.8 9.6 6.9 12.4 7.3 4.8 15.9 5.8 24.5 5.8 8.3-.1 17.1-3.2 23.1-9.1 2.8-2.7 2.9-6 2.7-9.6-.6-7.2-1.5-14.5-2.1-21.7 7.9 3.1 16.1 7.4 21.4 14.2 3.9 4.9 5.8 11.5 4.7 17.8-2 8.2-8.4 14.4-15.4 18.7-11.5 6.8-25.1 9.7-38.4 9.1-12.3.2-24.4-2.2-35.2-8.3-6.5-3.7-12.7-9.6-15.3-16.7-2.3-8.6.8-16.4 6.1-23zM134 169.9c3.7 1.2 6.5 4.2 9 7.1.4.5-.1 1.1-.7.8-1.6-.9-3.3-1.8-5-2.5 1.7 5.4 4.7 10.1 6.8 15.3.2.5-.4.8-.7.4-1.9-2.5-3.6-5.2-6.8-6.2.8 2.6.9 2.5 2.6 9.1.1.3-.4.5-.5.2-1.4-2.8-2.7-5.6-4.4-8.2-.6 3.7.1 7.2.7 10.8 0 .2-.3.4-.4.1-1.1-2.6-2.3-5-4.2-7.2-.1 2.1-.2 4.1-.2 6.2 0 .3-.4.4-.5.1-1.3-4.4-3-8.5-5.1-12.7-1.3-3.1-3.6-6.8-1.6-10 2.3-3.5 7.4-4.9 11-3.3zm11.1 27.7l-2.7-.3-1.2-5.7 3.9 6zm-11.3 3.5c-1.6.9-2.8-1.3-1.6-2.5 1.6-.9 2.8 1.3 1.6 2.5zm-52.4-23.8c.6 1.9 1.1 3.8 1.7 5.8-1.3.6-2.5 1.1-3.8 1.7l-3.9-5.1 6-2.4zm-6.8.5c-1.6-1.9-3.1-3.8-4.7-5.7 3-1.3 5.9-2.6 8.8-4 .7 2.2 1.4 4.5 2.2 6.7l-6.3 3zm5.1 9.8c2.1-2 5.6-2.7 8.4-3.2 4.7-.7 9.5-1.1 14.3-1.4.5 0 .6.7.2.9-2.7 1-5.4 2-7.9 3.3.7 1 1.3 1.9 2.4 2.5 4.5 2.7 9.9 4.4 14.9 6.2.5.2.3.9-.2.9-2.9-.2-5.8-.4-8.7-.2 2.4 1.9 5 2.8 7.7 3.6.8.2.6 1.4-.2 1.4-3.5.1-7.1-.5-10.5.7 3 1.9 6.2 2.7 9.6 3.3.3.1.3.5 0 .5-3.6.2-7.2.2-10.8.6 1.8 1.3 3.7 2.4 5.7 3.3.5.2.3.9-.2.8-2.3-.2-4.5-.4-6.7-1.7-7.2-4-14.1-8.8-21-13.4.8-2.4 1.2-5.8 3-8.1zm6.8 17.4c3.6 2.3 7.1 4.8 11 6.6 3.4 1.7 7.8 1.5 11.4.9 1.6-.1 2.2-2.4 3.1-3.5.8-1.5 1.4-3.1 1.9-4.7 1-1.6 2-3.1 2.8-4.8.2-.4.3-.8.5-1.2.4-.9 0-2-.9-2.4-6-3-12.5-4.7-18.4-7.8 4-1.3 7.8-2.8 11.1-5.5-1.9-.8-3.6-1.7-5.8-1.7-5.9 0-11.8.9-17.7 1.6-1.8-7.3-4.2-14.4-6.4-21.5-1.5-4.9-.7-9.7.5-14.5 1.9-7.5 4.3-14.9 6.4-22.4 1.2 3.8 2.2 7.8 3.6 11.5 1.7 4.6 5.1 9 8 13 6.7 8.9 13.5 17.8 20.5 26.5 3.2 3.9 4.6 8.4 6.9 13.1 2.3 4.8 3.4 9.7 5 14.7-5.9 3.2-11.8 6.2-17.5 9.5-8.6 5.1-17.5 9.6-26.1 14.6 0-7.3.1-14.7.1-22zM77.2 56.2c-1.1 3.2-2.8 6.7-6.4 7.5C66 65 61.9 61.3 57.5 60c1 1.2 1.3 2.9 2.4 4.2-.1 2 .2 4.3-.7 6.1-1.7 2.2-5.1 3.4-7.7 2.1-2.1-.9-4-2.3-5.9-3.6 1.4-1 4.3-1.8 4.5-3.8.2-3.3-1.2-6.7-1.4-10.1.7-2.1 1.9-3.9 2.6-6-.1-3-1.2-6-1.5-9 4.8-3 12-.6 17-3.1 2.3-2.4 2.8-6.7 3.8-9.7 3.3 2.6 6.7 4.7 10.7 6.2-.3 7.8-1.8 15.5-4.1 22.9zM32.3 55c.2-2.3-3-3.6-4.6-4.7-2.6-1.7-6.7-3.6-6.6-7.3.1-4.3 3.7-8.3 6.7-11.1 2.5-2.5 6.4-5 7.4-8.5 1.7-5.2 2-11.6 4.6-16.5 1.2-2.4 3.4-4 6.1-4.2 4.1-.1 8.8 2.9 13 2.2 4.9-.7 10-3.4 15-1.7 4.1 2.5 5.2 8.7 9.5 11.5 2.3 1.8 6.7 3.5 7.5 6.5.2 4.9-4.9 10.2-10 9.3-3.6-.8-6.7-3.9-10.1-5.3-3.8.8-2.8 8-5.7 9.8-4.9 1.6-11.8.1-16.2 2.9-2.9 2.5.7 7.8 0 10.8-.7 2.1-2.1 4-2.3 6.2.2 3.4 1.1 6.8 1.7 10.2-6.8.3-13.4 1.1-19.8 3.8.9-4.7 3-9.2 3.8-13.9zm-14.9 85.5C13 127.3 8.8 113.7 6.6 100c-.3-3.9-1.7-8.7 1.6-11.8 6-6.4 13.2-11.9 20.8-16.3 3.8-2.3 9-2.6 13.4-3.5 2.4 2.2 5.1 4.8 8.2 6.1 3.1 1.3 7 .6 9.6-1.5 2.1-1.8 1.9-5.4 2.3-8 3.5.8 6.7 2 10.2.6 3.1-.8 4.4-5 6.3-7.3 4.8.9 7.9 3.5 9.9 7.9 6.9 14.4 11.8 29.8 17 44.9 5.9 19 15.5 37.1 23.4 55.5-2 .8-4.1 1.4-5.9 2.6-1.3 1.3-2.2 3.1-3.2 4.7-5.8-7.8-12-15.4-17.8-23.2-3-4-6.2-8-8.7-12.4-3.8-7.2-5.1-16-8-23.1-1.8 3.7-1.9 7.5-2.9 11.4-2.3 8.6-5.8 17.4-6.8 26.2-.5 4.6.7 8.7 2 13-3.1 1.5-6.2 3-9.3 4.6-2.7-3.6-5.7-7-8.7-10.4-5.5-6.2-10.1-13.1-16.1-19-2.9-2.9-3.5-6.5-4.8-10.2-1.7-5.3-3.2-10.8-5-16.1-.5-1.7-1.2-2.4-2.7-3.5.5 5.3 2.8 10.6 4.3 15.8 2 5.6 2.5 12 7.1 16 5 4.9 8.8 10.5 13.3 15.7 7.6 8.7 14.5 17.9 21.3 27.1-1.4 3-2.4 5.9-3.1 9.1-8-5.8-16.1-11.7-24.3-17.2-8.3-5.6-15.7-12.3-23.6-18.4-1.7-1.4-3.2-2.9-4-4.9-1.9-4.4-3.4-9.2-5-13.9zm5.9 19c5.9 5 12.1 9.6 17.9 14.7-8-1.2-14.9-3.2-22.3-6.5 1.5-2.7 2.9-5.4 4.4-8.2zm-5.6 10.1c6.1 2.6 12.2 5.2 18.8 6 2.5.4 5.3.4 7.7 1.2 3.1 1.4 5.9 3.7 8.7 5.5-8.2-.1-16.1-.5-24.1-2.3-4.8-1.1-9.6-2.9-14.3-4.6 1.2-1.9 2.2-3.9 3.2-5.8zM8.8 205c-.5-9.5 1.3-18.7 5.1-27.4 10.9 4.3 22.3 7 34.1 6.9 2.5 0 5.1-.2 7.6.2 3.2 1.3 6.1 3.9 8.9 5.8 6.4 4.7 13.1 9 19.8 13.3-.3 8.1.3 16.2-.4 24.3-2.2 2.1-5.2 3.4-7.8 5-6.9 4-13.9 7.8-20.7 11.9-.1-3.7-.2-7.3-.4-11-.7-.2-1.4-.5-2.1-.8-.9 4.6-.7 9.9-2.3 14.2-3.2 2.6-7.1 4.4-10.6 6.5-8.7 5.1-17.6 10-26.3 15.2-1.9-21.3-4-42.7-4.9-64.1zM5 278c3.4-3.5 8.3-6.1 12.6-8.4 15.4-8.5 30.2-18 45.7-26.3 5.9-3.5 11.8-6.9 17.7-10.3 14-8.9 28.9-16.4 43.4-24.6 3.6-2 7.2-4.2 11-6 3.2-1.6 6.5-2 9.9-2.5-1.8 2-4 3.7-5.7 5.8-1.5 1.5-.6 4.5-.6 6.4-13.2 7-26.5 14-39.8 21.1-.1 12.7 0 25.4-.1 38 1.7 1.4 3.4 2.8 5.1 4.1-5.9 5.1-11.7 10.2-17.4 15.5-2.2 2.1-4.8 4-6.4 6.6-1 2.3-.7 5.2-.8 7.6.1 9 0 18.1.2 27.1-23.7-14-47.7-27.5-71.5-41.5-2.3-1.4-4.3-3.2-6.3-5 .7-2.5 1.1-5.6 3-7.6zm15.1 144.6c-2.9-.9-6.6-1.7-8.9-3.8-2-1.9-2.6-5.2-3-7.8-1.2-9.1-1-18.6 1.3-27.5 1-4 1.7-8.1 2.7-12.1 2.8 1.2 5.4 2.6 8.2 3.8-.2 15.8-.1 31.6-.3 47.4zm.1-49.8c-2.7-1.2-6.3-2.5-8.1-4.9-.9-2.4-.6-5.3-.6-7.8.6-9.4 1.9-18.7 3-28 1.9 1.2 3.9 2.5 5.8 3.7-.3 12.2.4 24.6-.1 37zm8.2-.5c-.2 24.6-.1 49.1-.1 73.7-.1 2.1 0 4.6-.8 6.6-1.4 1.9-4.6 1-4.7-1.3-.8-6.7-.1-13.5-.3-20.3-.2-19.8-.1-39.5 0-59.3-.2-11.5-.1-23 .1-34.5 1 .2 2 .5 3 .7 1-.3 2-.6 2.9-.9-.1 11.7.3 23.5-.1 35.3zm-3-36.5c-2.9-1.8-5.9-3.5-8.9-5.2.1-8.6-.3-17.3-.9-25.9 6.2 3.8 12.5 7.3 18.8 11 0 5 0 9.9.1 14.8-3 1.7-6 3.5-9.1 5.3zm5.4 27.7c-.2-9.3 0-18.6-.1-27.8 2-1.2 4-2.5 6-3.7.1-5 .1-10 .2-15 1.7 1 3.4 2 5.1 3.1-3.9 14.4-7.1 29-11.2 43.4zm57.3 7.4c3.1 2.9 5.6 6.9 4.1 11.3-1.4 2.6-5.4 3.7-8.1 2.8-6.6-1.9-11.8-7.8-17.2-10.9-3.6-1.7-8.5-.7-12.3-1.7-1.9-.4-1.8-2.7-2-4.3-.2-5.5.9-11 1.3-16.5 4.5 1.5 8.6 2.2 13.4 2 6.4 6.4 14.2 11.1 20.8 17.3zM67 351c-3.9.7-8.9.1-12.5-1.7-2-1.1-2.4-4.2-2.5-6.2-.1-5.5.8-11 1.2-16.5 6.1 3.7 12.5 7.2 18.6 10.9-.8 4.3-1.1 10.5-4.8 13.5zm73.2 33c-1.8-1.8-1.2-5.5-1.6-7.8.9.5 1.8 1.1 2.7 1.7l4.2 2.7c-1.5 1.8-2.3 5-5.3 3.4zm73.8 65.1c-2.6-.8-3.8-2-2.7-4.8 2.8-6.7 9-12.1 13.2-17.9 4.2 2.6 8.4 5 12.7 7.4.1 1.9.1 3.8.2 5.6-5.9 6.7-14.4 10.7-23.4 9.7zm43.4 10.5c-3 1.6-6 3.1-8.9 4.8-3-1.7-5.9-3.5-8.7-5.3l-.3-23.6c3.5.5 7.1 1.4 10.5.6 2.7-.6 5.2-2 7.6-3.3-.1 8.8-.1 17.8-.2 26.8zm73.4-6.5c1.4 4.8 3.1 10 3 15 .1 4.7-5.3 8.5-9.7 6.8-3.7-1.3-6.8-4.8-9-8-4.1-6-3.3-12.8-7.2-18.8-1.4-2.5-3.4-5-3.5-8-.3-4.7.2-9.4.4-14.1 2.6 1 5.4 2.3 8.2 2.6 3 .2 6.1-.3 9-.7 3.2 8.2 6.2 16.7 8.8 25.2zm-9.1-27.4c-5.8.8-12 1.8-16.6-2.7-3.1-3.9-4-9.9-5.3-14.6 8.1-4.7 16.3-9.4 24.3-14.1.1 10.8 1.7 21-2.4 31.4zm53.4-37.8c-3.2 1.6-6.4 3.2-9.5 5-2.9-1.7-5.8-3.5-8.7-5.2v-12.4c6.1-3.5 12.3-7 18.4-10.6-.1 7.7-.1 15.5-.2 23.2zm10.7-32.2c-2.7 2.1-5.8 3.6-8.7 5.3-15.4 8.9-30.9 17.8-46.3 26.7-24.2 14.2-48.7 27.9-72.8 42.1-3.8 2.2-7.4 4.1-11.9 4-4.5.1-8-2-11.7-4.2-5.8-3.6-11.9-6.7-17.8-10.2-27.2-16.2-54.7-31.9-81.9-48.1C94.3 348.1 54.2 324.5 14 301c-4.1-2.5-8.4-4.4-11.4-8.3-.3-1.2-.6-2.3-.9-3.5 3.9 2.4 7.8 4.9 11.8 7.2 21.3 12.4 42.7 24.6 64 37 16.1 9.6 32.4 19 48.6 28.5 3.6 2.2 7.6 3.6 11.3 5.7 32.1 18.7 64.2 37.1 96.3 55.7 4.4 2.7 9 4.6 14.3 4.1 5.1-.2 8.6-3 12.9-5.4 42.8-24.6 85.5-49.1 128.2-73.9-.8 2.4-1 6-3.3 7.6z"/><path class="st0" d="M256.7 227.9l-6 4.5c-1.1.8-1.3 2.3-.5 3.3 0 0 .1.1.2 0l7.8-5.9c.4-.3.5-.9.2-1.3l-.4-.5c-.3-.4-.9-.4-1.3-.1z"/></g><g id="Layer_3"><path class="st0" d="M279.4 287.6c-5.8-6.3-15.1-7.1-23-5.1-5.7 1.5-11.6 5.9-11.1 12.5.6 6 6 8.7 11.2 10.3 7.9 1.6 16.3 1.6 22.5-4.3 3.8-3.4 4-9.8.4-13.4zm-4.3 13.5c-3.7 2.7-8.8 2.9-13.1 2.7-3.8-.1-7.5-.9-10.6-3.3-1.2-1.1-2.1-2.7-1.3-4.3 1.3-2.6 4.7-4 7.3-4.8 4-1 8.4-.9 12.4-.1 3.1.8 6.3 2.4 7.5 5.6 0 1.9-.7 3.1-2.2 4.2zm-3.6-11.7c-5.2-1.4-11-1.4-16.1.2-3.7 1.2-5.9 3.7-8.7 6.1 1.1-3.2 1.8-6.1 4.7-8.2 6.1-4.6 15.8-4.6 22.5-1.3 4 2 5.3 5.5 6.6 9.5-2.9-2.5-5.2-5.3-9-6.3zm-123-3.9c-5.5-6.2-13.2-6.9-21-5.8-5 .8-10.2 3.7-12.5 8.4-1.8 4-.4 8.5 2.8 11.2 5 4.7 11.7 5.5 18.3 4.9 4.3-.3 8.5-2.7 11.8-5.4 3.6-3.5 4.2-9.6.6-13.3zm-28.1 13c-1.3-1.5-2.5-3.4-1.1-5.2 2.1-3.3 7.5-4.2 11-5.3 0 4.8 0 9.6.1 14.4-3.3-.8-7.4-1.3-10-3.9zm24.1-.1c-3 2.1-6.3 3-9.8 4 0-4.7 0-9.4-.1-14.1 3.7.9 8.7 1.8 11.1 5.1 1.4 1.7.4 3.7-1.2 5zm-5.3-11.7c-4.1-.8-9.3-.9-13.5 0-4.3 1-6.9 3.8-10.1 6.5.9-2.5 1.5-5.3 3.4-7.1 3.2-3 7.5-4.4 11.8-4.5 5.2-.1 10.3.5 14.4 4 2.3 2 3 5 4 7.8-3.1-2.8-5.5-5.8-10-6.7zm237.7 50.4c-2.5-4.9-10-5.4-14.6-3.8-3.5 1.2-6.7 4.2-4.8 8.2 2.6 4.8 10.2 5.5 14.8 3.8 3.2-1.1 6.6-4.5 4.6-8.2zm-2.4 3.9c-1.6 2.2-4.7 2.7-7.5 2.9-1.8 0-3.6-.3-5.1-1.1-2.9-1.6-2.5-5.9.5-7.1 3.4-1.4 8.9-1.2 11.7 1.6 1.1 1 1.2 2.6.4 3.7zm-117.1 67.6c-2.5-5.2-10.2-5.7-15-4-3.4 1.1-6.7 4.8-4.5 8.4 2.9 4.6 10.2 5.3 14.9 3.6 3-1.1 6.4-4.7 4.6-8zm-2.4 3.6c-.8 1.1-2.2 1.8-3.7 2.3-3.5 1.1-7.9.8-10.7-1.7-1.1-1-1.3-2.6-.4-3.8 1.1-1.6 2.9-2.4 5-2.8 3.2-.5 6.8 0 9.3 2.1 1.1 1 1.3 2.7.5 3.9zM38.8 277.3c-2.4-4.9-9.8-5-14.3-3.8-3.6 1.1-6.8 4.2-5.2 8.2 2.5 4.9 9.9 5.5 14.6 4.1 3.3-.9 7-4.9 4.9-8.5zM26 283.8c-1.8-.4-3.7-1.4-4.6-3-.6-1-.3-2.3.4-3.1.9-1.1 2.2-1.8 3.6-2.2 3.1-.8 8.1-.6 10.6 2 1.2 1.2 1 3.2-.2 4.4-2.5 2.3-6.4 2.6-9.8 1.9z"/><circle class="st0" cx="74.9" cy="40.2" r="2.8"/><circle class="st0" cx="65.8" cy="42" r="2.8"/><circle class="st0" cx="267.6" cy="49.2" r="2.8"/><circle class="st0" cx="257" cy="49" r="2.8"/><path class="st0" d="M272.6 300.8l-16-4.5c-1-.3-1.5-1.3-1.2-2.2.3-1 1.3-1.5 2.2-1.2l16 4.5c1 .3 1.5 1.3 1.2 2.2-.3.9-1.3 1.5-2.2 1.2z"/></g></svg>