<svg xmlns="http://www.w3.org/2000/svg" viewBox="0 0 358.7 473.6"><style>.st0{fill:#efbb31}.st1{fill:#3d0941}.st2{stroke-width:.8788}.st2,.st3,.st4{fill:none;stroke:#efbb31;stroke-miterlimit:10}.st3{stroke-width:1.5}.st4{stroke-width:.8181}</style><g id="Layer_1"><path class="st0" d="M294.2 0c3.3 0 5.3 2.3 6.7 5 1.8 4 6.2 5.2 8.2 8.8 1.3 2.4 2.2 5.1 2.3 7.9.2 5 .4 10.1-.2 15.1-.2 3.3-3.7 5.6-3.8 8.9-.6 7-.5 14-.1 21.1 10 4.8 19.2 11.3 28.3 17.6 3.3 2.2 7 2.3 10.2 4.8 1.7 1.3 3.4 2.6 4.7 4.3 3.9 15.6 5.2 31.2 6 47.2.1 2.9.4 5.7 1 8.5 1.1 4.8.3 9.6 1.1 14.5.7 4.5-.4 8.5-1 13-1.2 11.2-4.6 22.2-6.9 33.2-.8 6.1-6.6 7.2-8.4 12.9-1.3 3.7 1.9 7.9 2.1 11.9.5 7 0 14.6-1.5 21.5-.5 2-.9 4.3-2.4 5.7-2.4 2.5-6.3 3.8-9.4 5.3-.2 12.2-.8 24.4-1.4 36.6-.4 5.4-1.4 10.5-.5 16 3.7 21.7 7.6 43.3 11.1 65 1.2 6.3 2.5 13.5 1.4 19.8-1.9 4.4-4.9 8.3-8.9 11.1.1 7 3.3 13.2 4 20.1.8 7.7 1.3 15.3 1 23-.1 4.3-1.9 8.6-4.7 11.9-5 5-15.7 3.7-18.3-3.3-2.1-5.6-.8-12.8-.1-18.6.6-3.9-1.4-7.2-1.3-10.9.3-3.1 1.4-6 1.9-9.1 1-4.7.5-9.6.2-14.3-3.7-3.2-7.6-5.5-10.5-9.6-3.4-4.2-3.9-10.5-5.1-15.7-4.2-19.1-8.1-38.2-11.4-57.5-1.9-11.4-1.8-23.4-2.1-35-.2-4.7-.7-9.3-.6-14-.6.1-1.2.2-1.8.2-1.6 11.9-3.5 23.8-4.6 35.8-.5 14.6-.1 29.4.9 44 .2 6.2 3 11.6 2.3 18 0 3.2-1.6 5.6-3.3 8.1.8 6.9 1.5 13.9 1.3 20.9 0 2.1-1.3 3.6-3.1 4.4-3 1.4-6 2.3-8.8 4.2-3.8 2.6-6.4 6.1-9.8 9.1-3.3 2.9-7.6 4-11.8 4.5-5 .3-9.6.5-13.5-3.1.7-7 4.9-11.4 9.6-16.1 4.1-4.2 8.2-8.6 11.6-13.4 2.8-3.4 1.2-9.3 1.4-13.5-1.9-2.3-3.7-4.6-4.9-7.4-1.9-3.8-1.9-8.4-2.8-12.7-1.5-7.3-3.3-14.5-5-21.7-1.9-7.7-3.1-15.7-4.6-23.5-.8-9-.5-18.1 1.1-27 .9-8.1 1.5-16.3 2.4-24.5 1.3-11.1 1.7-22.4 3-33.5.7-7.4 1.3-14.7 2.9-21.9 1.2-4.7 4.6-8.4 5.7-13.3.5-2.6.7-5.3.3-7.9-.7-3.6-3.6-6.3-4.5-9.9-.8-3.2-1.1-6.6-1.6-9.8-10.2-4.6-20.3-9.3-30.5-13.8-1.8-.9-3.5-1.5-4.6-3.3-5-7.8-5.1-17.9-1.1-26.1 2.3-4.2 5.3-8 7.9-12-9.8-2.9-19.5-6.3-29.3-9.4-1.9-.7-4.1-1.2-5.7-2.5-1.3-5.2-1.4-10.8-2.3-16.1-1-7-1.8-13.9-2.4-21-2.2-12.3-3.7-24.7-5.2-37.1-.3-1.8.1-3.1 2.1-3.5 2.8.4 5.6 1.5 8.3 2.3 12.7 3.9 25.5 7.9 38.2 11.7 1.4.5 3 .9 4.2 1.8 1.1 1.1 1.1 3.2 1.5 4.7 2.1 15.8 3.8 31.5 5.8 47.3 5.3-6.7 9.3-14.2 15.3-20 4.8-5 12-5 18.2-6.8 3.9-1.2 8-1.4 11.9-2.6l.2-.1.1-.3.4-2.5c-2.4-.1-5.3.4-7.6-.6-3.4-2.6-5-7.8-6.3-11.6-2.3-6.2-3.2-12.7-3.2-19.2-1.9-.8-4.3-1.2-5.6-2.9-3.2-3.6-3.3-9.9-1.9-14.3 2.3-1.5 5.4-1.7 8-2.7.3-3.1 1-5.8 3.9-7.4 3.8-1.5 8.7-.7 12.7-1.2 4.5-.1 8.7-2.9 13-3.5z"/><path class="st1" d="M295.1 1.8c2.6 1.6 3.5 2.7 4.6 5.6 1.2 3.5 5.1 4.8 7.5 7.3 2.1 2.9 2 6.5 2.3 10 .2 6.3 1 12.1-3.1 17.4-2.5-2.3-5.1-3.8-5.4-7.5-.8-3.3-.3-7.1-4.8-7.3-3.5-.7-4.4 3.4-5.9 5.7 0-2.1.1-4.2-.2-6.3-.8-1.7-2.2-3.8-4-4.5-2.6 0-5.4 1.6-7.8 2.5-4.6 2.1-9.4 3.6-14.1 5.4-1.6-.8-3.8-1.3-4.8-2.9-2.1-3.3-1.8-7.8-1.2-11.5 2.6-.3 5.2-.4 7.8-.5 1-2.5.6-6.4 2.7-8.2 4.6-2.5 11.2-.2 16.1-1.9 3.5-.8 6.8-2.3 10.3-3.3z"/><path class="st0" d="M73.9 9c5.7 3.3 10.2 9.3 12.9 15.2 4.4 11.1 6.3 23.9 8.5 35.6-2.9.8-5.7 1.4-8.6 2-1 1.5-2.1 3-3.2 4.4-1.3-.1-3.3-.3-4.1.9-.2 1.6 2.5.8 3.3.6 5.1-.1 10.3 0 15.4.6 3.8.4 6.3 3.5 9 5.8.1-5.7.3-11.4.7-17.1.1-1.8 2.3-2.3 3.7-2.9 14.9-5.1 29.9-10.3 44.9-15.4 2.2-.9 4.5.4 4.2 2.9-.3 8.7-.9 17.4-1.8 26.1-.1 9.7-1.1 19.3-1.5 29-.7 5.8-.1 12-1.5 17.6-1.2 1.1-3 1.8-4.5 2.4-5.1 2-10.1 4.2-15.3 6.2 2.3 5.7 5.9 10.9 8.5 16.4 1.4 4.6.2 9.3-2.5 13.1-3.3 5.1-9.1 7.5-14.5 9.5-12.1 4.2-24.5 7.7-36.9 10.6.1 9.5 4 17.8 5.1 27.1.6 4.4 1.5 8.6 1.9 13 1.9 18.7 3.7 37.3 5.1 56 .6 14.8 1.8 29 .5 44-.6 7-2.2 13.8-3 20.8-3 22.6-3.4 45.5-5.4 68.2-.2 2.8-2.1 5.3-2.6 7.9 0 3.5.4 7.1.9 10.6 2.6 11.5 9.2 19 15 28.8 1.1 2.1 3.1 5.2 1 7.3-3.2 4.8-9.6 4.4-14.1 1.8-6.9-3.7-9-11.7-15.4-16.6-2.5-1.9-6.1-3.6-7.3-6.6-1.2-2.4-.4-4.7 0-7.3 1-5.5 1.9-11.3 1.9-16.9-.6-2.6-2.7-4.6-3.3-7.3-3.8-18.8-5.2-37.7-6.3-56.8-.1-10.8 2.4-21.4 1.2-32-1-10-2.5-20-3.5-30-.5-8-1.4-16-2.1-24-.5.4-1 .8-1.4 1.2.2 8.4-1.1 16.5-1.6 24.8-.6 10.4-2.9 20.6-3.8 31-1.6 9.4-4 18.6-5.3 28-1.2 9.1-3 18-4.5 27-1.7 12.7-4.2 25.3-5.8 38-.4 3.9-1.9 7.3-3 11 .5 6.8 3.7 14.2 3.1 21.1-.7 4.4-6.1 7.5-7.6 11.7-.9 3.6-.3 7.4-2.4 10.6-3.4 5.9-11.3 7.7-17.4 5.7-4.4-2-7.7-7.2-6.8-12.1.5-4.1 3.4-8 5.1-11.8 3.8-8.4 7.9-17.2 9-26.4 0-3.2-1.6-6.4-1.9-9.7-.8-7.3-.7-14.7-1.1-22-.9-10.6-.4-21.2-1.3-31.8-.7-8.4-.3-16.8-1.1-25.2-.5-7.6-.1-15.3 0-23 1.2-19.3 1.7-38.8 1.9-58 .9-13.7.6-27.3.7-41 .2-5.7 1.3-11.3 1.6-17 .3-6.1 2.1-11.7 3.3-17.6-6.9.3-12.9-3.3-17.2-8.4-3.6-4.9-2-10.4-1.7-16 .3-6 1.8-11.7 3.2-17.5 1.1-4.6.1-9 1.2-13.6.9-3.9 2.5-7.1 2.9-11 .2-2.9.7-5.7 1.6-8.5 1.2-4 2.3-8.8 4.9-12.2 10-8.6 23.3-14.1 35.9-17.4-4-1.9-8.1-3.8-11.6-6.5-1.1-.9-2.5-2-2.6-3.4-.7-4.2-.4-8.7-.3-13 .2-7.6.5-15.5 2.7-22.8 2-7.7 9.1-13.9 17.3-14.9C62 8.9 68.3 5.7 73.9 9z"/><path class="st1" d="M63.4 10.3c3.9-1 7.5-1 10.9 1.4C81.7 17 85.7 25.4 87.9 34c2.4 8 3.4 16.2 5.3 24.4-2 .3-4.1.7-6.1 1 .6-6.2.7-13.1-1.2-19.1-2.6-6.6-7.8-13.4-14.5-16C69 27.8 67 31.5 66 35.7c-2.9 9.6-1.2 20.5-4.1 30-.9 2.2-1.5 5.1-4.6 4.7-4.9-.4-9.8-3-14.1-5.4-2.5-1.6-5.1-2.6-5.2-6-.6-7.3 0-14.8.4-22 .8-7 1.9-15.4 7.7-20.1 5-5.1 10.9-4.9 17.3-6.6zM266 33.6c.2-.7.4-1.3.6-2 6.7-2 12.9-5.3 19.5-7.3.8 1.1 1.5 2.3 2.2 3.4-.1 3.9 0 6.9 2.8 9.8 1.2-2.6 2.2-5.2 3-7.9 1.3.1 2.6.2 3.9.2.5 2.7.8 5.6 1.8 8.2 1.1 2.4 3.7 4.2 5.6 5.9-.5 7.6-.8 15.2-.3 22.9-7 3.1-15.3 3.2-22.7 2.2.9-2.5 1.1-4.8 1.1-7.5-2.8.1-6.1.8-8.9-.1-1.5-1.3-2.4-3.1-3.2-4.8-2.4-5.6-4.3-11.4-4.6-17.6"/><path class="st1" d="M67.1 37.9c1.3-4.1 2.5-8.1 5-11.6 6.8 4.8 12.4 11.8 12.9 20.4.3 5 .8 11-1.1 15.7-1.2 2.9-4.7 1.8-6.4 3.6-.1 3 .3 6.1.5 9.1-2.8 1.4-5.6 2.7-8.8 2.9-4.1.7-8.5-1.5-12.1-3.2-1.5-.8-1.8-1-2.3-2.6 2.6-.3 5.2.6 6.8-1.9 2.4-3.5 3.2-8.4 3.6-12.5.3-5.2 1-10.3 1-15.6m111-12.1c15.8 4.7 31.5 9.6 47.2 14.5 2.8.6 2.5 2.9 3 5.2 2.2 16.1 3.8 32.2 6.2 48.3-4.1 6.2-8.5 12.1-12.7 18.2-11.5-3.9-23.1-7.4-34.5-11.4-2.6-21.1-5.5-42.1-8.1-63.1-.4-4-1.2-7.7-1.1-11.7zm-18.9 11c.2 6.9-1 13.7-1 20.6-1.1 17.2-1.6 34.5-3.1 51.8-6.4 2.7-12.8 5.2-19.2 7.9-3.6-6.4-7.3-12.8-10.9-19.2 6.1-1.4 12.2-3.4 18-5.7 2.4-1.1 5.1-2.2 6.9-4.2 2.5-2.1-.3-6-2.8-6.4-2.6-.2-5.2.1-7.8.2.8-3.3 2.6-6.1 4.2-9.1 1.6-2.6.9-6.4.7-9.3-.2-3-3-5.4-5.9-5.4-4.2.4-8 2.4-10.6 5.8-2.9 3.5-3.3 7.5-4.2 11.8-.6 3.2 4 6.5 3.6 9.5-1.9 1.9-4.7 3-7 4.4-3.4-5.7-6.7-11.5-10.3-17.1.4-6.6.8-13.2.9-19.8 13.4-5 27.1-9.4 40.6-14.1 2.4-.9 5.1-1.4 7.9-1.7z"/><path class="st0" d="M203.2 58.5c1.7.1 3.4.5 5.1 1.1 4.2 1.2 6.9 6.1 7.3 10.2.3 4.5-.1 8.8 1.4 13.2.5 2.1 2.2 3 3.7 4.4 1.7 1.6 2.7 3.6 3.8 5.6-1.4 1-2.3 2.1-4.2 1.9-6.8-.4-13.5-2.1-19.9-4.2-3.2-1.1-5-2.3-7-4.9.7-1.3 1.4-2.6 2.2-3.8 1.2-.7 2.6-1.1 3.9-1.6-.1-6.1-1.8-11.4-.9-17.6.4-2.2 2.2-4.1 4.6-4.3z"/><path class="st1" d="M83.4 66.2l-.8 1.5c-.8.2-3.5 1-3.3-.6.8-1.2 2.8-1 4.1-.9zm197.4.1l-.1.3-.2.1.3-.4zm-70.6.6c1.3 2.3 2.5 4.6 4.1 6.8-.8 1.9-1.5 3.8-2.5 5.6-1 1.6-2.7 2.5-4.5 1.5-4.1-1.8-6.1-7.9-7.9-11.8 3.4 2.3 7.6-.5 10.8-2.1zm70.1 2c-1.4 4.1-2.3 8.3-3.4 12.6-.2 1.6-1.1 2.9.5 4.1 3.5 1.2 7.3 1.6 10.9 2.2 2.1.6 3-1.3 4.3-2.6 4.5-5.6 8.9-11.2 13.5-16.8 3.5 1.6 6.9 3.3 10.1 5.4 6.3 4.1 12.6 7.7 18.5 12.4-5.2 1.3-8.2 3.1-12.1 6.7-4.5 3.4-6.1 8.5-7.4 13.8-1.5 12.3 2.2 22.3 4.9 34.1 1.4 5.8 3.1 11 3.6 16.9.3 9.4-2.7 17.4-3.8 26.5-1 6.4-.5 12.9-1 19.4-4.8 1.5-9.6 2.9-14.6 3.8-9 1.8-18.8 1.2-28 1-7-1-14.4-2-20.8-5.1.8-3.7 1.5-7.7.7-11.5-.9-3.7-3.7-6.3-4.5-10.2-.5-2.6-.9-5.3-1.4-8 2.3.5 4.7 1.2 7 1.3 3.3-.8 6.4-1.9 9.9-1.9 4 2.9 7.9 6.3 12.3 8.5 2.3 1 5.2 2.1 7.6 1.1 4.5-1.7 7.8-5.7 10.6-9.4 1.4-2 3-3.8 2.6-6.4-.2-1.8-2.1-3.1-3.2-4.3.7-.6 1.5-1.2 2.2-1.7.1-1 .1-2 .2-3-1.4-.9-2.4-1.9-4.1-2.2-5.4-.7-10.9-.3-15.4 2.9h-2.1c.6-4.4.1-12.4-5-14.2-4.9-2.2-9.7-4.6-14.6-6.5-4.3-1.8-8.5-1.9-11.4-6.1.8-12.4 5.6-25 9.9-36.5 3-7.6 6.1-16.1 11.8-22.2 2.5-3.8 7.8-1.2 11.7-4.1zm-200.6.8c5.2.1 10.4 0 15.6.3 4.7-.3 9.6 3.5 11.3 7.6-.6 18.3-2.2 36.5-2.5 54.8-8 1.6-16.1 3.2-24.1 4.9-2.4.6-5.5 1.1-7.4 2.8-2.9 3-2.1 8.1-1.5 11.8-3.8 1.4-9.1 2.7-11.9 5.8-1.8 2.9.3 5.2 2.1 7.3.3 2.4.7 4.5 2.2 6.5 1.8 3.2 5.7 3.8 8.9 4.7 5.1 1.1 9.3.2 13.3-3.3 1 .1 2.1.3 3.1.4.1 3.9.5 7.7 1.1 11.6-7.4 3.8-16.4 4.9-24.7 5.1-10.8.2-21.2.7-32-.5-4.8-.9-9.5-2.3-14.1-3.7.8-3.6 1.5-7.1 2.2-10.7 7.4-4.1 14-10.2 19.7-16.5 7.1-7.6 14.3-15.1 21.4-22.7 2.2-1.9 2.1-5.4 2.7-8.2 2.6-.2 5.1-.2 7.7-.5 2.5-2 4.4-5.2 5.9-7.9 2.2-4-.8-9.2-.3-13.5 2.5-4.5 9.2-6.6 12.6-10.4.8-1.1-.3-3.3-1.8-3-3.9.1-7.8 1.3-11.6 1.9-3.4.7-7 .8-9.7 3.2-2.8 2.5-5.2 5.6-7.5 8.6-1.6 2.2-1.3 4.4-1.4 6.9-2.1.6-4 .5-6.1.3-2.8 1.6-5.4 3.4-7.8 5.4-5.1 4.4-10.3 8.8-15.4 13.3.9-7.4 1.7-14.9 2.6-22.4.3-3.2-.4-6.3-2.1-9.1-3.2-5.1-7.1-9.7-12.2-13 10.7-8.4 22.5-12.1 35.3-15.9-.5 1.9-2.6 4.6-.5 6.2 4.4 4.3 9 8.4 13.4 12.7 1.3 1.1 3.1 3.2 4.9 2.6 3.9-.8 8-1.4 11.7-2.9 1.5-.4 2.3-2.4 1.7-3.7-1.2-3.8-3.4-7.3-4.6-11.1-.3-1.7-.2-3.7-.2-5.7z"/><path class="st1" d="M281.5 70.8c6.9 1.1 13.9.9 20.8-.7-4.5 5.1-8.5 10.7-13 15.8-3.7-.6-7.3-1.3-11-2 .9-3.4 1.8-6.9 2.6-10.4l.6-2.7zm-145.8 1.1c1.1.6 2.3 1.2 3.4 1.8l3-.6c-1.4 3.9-3.2 7.7-5.6 11-2 2.3-5.2 4.7-8.3 2.7-1.5-1.6-3.3-4.7-4-6.8 1.8-2.4 2.7-5.1 4.5-7.4 2.8 1.4 5.4 2.1 8.5 2.5-.4-1.1-1-2.1-1.5-3.2zm131.1-.3c-6.1 7-9.1 14.9-12.3 23.4-2.4 6.6-5.1 13.3-6.8 20.2-1.4 5.6-3 10.9-3 16.7.6.8 1.3 1.6 1.9 2.5-5.3-1.9-10.9.8-15.6 3.2-4.8 2.5-7.5 7.2-8.7 12.3 10.8 5.3 21.7 10.5 32.7 15.3 3.9-7 11.7-7.4 18.8-7.8-5.7 3.6-8 6.9-9.3 13.5-2.5.6-4.9 1.4-7.4 1.8-3.8-.1-7.7-1.4-11.1-2.9-9.1-4.2-18.3-8.4-27.5-12.5-1.6-.8-3.1-1.4-4.1-3-3-4.9-4.1-11-3-16.7.8-6.9 6.1-13.4 10.1-18.9 5.1.7 10.6 3.6 15.9 4.6.5-1.6.9-3 .6-4.7-.9-6.7-1.6-13.3-2.6-20 5.2-7 9.7-14.8 15.6-21.1 3.4-3.7 8-4.3 12.6-5.5 1.2.1 2.2-.2 3.2-.4zM53.2 75.3c1.5.7 3.1 1.3 4.6 2 3 1.3 6 2.8 9.4 2.9 4 .1 7.7-1.2 11.2-2.9 1.5 3.6 3.1 7.2 4.8 10.8-4.2 2-8.6 2.5-13.1 3.5-4.6-4.3-9.1-8.7-13.7-12.9-1.1-1.2-2.2-2.3-3.2-3.4zm55.2 5c3.3 4.6 5.8 9.7 8.9 14.5-1.4 1.9-4.7 5.3-4 7.8 1.8 2.1 6.4.5 8.7.3 3.8 6.4 7.3 12.9 11.2 19.3-9.1 3.6-18 7.5-27.2 10.9.3-17.6 1.9-35.2 2.4-52.8zm96.5 1.1c2.3 1 3.7 1.7 6.4 1.3 2.1 2.6 5 3.5 7.7 5.2 1.8 1.2 2.6 3.1 3.5 5-5 .4-9.8-.7-14.7-1.8-4.6-1.2-9.1-2.3-13-5.1 1-1.1 1.7-3 3.4-3 2.4-.3 4.6-.6 6.7-1.6zm-68.8 5.5c.7.3 1.4.7 2.1 1 2.6.2 5.2-.2 7.7.2 1 .8 1.9 1.8 2.7 2.8-7.1 5.3-16.9 7.4-25.4 9.8-1.1-1.8-2.2-3.5-3.4-5.3 3.1-1.8 6.2-3.1 8.4-6.1 3.3.4 5.2-.7 7.9-2.4zm200.4.6c3.7 1 8.8 2.5 10.8 6.1 2.7 5.4 3.4 12.2 4.4 18.1 2.5 14.5 2.4 29.6 3.8 44.2.4 3.6 1.2 7.2 1.3 10.8-.2 4.1-1.1 8.1-1.5 12.2-.6 6.7-2.7 13.2-4.1 19.9-1.2 4.5-1.8 9.2-3.4 13.6-1.6 2.5-4.2 4.6-6.3 6.8-5.9-2.5-11.7-3.6-18.1-3.8-.8-1.4-2.1-2.9-2.3-4.6-.8-6.5-.1-13.5 0-20.1.3-9.9 3.6-19.1 4.3-29 .5-4.7-.5-9.3-1.6-13.8-2-8-4-16-5.9-24-1.6-9.4-2.6-18.2 2.9-26.6 3.6-4 7.9-7.4 13.1-8.9.9-.3 1.8-.6 2.6-.9zM16.8 88.9c3.2 2.5 6.2 5.2 8.7 8.4 2.4 3.2 4.8 6.2 4.8 10.5-.4 8.8-2.2 17.6-2.5 26.4 1.6-.3 3-.3 4.3-1.5l15-12.9c3-2.3 5.2-5 9.4-4.1.8 5.1 3.7 8.7 6.3 12.8-.4 1.6-.7 3.3-1 4.9-8.5 9.2-17.2 18.2-25.7 27.4-3.3 3.6-7.4 6.7-11.2 9.8-2 1.6-4.1 2.7-6.8 2.6-5.5.2-10-3-13.7-6.7-2-2.1-2.6-4.8-2.5-7.7.2-7.6 1.1-15.3 2.3-22.8 2.4-13.8 4.9-27.8 8.9-41.2.8-2.4 2.2-4.1 3.7-5.9zm72.8 5.4c-3.9 3.5-9.9 5.8-12.7 10.2-1.6 3.5 1.1 8.6.7 12.3-.9 3-3 5.8-5.1 8.1-2.7.7-5.8.5-8.6 1.2-2.2-3.2-4.2-6.4-5.2-10.3 4-2.8 1.4-6.9 4.6-10.2 2.7-3.1 5.8-8 10.1-8.6 3.8-.7 7.6-1.4 11.3-2.2 1.6-.1 3.2-.3 4.9-.5z"/><path class="st1" d="M118.1 96.2c1.1 1.6 2.1 3.3 3.2 5-2.1.2-4.3.3-6.4.4.8-2 1.8-3.7 3.2-5.4zm115.8 5c1 6.6 1.6 13.3 2.5 19.9-4.5-1.4-9-2.9-13.5-4.4 3.7-5 7.3-10.3 11-15.5zM134 124c2.6 4.8 5.2 9.5 7.8 14.2 2.6 4.3 1.2 9.8-1.6 13.6-3.4 4.8-8.9 6.8-14.2 8.7-12.6 4.3-25.4 7.9-38.4 10.9 2.1-2.3 4.7-4.4 6.5-6.9.5-3.8-1.8-8.4-4.6-11-4.9-3.5-10-2.4-15.6-2.4 6.8-2.7 16.7-.5 21.5 5.2 8.5-2.5 16.8-5.3 25.3-7.9 2.1-.6 4-1.4 5.9-2.3-2.9-6.5-10.5-9.7-16.8-11.9 8-3.8 16.2-6.9 24.2-10.2z"/><path class="st1" d="M107.8 135.3c4.5 1.5 8.9 3.4 12.6 6.3-6.1 1.6-12.1 3.6-18.3 4.9-2.6.7-5.2-1.3-7.4-2.3-5.1-2.7-10.7-3.9-16.4-4.4 5.9-1.5 11.9-2.4 17.9-3.7 4.1-.9 7.5-2.1 11.6-.8zm135.4.5c7 .9 14 3.6 20.5 6.6 3.7 1.7 7.4 3.1 10.9 5.3-4.3.1-9.1-.4-13.1 1.4-3.6 1.6-7.2 3.6-10.5 5.8-8.2-3.5-16.4-7.1-24.5-10.9 4.1-4.8 10.5-7.9 16.7-8.2zm-166 6.1c7.7-.4 15.2 3.1 21.8 6.6-1.1 1.7-2.2 3.4-3.4 5.1-6.1-5.4-15.7-7-23.3-4.2.2-2 .3-4 .5-5.9 1.4-1 2.7-1.6 4.4-1.6zm45 1.2c.7.6 1.4 1.2 2 1.8-8.8 3-17.6 5.6-26.4 8.5 1.1-1.6 2.1-3.1 3.2-4.6 7.2-1.6 14.2-3.8 21.2-5.7zm103.6 2.9c7.3 2.9 14.4 6.4 21.7 9.5 3.1 1 3.7 4.2 5.3 6.7-9.5-4.4-19-8.9-28.4-13.4.4-1 .9-1.9 1.4-2.8z"/><path class="st1" d="M275.1 149.7c.4 2 .7 4 1.1 6-7.6-.3-15.9.2-21.4 6.2-1-1.8-1.9-3.6-2.9-5.4 3.5-2.3 7.2-4.5 11.1-6 3.7-1.2 8.2-.8 12.1-.8zm-202.4 3.7c3.1-.6 6.4-.8 9.6-.6 3.1.4 6.1 1.2 7.8 4.2 1.3 2.3 3.6 6.4.9 8.4-2.6 2.7-5.4 5.4-8.5 7.5-4.3 2.8-9.6 1.6-14.1 0-2.6-.7-4.1-3.8-4.8-6.2 0-3.4 2.2-6 4.1-8.6 1.3-1.9 2.4-4.3 5-4.7zm-5.3 1.6c-2 2.6-3.9 5.1-5.7 7.9-.4-1.1-1.8-2.7-1.2-3.8 1.8-1.9 4.6-3 6.9-4.1zm229.6 3.1c.7 1.6-.1 2.5-1.7 2.6-3.6-.9-6.6-2.6-10.4-2.6 3.8-1.4 8.2-1.3 12.1 0z"/><path class="st0" d="M202.4 165.5c4.1 2.8 7.3 6.6 8.6 11.4.8 3.4.5 7.3.5 10.8v158c-.2 1.3 1.5 2.4 2.3 3.3 4.7 4.1 7.7 10.4 7.5 16.6-.1 9 0 18 0 27 .1 8.8-6.5 16.1-13.5 20.6-13.3 8.2-29.4 9.7-44.6 7.4-7.6-1.5-15.2-4.1-21.8-8.3-4.5-2.9-7.9-7-10.4-11.6-1.8-3.2-1.5-6.6-1.5-10.1.1-9.3-.1-18.7.1-28 .3-6.1 4.4-10.7 8.3-14.9-.1-55.3.1-110.7 0-166-.1-5.1 2.2-9.8 5.9-13.3 6.4-6.2 15.1-9.1 23.8-10.3 11.9-1.6 24.9.7 34.8 7.4z"/><path class="st1" d="M184 160.2c7.1 1.3 14.4 4.1 19.9 8.9 3.7 3.3 6 7.6 5.8 12.6 0 54.7-.1 109.4 0 164.1-4.2-3.1-8.6-5.4-13.6-6.9-15-4.9-31.5-4.1-46.1 1.6-3.7 1.4-7 3.1-10.2 5.5.2-55 0-110.2.2-165.3.1-6.1 4.2-10.9 9.1-14.1 10.3-6.7 22.9-8.1 34.9-6.4zm90.3-.5c3 .1 5.8 1.1 8.9.6 4-.6 8.2.9 11.5 2.9 1.7 1.4 4.1 2.8 3.4 5.4-1.6 3.1-4.1 5.9-6.5 8.5-2.1 2-5.4 4.6-8.5 3.6-6.6-1.7-10.3-6.9-16.7-10.1 1.4-4.6 3.3-8.8 7.9-10.9z"/><path class="st0" d="M164.6 162.2c8.6-1.5 18.1-1.3 26.4 1.8 4.9 1.6 9.1 4.7 12.4 8.7 2.3 3.2 3.7 7.1 2.5 11-1.6 5.1-5.7 9-10.4 11.4-6 3.6-13.5 4.3-20.3 4.6-9.6.3-19-2.3-26.3-8.6-3.7-3.3-6.3-8-5.2-13.1 1.3-4.6 4.6-8.7 8.7-11.1 3.7-2.2 8-3.7 12.2-4.7z"/><path class="st1" d="M165.4 164c4.8-.9 9.9-1 14.8-.6 7.5 1 15.1 3.3 20.4 9 3.1 3.1 4.6 7.5 3 11.8-1.5 3.4-4.5 6.3-7.6 8.4-5.7 4.1-14 4.9-20.8 5.1-9.5.4-19-2.3-26-8.9-3.4-3.4-5-8.2-2.8-12.7 3.5-7.4 11.7-10.4 19-12.1zm-74.5 23.2c.4.9.7 1.9.9 2.8-2 1.3-4.3 3.2-6.7 3.4-7.8 1-15.7 1.5-23.5 2-10.9.7-21.6-.2-32.5-1.3-3.8-.4-7.4-1.5-11-2.6 0-1 .1-2.1.1-3.2 5 1.5 10 3 15.1 3.9 12.7 1.2 25.1.7 37.8.1 6.7-.6 14-1.6 19.8-5.1z"/><path class="st1" d="M92.4 192.2c1.1 6.2 2.2 12.5 3.1 18.8 2.1 19.9 3.9 39.8 5.4 59.8.6 17.4 2.2 33.6-.9 51-4.7 26.8-4.8 52.6-7.2 80-.3 2.4-1.8 4.7-2.4 7-.6 8.6 1.4 16.9 5.5 24.4 3.3 6.2 7.8 11.7 11.1 18 .5 1.1 1.6 2.7.7 3.9-1.9 3.8-7.4 3.7-10.7 2.1-7.3-3.2-9.6-11.8-16.1-16.8-2.2-1.9-5.7-3.4-7-6.1-.8-1.5-.4-2.9-.1-4.5 1.2-5.9 2-12 2.4-18 .3-2-1.3-3.8-2.2-5.5-1.5-2.3-1.8-4.8-2.2-7.4-2.1-13.3-4-26.5-4.5-40-1.3-10.7-.7-21.3.5-32 .8-10.4-1.4-21.2-2.5-31.5-1.9-14.6-1.8-31.4-5.8-45.6-2 2.5-1.5 5.1-1.8 8.1-.5 9.3-1.7 18.6-2.3 28-.5 8-1.8 15.9-3 23.8-.8 11.9-4.4 23.3-6 35.2-1.2 9.4-3.2 18.7-4.6 28-1.8 13-4.3 25.9-6 39-.3 3.6-2.1 6.6-2.9 10 .6 6.8 3.8 14.2 3.1 21-.7 3.2-4.3 5.6-6 8.4-3.3 4.2-.9 9.6-4.2 13.8-2.7 3.8-7.8 5.2-12.2 4.7-5-.4-9.1-6-8.1-10.9.7-3.9 3.4-7.5 5-11.1 3.9-8.4 8-17.7 9.2-26.9.1-3.7-1.8-7.3-2-11-1.1-17.7-1.5-35.3-2.3-53-.9-8.7-.4-17.3-1.1-26-.6-7.3-.2-14.7 0-22 1-17.3 1.5-34.6 1.8-52 .7-15 .8-30 .7-45 0-6 1.1-12 1.7-18 8.2 2.8 16.5 3 25.1 3.7 13.6 1 27.5-.5 41-1.8 2.9-.3 5.2-2 7.8-3.6zM254.7 205c2.1 1 4.2 2 6.5 2.6 7.6 1.8 15.1 3.3 23 3 11.8.7 23.5-1.3 34.7-5 .2 3.2-.3 6 1.6 8.8 2 3.1 2.8 6.6 2.5 10.2-3.7 8.8-13.1 13.4-15.5 22.3-1 2.5.5 3.8 1.5 6 3.6-2.5 7-5.1 11.1-6.7.7 7.1-1.3 13.6-1.7 20.6 0 1.8 0 5.4 1.8 6.4 3.6-.5 6-2.6 9-4.5-.8 14.7-.8 29.5-2.3 44.1-.4 5.1.9 9.7 1.8 14.8 3.1 18.7 6.5 37.4 9.6 56.2 1 6.3 2.7 13.5 1.7 19.8-1.7 4.9-5.1 7.8-8.7 11.2-.9 6.7 3 14.1 3.6 20.9.7 7.6 1.4 15.4 1 23-.1 3.9-1.6 7.6-4.1 10.6-4.1 4.1-13.1 3-15.3-2.7-1.8-5.8-.3-12.9.2-18.9.3-3.4-1.4-6.7-1.3-9.9.5-3.7 1.8-7.3 2.2-11 .7-4.4.2-8.6-.2-13-3.4-3.5-7.5-5.6-10.5-9.5-3.4-4-3.6-9.1-4.8-14-4.2-18.6-7.9-37.4-11.2-56.2-2.9-15.8-1.9-33.3-3.1-49.3-.4-4.8-.2-9.7-.8-14.5l-1.5-1c-3.8 16.2-6 32.6-7.7 49.1-.7 14.7 0 29.7.8 44.4.3 6.3 3.1 11.5 2.4 18 0 3.2-1.8 5.3-3.4 7.9 1 7 1.5 14.1 1.5 21.1 0 1.9-1.7 2.7-3.2 3.4-3.5 1.4-6.9 2.8-9.8 5.3-5 3.9-7.5 9.2-14.1 10.8-4.9 1.3-12 2.1-16.2-1.2 1.2-4.3 2.9-7.7 6.2-10.8 5-5.1 9.9-10.2 14.1-15.9 1.4-2 2.7-3.9 2.6-6.5-.1-3.2.1-6.5-.5-9.6-1.6-2.5-3.6-4.5-4.8-7.3-1.8-3.8-1.7-7.9-2.6-12.1-2.6-13-6.4-25.6-8.4-38.8-2.4-10.4-1.9-21.6-.2-32 1.1-9.1 1.7-18.2 2.8-27.2 1.3-11.3 1.7-22.7 3-34 .5-6.5 1.2-12.8 2.5-19.2.5-3.5 2.6-6.7 4.2-9.7z"/><path class="st1" d="M324.1 217.3c5.9.4 11.1 1.5 16.6 3.5-.5 2.9-1.1 5.4.2 8.2 2.1 5.2 1.7 10.2 1.5 15.7-.3 4.9-.8 10.1-2.6 14.7-1.8 3.4-7.4 4.4-10.4 6.5-2.8 2-5.4 4.1-8.8 5.1-1.2-7.8 2-14.8 1.6-22.4 0-1.9-.9-3.3-1.6-5-4.2 1.6-7.8 4.2-11.6 6.4.3-4.9 3-8.8 6.3-12.2 3.4-3.3 6.4-7.1 8.9-11.1 1.1-1.7.7-4.3.5-6.2-.1-1-.3-2.1-.6-3.2zM209.6 347.8c.1 5.3.2 10.6.1 15.9 0 6.9-5.2 12.4-10.8 15.6-8.2 4.9-17.3 6-26.6 5.9-8.1-.4-16.6-2.6-23.3-7.2-4.4-3.1-8.5-7.6-8.9-13.3-.3-5.4 0-10.8-.2-16.1 5-4.5 11.2-6.6 17.6-8.6 17.2-4.5 37.3-2.8 52.1 7.8z"/><path class="st0" d="M167.4 342.9c8.4-1.2 18.5.2 26.4 3.5 5.5 2.5 11.3 6.5 13.2 12.5 1.7 4.1.4 8.3-1.5 12.1-1.8 3.6-5.5 6.2-8.9 8.1-8.4 4.7-19 5.4-28.4 4.7-7.8-1.1-16.4-4.2-22-10-4.8-5-5.6-12.9-1.7-18.7 4.7-7.3 14.6-11 22.9-12.2z"/><path class="st1" d="M165.7 345.3c10.8-1.9 22.9-.2 32.3 5.7 2.3 1.5 4.5 2.9 5.6 5.6 1 2.2 2.6 4.7 2.2 7.2-.5 4.3-2.8 8.7-6.4 11.3-6.8 5.2-14.9 6.8-23.2 7.1-9.6.6-20.4-2.2-27.6-8.8-4.9-4.3-6.1-12.1-2.2-17.5 4-6.1 12.3-9.3 19.3-10.6z"/><path class="st1" d="M211.6 349.4c4.3 3.8 7.9 9.5 7.8 15.4v29c.1 5.3-3.5 10.3-7.1 13.9-7.7 7.1-17.8 10.2-28 11.7-12.9 1.4-25.9-.2-37.6-6.1-3.9-2-7.5-4.3-10.2-7.8-2.8-3.5-5.2-7-5.1-11.8 0-10 0-20 .1-30.1.1-5.4 3-9.4 6.5-13.2.1 5.4-.5 10.9.3 16.2 1.2 6.2 6.4 11.2 11.7 14.3 6 3.4 13.4 5.6 20.3 6 9.8.4 19.3-.5 28.1-5.2 5.9-2.9 11.8-8.4 13.1-15.1.5-5.6-.1-11.5.1-17.2z"/><circle class="st0" cx="68" cy="40.4" r="2.6"/><circle class="st0" cx="78.4" cy="38.6" r="2.6"/><circle class="st0" cx="266.8" cy="36.4" r="2.4"/><circle class="st0" cx="276.8" cy="35.5" r="2.3"/><circle class="st2" cx="205.3" cy="264.7" r="3"/><path class="st2" d="M197.4 267.4l5.1-1.8"/><circle class="st2" cx="200.2" cy="280.8" r="3"/><path class="st2" d="M195.7 273.2l2.8 5.1"/><circle class="st2" cx="194.1" cy="256.9" r="3"/><path class="st2" d="M193 263.8l.5-4"/><circle class="st2" cx="186.1" cy="279.8" r="3"/><path class="st2" d="M189.8 273l-2.5 4.2"/><circle class="st2" cx="178.8" cy="265.6" r="3"/><path class="st2" d="M181.7 266.4l5.9 1.6"/><circle class="st1" cx="192.5" cy="268.9" r="6.1"/><circle class="st3" cx="192.6" cy="268.8" r="5"/><circle class="st4" cx="164.7" cy="215.2" r="2.7"/><path class="st4" d="M158.5 219.8l3.9-3.1"/><circle class="st4" cx="164.8" cy="230.8" r="2.7"/><path class="st4" d="M158.7 225.5l3.9 3.6"/><circle class="st4" cx="152.5" cy="211.5" r="2.7"/><path class="st4" d="M153.5 217.9l-.7-3.7"/><circle class="st4" cx="152.1" cy="234" r="2.7"/><path class="st4" d="M153.3 227l-1 4.4"/><circle class="st4" cx="141.5" cy="223.6" r="2.7"/><path class="st4" d="M144.2 223.5l5.7-.3"/><circle class="st1" cx="154.6" cy="222.5" r="5.7"/><circle cx="154.6" cy="222.5" r="4.7" fill="none" stroke="#efbb31" stroke-width="1.396" stroke-miterlimit="10"/><circle class="st2" cx="162.3" cy="311.6" r="3"/><path class="st2" d="M158.4 319l2.4-4.8"/><circle class="st2" cx="169.7" cy="326.8" r="3"/><path class="st2" d="M161.2 324.4l5.6 1.7"/><circle class="st2" cx="148.8" cy="313.8" r="3"/><path class="st2" d="M152.8 319.4l-2.5-3.1"/><circle class="st2" cx="158.8" cy="335.8" r="3"/><path class="st2" d="M156.8 328.4l1.1 4.7"/><circle class="st2" cx="143.8" cy="330.6" r="3"/><path class="st2" d="M146.4 329.2l5.4-2.9"/><circle class="st1" cx="155.9" cy="323.5" r="6.1"/><circle class="st3" cx="155.9" cy="323.4" r="5"/><circle class="st2" cx="196.8" cy="346" r="3"/><path class="st2" d="M192.3 353.1l2.8-4.7"/><circle class="st2" cx="202.9" cy="361.7" r="3"/><path class="st2" d="M194.7 358.7l5.4 2.1"/><circle class="st2" cx="183.1" cy="347.1" r="3"/><path class="st2" d="M186.6 353.1l-2.2-3.4"/><circle class="st2" cx="191.4" cy="369.8" r="3"/><path class="st2" d="M189.9 362.3l.8 4.8"/><circle class="st2" cx="176.8" cy="363.5" r="3"/><path class="st2" d="M179.5 362.3l5.6-2.5"/><circle class="st1" cx="189.5" cy="357.3" r="6.1"/><circle class="st3" cx="189.4" cy="357.3" r="5"/></g><g id="Layer_2"><circle class="st2" cx="186" cy="184.3" r="3"/><path class="st2" d="M186.3 192.6l-.3-5.4"/><circle class="st2" cx="199.9" cy="193.6" r="3"/><path class="st2" d="M191.5 195.8l5.6-1.3"/><circle class="st2" cx="175.3" cy="192.9" r="3"/><path class="st2" d="M181.6 195.8l-3.7-1.5"/><circle class="st2" cx="195.1" cy="206.9" r="3"/><path class="st2" d="M189.6 201.5l3.4 3.5"/><circle class="st2" cx="179.5" cy="210" r="3"/><path class="st2" d="M181 207.5l3.2-5.3"/><circle class="st1" cx="186.4" cy="197.7" r="6.1"/><circle class="st3" cx="186.3" cy="197.7" r="5"/></g></svg>