<svg version="1.1" id="Layer_1" xmlns="http://www.w3.org/2000/svg" x="0" y="0" viewBox="0 0 1257.6 299" xml:space="preserve"><style>.st0{fill:#fff}.st1{fill:#fbc510}</style><path class="st0" d="M650.3 93c1.5-2.8 2.6-5.6 3.7-8.3 3-7.8 5.2-15.8 7.3-23.8.6-2.3.1-4.6-.9-6.8-.7-1.6-1.6-3.2-2.4-4.8-.2-.5-.7-1-.5-1.6h19.2c0 .3.1.5 0 .6-6.3 8.3-9.8 17.9-12.6 27.8-3.2 11.3-6.9 22.4-11 33.3-.4 1.1-.9 1.5-2.1 1.5-3-.1-6-.1-8.9.1-1.3.1-1.7-.4-2-1.6-2.5-10.7-5-21.4-7.5-32.2-.4-1.9-.9-3.8-1.5-6-1.9 3.5-3.3 6.8-4.3 10.3-2.3 8-4.5 16-6.8 24-.5 1.8-.8 4.1-2.1 5.2-1.3 1.1-3.6.2-5.4.2-1.8 0-3.7-.1-5.5-.1-1 0-1.4-.4-1.6-1.4-3-15.4-7.4-30.5-11.5-45.7-1.4-5.3-4-10-6.5-14.8-.2-.4-.4-.7-.6-1.2 5.7-.2 11.2-.3 16.7-.2 2.2.1 4.3.1 6.5.1.8 0 1.1.2.7 1-.8 1.5-1.4 3-2.1 4.5-1.3 2.6-1.5 5.3-.9 8.2 2.4 10.6 5.2 21.2 7.9 31.7 0 .1.2.2.4.5 1.6-4.4 2.8-8.7 4.1-13 3-10.2 5.6-20.5 8.8-30.7.4-1.3.8-2.1 2.4-2.1 2.3 0 4.6-.3 6.9-.6 1.1-.2 1.4.2 1.7 1.2 2 6.8 3.7 13.6 5.2 20.6 1.6 8.1 3.1 16 5.2 24.1zm-228.2 18.1h-5.8c-3.7-.1-7.5-.3-11.2-.4-1 0-1.5-.4-2-1.3-3.9-7.4-7.3-14.9-11.4-22.2-.6-1.1-1.3-1.7-2.6-1.7-1.1 0-2.3-.3-3.4-.5-1-.2-1.4.1-1.4 1.1-.4 8.5-.8 16.9 3.3 24.8v.2h-21.2c-.8 0-.9-.3-.7-1 3-10.1 2.7-20.5 2.6-30.9-.1-6.7.2-13.3-.7-20-.5-3.4-.9-6.9-1.3-10.3-.1-.8.1-1.1 1-1.1 8 0 16-.7 24-.3 5.3.3 10.4 1.1 15.3 3.2 5.2 2.2 7.8 6.1 8.1 11.6.1 2.1.1 4.2 0 6.3-.3 3.2-2.1 5.8-4.3 8-1.7 1.8-3.6 3.5-5.4 5.2-.6.5-.7.9-.2 1.6 6.2 8.7 11 18.4 17.2 27.1.1.1.1.3.1.6zm-37.8-44.8v12c0 .6-.1 1.3.9 1.2 2.8-.2 5.6-.1 8.3-1 2.3-.8 4.5-2.1 5.4-4.4 2.2-5.7 2.2-11.4-.8-16.9-.5-1-1.3-1.6-2.4-2-3.4-1.1-7-1.3-10.5-1.9-1-.2-.9.5-.9 1.1v11.9zm703.3 128c-2.9.2-5.3.4-7.8.5-3.3.1-6.6 0-9.9-.2-1 0-1.3-.6-1.7-1.2-3.3-6.3-6.4-12.7-9.7-19.1-2.1-4.2-5.6-6.2-9.7-7.8-1.3 9.7-1 19.2 3.9 28.2H1029c1.3-2.8 2.4-5.5 3.1-8.4.9-3.7 1.2-7.4 1.1-11.1-.3-8.6.2-17.1-.1-25.7-.2-6.1-1.2-12-3.4-17.7-.1-.2-.1-.4-.2-.8h1.9c8.9-.1 17.9-.2 26.8.4 3.7.2 7.5.6 11 1.7 6.3 1.9 8.4 4.8 9.4 11.4.5 3.2.2 6.4-.3 9.5-.4 2.1-1.3 3.9-2.7 5.4-1.9 2.1-4 3.8-6.2 5.5-.5.4-.8.8-.2 1.5 2.8 3.4 4.9 7.2 7 11.1 3.1 5.9 6.1 11.8 11.4 16.8zm-39.1-44.4h-.1v11.4c0 1.2.4 1.4 1.5 1.3 2.4-.3 4.7-.5 7.1-.6 2.2-.1 3.8-.9 5.1-2.7 4.6-6.3 4.4-14.6-.6-20-1-1.1-2.2-1.7-3.7-2-2.5-.5-5.1-.2-7.6-.3-1.2 0-1.6.4-1.6 1.6-.1 3.7-.1 7.5-.1 11.3zm45.3-38.7h-10.5c-1.2 0-2.5-.2-3.7-.4-1.9-.3-3.3-1.2-4.4-2.9-2.8-4.5-5.1-9.4-7.5-14.1-1.2-2.2-2.4-4.4-3.6-6.7-.5-1-1.2-1.4-2.3-1.5-1.3-.1-2.7-.4-4-.6-.5-.1-1.1-.2-1.1.7-.1 6.6-.8 13.3 1.2 19.8.5 1.5 1.1 3 1.7 4.5.3.7.5 1.1-.5 1.1-7.1.2-14.2.1-21.3 0-.8 0-.9-.3-.5-1 3.3-6.4 4-13.3 4-20.3 0-7.4-.3-14.8 0-22.2.3-6.7-1.4-13-4.4-18.9-.1-.2-.2-.5-.3-.8 8.7-.3 17.2-.5 25.7-.2 3.9.1 7.8 0 11.6 1.1 8.4 2.5 13.6 9.3 13.3 17.7-.1 3.2-1.5 5.8-3.3 8.3-1.8 2.5-4 4.7-6.1 6.9-.9.9-1 1.5-.3 2.6 5.5 8.6 10.3 17.7 16.2 26.2-.1.1 0 .3.1.7zm-37.1-45s-.1 0 0 0c-.1 4-.1 8-.1 12 0 .7-.1 1.3 1 1.2 2.3-.2 4.7-.1 7-.5 3.3-.6 5.9-2.2 7-5.3 1.8-4.9 1.7-10-.1-14.9-.5-1.5-1.5-2.4-2.9-3-3.4-1.6-7.1-1.9-10.7-2.3-1-.1-1.3.2-1.3 1.2.1 3.8.1 7.7.1 11.6zM497 194.7c1.4-3.2 3.1-6.2 3.9-9.5 1-4.3.7-8.6.9-12.9.3-9 0-18-.2-27-.1-4.3-1.9-8.3-3.3-12.3-.7-1.9-.7-1.9 1.3-1.9 7.5 0 14.9-.3 22.4 0 5.4.2 10.7.7 15.9 2 5 1.2 7.8 4.8 8.9 9.7.6 3 .6 6.1.3 9.2-.4 3.7-2.4 6.7-5 9.2-1.4 1.4-2.8 2.7-4.3 4-.4.3-.8.6-.3 1.3 3.7 4.5 6.2 9.7 9 14.8 2.5 4.6 5.3 8.9 9.1 12.7-2.3.6-4.5.6-6.7.7-3.5.2-7 .2-10.6-.1-1-.1-1.4-.4-1.8-1.2-3.1-6.3-6.4-12.5-9.5-18.8-1.5-3.1-3.8-5.3-7-6.7-1-.4-1.9-1-3-1.5-1.3 9.8-1.1 19.3 3.9 28.3H497zm20-44.9h-.1v12c0 .4-.2 1.1.6 1 3.8-.6 7.7-.7 11.3-2.1.5-.2.9-.3 1.2-.8 4.8-6.2 5.1-12.8.8-19.4-1.2-1.9-2.9-3.1-5.1-3.3-2.4-.3-4.9-.4-7.3-.7-1.1-.1-1.4.2-1.4 1.2v12.1zm252 127.6h-22.8c1.2-2.4 2.4-4.7 3.1-7.2 2.1-7 1.7-14.2 1.4-21.4 0-.6-.2-.9-.8-.9-6.7 0-13.4-.1-20.2-.1-.6 0-.8.2-.9.8-.4 7-.7 14.1 1 21 .7 2.7 1.7 5.2 2.9 7.8h-21.6c1.2-2.6 2.3-5.1 3-7.7 1.9-6.6 1.7-13.4 1.6-20.1-.1-5.4-.3-10.8 0-16.2.3-6.2-1.6-11.9-4-17.5-.2-.5-.6-1-.5-1.7 7.3-.3 14.5-.1 21.7 0 .2.2.1.4 0 .6-3.2 5.8-4.5 12.1-4.5 18.7 0 2.4.2 4.9.2 7.3 0 1 .4 1.2 1.4 1.2 6.5.1 13 .3 19.5 0 .4 0 1 .2 1-.6.6-8 .5-15.9-2.9-23.4-.6-1.3-1.2-2.5-1.9-4H767c.8 0 1.2 0 .9 1-3.1 9.2-3.3 18.7-3.2 28.2.1 5.4.3 10.7 0 16.1-.2 5.8 1 11.1 3.5 16.3.2.5.4 1 .7 1.5.2 0 .1.1.1.3zm484 0c-4.6.1-8.9.1-13.2-.1-1.7-.1-3.4-.4-5.2-.4-1 0-1.5-.5-1.9-1.4-3.4-7.3-6.9-14.5-10.4-21.8-.4-.9-.9-1.3-1.9-1.4-2.2-.3-4.5-.8-6.8-1.2-.7 9-.5 17.7 3.4 26.2h-21.7c.9-2.4 1.9-4.7 2.5-7.2 1.8-7.7 1.7-15.5 1.5-23.3-.1-4-.2-7.9 0-11.9.4-6.7-1.1-13-3.5-19.1l-.6-1.5s0-.1.1-.5h7c8 0 15.9-.2 23.9.4 4.6.3 9.1 1.1 13 4 3 2.2 4.3 5.3 4.8 8.8.4 2.9.3 5.8 0 8.8-.3 2.5-1.6 4.7-3.3 6.6-1.8 2-3.6 3.9-5.5 5.8-.5.5-.7.8-.2 1.5 5.4 8.3 10 17.2 16 25.2.7.7 1.2 1.4 2 2.5zm-39.4-42.4v6.8c0 3.2 0 3.2 3.3 3h1c2.4-.2 4.7-.3 7-1 2.2-.7 3.8-1.9 4.2-4.2.7-3.5 1-6.9.7-10.5-.4-5.5-2.7-8.3-8.2-9.2-1.9-.3-3.9-.2-5.8-.5-1.5-.2-1.8.5-1.9 1.7-.5 4.7-.7 9.3-.3 13.9zM717 194.4c-7.8.2-15.3.5-23 .4 1-2.4 2-4.6 2.7-7 1.5-5.3 1.7-10.7 1.6-16.1-.1-6.6-.1-13.2 0-19.8.1-7-.6-13.8-3.7-20.2-.1-.1-.1-.3-.1-.7h21.1c5.9 0 11.7.6 17.4 1.9 5.5 1.2 9 5.2 9.9 10.9 1.1 7-.4 13.1-5.4 18.2-1.1 1.1-2 2.4-3 3.6-.6.7-.6 1.2-.1 1.9 5.9 8.9 10.9 18.3 17.4 26.7.1.1 0 .2 0 .3h-17.5c-.8 0-1-.7-1.4-1.2-3.3-4.9-5.7-10.1-8.3-15.4-.9-1.9-2-3.9-2.8-5.8-1-2.4-2.8-3.8-5.3-4.4-1.3-.3-2.8-1.5-3.7-.8-.7.6-.4 2.4-.5 3.7-.4 6.2-.4 12.3 1.9 18.2.7 2 1.6 3.7 2.8 5.6zm-.7-57.7c-1-.1-2-.1-2.9-.2-.7-.1-.8.2-.8.8-.5 8.3-.5 16.6 0 24.8 0 .6.1.9.8.8 3.1-.5 6.4-.5 9.4-1.7 2.9-1.1 4.8-3 5.4-6.1.9-4.3.5-8.5-.2-12.7-.4-2.5-1.8-3.8-4-4.5-2.5-.9-5.1-1-7.7-1.2zm-191-88.9c9.3-.4 18.4-.5 27.5 0 5.1.2 10.1 1.2 14.7 3.4 7.5 3.5 12.1 9.4 13.2 17.6 1 7.6 1.1 15.4-.5 22.9-2.1 9.7-8.2 15.6-18.1 17.6-11 2.2-22.2 2-33.3 1.8-.9 0-1.8-.1-2.8-.1-.1 0-.2-.1-.4-.2 3.6-6.6 3.9-13.9 3.9-21.2-.1-6.8-.1-13.5 0-20.3.2-7.5-.4-14.7-4.2-21.5zM544.4 80c.1 0 .1 0 0 0 .1 8.3.1 16.7 0 25 0 1 .2 1.5 1.3 1.4 1.2-.1 2.5-.1 3.7-.1 7.2-.3 13.6-5.1 15.4-12.1 2.3-8.8 3-17.7.4-26.6-1.6-5.4-4.2-10-9.7-12.3-3.1-1.2-6.3-1.3-9.6-1.6-1.3-.1-1.6.3-1.6 1.6.2 8.3.1 16.5.1 24.7zM298.5 47.8c9.4 0 18.7-.8 27.9.1 6 .6 11.8 1.9 17.2 4.9 5.6 3.1 9.1 7.8 10.4 14 1.8 8.1 2 16.2 0 24.3-.9 3.5-2.5 6.8-4.6 9.8-3.7 5.3-9.1 7.7-15.3 8.9-9.8 1.9-19.6 1.7-29.4 1.5-1.6 0-3.2-.1-4.9-.1-.8 0-.9-.2-.6-1 2.6-5.7 3.2-11.7 3.1-17.9-.1-9.2 0-18.3-.1-27.5 0-5.6-1.1-11-3.6-16.2 0-.2 0-.4-.1-.8zm18.4 32.1h.1v25.3c0 1 .2 1.4 1.3 1.3 2.4-.1 4.9-.2 7.3-.7 6.8-1.4 10.7-5.9 12.8-12.2 2.8-8.2 2.7-16.6.7-24.9-2.5-10-10.7-15.9-20.9-15.1-1.1.1-1.3.5-1.3 1.4v24.9zm303 197.5h-21.5c0-.2-.1-.4 0-.5 4-8.3 4-17.2 3.8-26.1-.1-4.9-.2-9.9 0-14.8.3-7-.7-13.8-3.4-20.3l-.6-1.5s0-.1.1-.3h6.7c7.5-.1 15.1-.3 22.6.4 3.1.3 6.2.4 9.2 1.5 10.1 3.6 14.2 16 7.6 24.6-2.1 2.7-4.4 5-6.6 7.6-.4.5-.9.8-.4 1.6 4.9 7.5 8.9 15.5 14.2 22.6 1.3 1.7 2.6 3.3 3.9 4.9-.1.4-.4.2-.7.2-6 0-11.9-.1-17.9-.5-1-.1-1.4-.5-1.8-1.3-3.4-7.3-6.9-14.5-10.4-21.8-.4-.9-1-1.4-2-1.5-2.1-.2-4.2-.6-6.2-1-.9-.2-1.1 0-1.2.9-.9 8.6.2 16.8 4.3 24.5.1.3.2.4.3.8zm1.8-57.3v-.3h-5.4c-.8 0-1 .3-1 1-.4 7.8-.4 15.6 0 23.4 0 .8.2 1 1 .9 2.4-.2 4.8-.6 7.3-.5 3.7 0 6-1.9 7.6-4.9 3.1-5.8 1.7-14.3-3.1-19.1-.4-.4-.8-.5-1.3-.5h-5.1zm216-70.7c.1 10.2-.7 20.3.1 30.5.4 4.6 1.1 9.1 2.4 13.5.3 1.1.3 1.5-1 1.5-4.7-.1-9.4 0-14.2 0 0-.9.6-1.5 1-2.1 2.2-4.3 3.3-8.8 3.3-13.6.1-10.3.1-20.6 0-30.9 0-5.6-1-11.1-3.2-16.3-.1-.3-.2-.6-.3-1 4.1 0 8.1.3 12.1-.1 3.5-.3 5.4 1 7.2 3.9 6.9 10.9 13.1 22.3 19.4 33.5 1 1.8 2 3.5 3.2 5.2 0-3.7.3-7.4.4-11.1.1-6.2.5-12.3-.3-18.5-.5-4-1.4-7.9-3.1-11.5-.2-.5-.4-1-.7-1.5h16c-1 2.7-2 5.3-2.7 7.9-1.1 3.9-.9 8.1-1 12.1-.2 12.6.3 25.2-.1 37.9l-.3 5.4c0 .9-.4.9-1.1.8-3.2-.2-6.5-.4-9.7-.5-1.1 0-1.7-.4-2.3-1.4-8.3-14.2-16.7-28.3-24.5-42.7-.3-.3-.4-.6-.6-1zm-365 127.9c.9-2.1 1.8-4.3 2.6-6.4 1-2.4 1.4-5 1.4-7.6 0-11.3.1-22.6.1-34 0-4.4-1.7-8.4-3.3-12.4-1.2-2.9-1.2-2.9 1.9-3 6.9-.1 13.8-.2 20.6 0 4.6.2 9.4.3 13.9 1.5 8.7 2.2 14.9 7.6 17.7 16.2 3.4 10.5 2.9 21-1.8 31-3.9 8.5-10.8 13.1-20.3 14.1-10.9 1.1-21.7.5-32.6.7 0 0-.1 0-.2-.1zm41.2-31c.2-2.2-.1-4.3-.3-6.5-.2-2.2-.5-4.4-1-6.6-1.6-7.6-6.2-12.2-13.6-13.3-2.5-.4-5.1-.2-7.6-.3-.8 0-.9.4-.9 1-.1 2.2-.2 4.3-.4 6.5-.9 14.7-.2 29.3 0 44 0 .9.3 1.1 1.2 1 2-.2 4-.2 6-.4 8.2-.5 12.1-3.5 14.6-11.4 1.6-4.5 1.8-9.2 2-14zm507.9-14.4c.1 7.9-.7 15.3-.7 22.7 0 7.8.7 15.4 4.3 22.7H1011c1.2-2.9 2.1-5.8 2.6-8.8.7-3.9.9-7.9.8-11.8-.3-8.9.3-17.8-.1-26.6-.2-5.1-1.1-10-3.1-14.7-.2-.4-.3-.9-.5-1.4 5.7-.2 11.2 0 16.7.3.8 0 1 .7 1.3 1.3 6.9 10.8 13.2 22 19.4 33.3 1.6 2.9 3.1 5.7 4.8 8.8 1.5-13.8.1-32-3.4-43.7h3c3.8 0 7.6 0 11.4-.1 1.1 0 1.3.2.9 1.3-1.2 3-2.5 6-3 9.2-.5 3.4-.4 6.9-.5 10.4-.1 7.4 0 14.7.1 22.1.1 6.6-.2 13.2-.2 19.8 0 .6.1 1.2-.9 1.1-3 0-5.9-.3-8.9-.5-2.4-.2-3.7-1.7-4.9-3.5-3-4.5-5.5-9.2-8.1-13.9-4.9-8.8-9.8-17.7-15.3-26.2-.4-.5-.7-.9-1.3-1.8zM715.1 47.6c5.7-.3 11.2.1 16.7.5.6 0 .8.4 1.1.8 7.8 14 16.6 27.5 23.4 42 .4.9.8 1.7 1.3 2.6-.9-6.9-.9-13.9-.9-20.8 0-4.4-.1-8.9-.3-13.3-.1-3.3-1.5-6.3-2.9-9.2-1.2-2.5-1.2-2.5 1.6-2.5h14.6c-.7 1.7-1.4 3.3-2.1 4.9-1.8 4.1-2.7 8.4-2.7 12.9.1 14.6 0 29.1.1 43.7 0 1.6-.5 2-2 1.9-2.9-.2-5.8-.2-8.8-.1-1 0-1.5-.3-2.1-1.1-6.7-10.2-12.4-20.9-18.4-31.5-2.2-3.9-4.5-7.7-6.8-11.6-.5.5-.3 1-.3 1.5.1 5.6-.3 11.3-.5 16.9-.3 8.9 0 17.7 3.9 26.1h-14.9c.7-1.7 1.3-3.3 2-4.8 1.1-2.6 1.7-5.3 1.8-8.2.5-12 .2-24.1.1-36.1-.1-4.3-1.7-8.1-3.1-12-.2-.9-.5-1.7-.8-2.6zm-318 83.2h15.3c1.3 0 1.1.5.8 1.3-1.6 3.8-3.1 7.6-3.7 11.7-.3 1.9-.4 3.8-.4 5.7-.1 14.5-.1 29-.1 43.6 0 1.4-.4 1.8-1.8 1.7-2.8-.2-5.6-.2-8.4-.2-1 0-1.6-.3-2.2-1.2-5.2-8.3-9.8-17.1-14.7-25.6-3.2-5.6-6.6-11.2-10.5-16.5-.6 1.4-.5 2.8-.6 4.2-.8 9.4-.8 18.8-.2 28.2.1 2.4 1.3 4.4 2.3 6.5.7 1.4 1.5 2.7 2.3 4.3-5.6.2-11 .4-16.6.6 1.5-2.8 2.7-5.6 3.4-8.6 1-4.1 1.2-8.3 1.2-12.6 0-8.7-.1-17.3-.2-26-.1-5.7-1.1-11.2-3.5-16.3-.1-.2-.1-.4-.2-.8 4.4.2 8.7.6 13 .4 3.4-.1 5.2 1.2 6.9 4.2 7.5 13.1 15.2 26 22.3 39.3.2.4.3.9.9 1.2-.6-5.8-.6-11.5-.8-17.2-.2-5.2-.3-10.4-1.1-15.5-.7-4.1-1.7-8.1-3.4-12.4zm455.3-50.1c.1-5 .5-9.9 1.7-14.8 2.3-9.2 8.5-14.9 17.2-17.6 7.7-2.4 15.5-1.7 23.2 1.3 5.9 2.3 9 7 11.2 12.5 1.6 3.9 2.2 8.1 2.3 12.4.1 6.1.3 12.2-1.3 18.2-.8 3.1-2.1 6.1-3.6 9-2.3 4.5-6.1 7-10.8 8.2-5.4 1.4-10.9 1.5-16.4 1.2-2.7-.1-5.4-.3-8-1.2-7.8-2.4-12.5-7.6-14.1-15.6-1-4.4-1.2-9-1.4-13.6zm14.9-.5c-.1 3 0 6.2.3 9.4.6 5.4 2 10.5 5.8 14.6 2.7 3 6.5 3.9 10.4 2.5 3.8-1.4 5.9-4.2 7.2-8 4.3-12.6 3.5-25.1-.2-37.6-1.2-4.1-4-6.6-7.7-8.2-2.2-.9-4.3-.8-6.4.3-4.4 2.2-6.9 5.9-8.1 10.6-1.2 5.4-1.3 10.8-1.3 16.4zm146.1 50.8c-2.3 4.6-3.5 9.2-4 14.1-.5 5-.5 10-.4 15.1.2 7.2.4 14.4-.8 21.5-1 6.2-4.6 10.1-10.3 12.1-5.6 2-11.4 1.7-17.2 1.5-2.6-.1-5.2-.5-7.6-1.4-7.3-2.8-11.3-8.8-11.5-17-.2-7.7.1-15.4 0-23.1 0-7.3-.6-14.5-2.5-21.5-.3-.9-.2-1.3 1-1.3 5.8.1 11.6 0 17.4 0 .7 0 1.2-.1.9 1-2.3 8.3-2.8 16.8-2.8 25.4 0 6.3.1 12.7.3 19 .1 4.2 1.9 8 3.3 12 .1.3.4.5.7.5 3.6.2 7.2 1 10.8.3 3.5-.6 5.4-2.3 6.2-5.7 1.1-4.8 1.7-9.6 1.7-14.5v-20.5c0-5.6-1.8-10.7-3.7-15.8-.7-1.7-.7-1.8 1.2-1.8 5.7.1 11.4.1 17.3.1zm125.6 82.9c7.5 0 15.1-.1 22.7 0 7.1.1 14.2.3 21.3.4 1.1 0 1.4.4 1.4 1.5 0 4.8-.3 9.6-.4 14.6-1.5-.1-2.7-.9-3.9-1.6-2.3-1.4-4.3-3.2-5.9-5.3-2-2.5-4.7-3.4-7.7-3.5-2.6-.1-5.3-.1-8-.3-1.1-.1-.9.7-1 1.3-.2 2.4-.3 4.8-.4 7.1-.1 4.5.1 9 .5 13.5.1 1.1.5 1.2 1.4 1.1 3.1-.5 6-1.7 8.7-3.3 2.3-1.4 4.6-3 7.1-4.6.3 6.6.1 13 .1 19.6-1.2-.6-2.1-1.1-3.1-1.7-4-2.2-8.2-4-12.7-5.1-1-.3-1.2.1-1.3.9-.9 7.6-.8 15.2-.3 22.9.1 1 .4 1.3 1.4 1.2 3.8-.3 7.7-.5 11.5-.7 1.1-.1 1.9-.4 2.6-1.5 1.6-2.7 3.4-5.3 5-7.9.5-.9 1.1-1.3 2.2-1.2 1.3.1 3.2-.5 3.8.1.7.7.2 2.6.3 3.9V276c0 .8-.1 1.2-1.1 1.3-14.5.7-28.9.3-43.4.3-.2 0-.3-.1-.6-.1.7-3 1.4-6 1.9-9 .5-3.3.8-6.5.8-9.9v-21.8c0-7.3-.8-14.5-2.9-21.5 0-.5-.2-.9 0-1.4zM941.5 147c-2.8-.9-4.9-2.6-7.1-4.4-.7-.6-1.4-1.2-2-1.9-2.6-3.3-6.1-4.2-10.1-4.1-1.7.1-3.5.1-5.2.1-.7 0-.9.2-1 .9-.1 7-.3 14.1.3 21.1 6-1.1 10.8-4.4 15.8-7.9.2 7 .1 13.7 0 20.7-1.8-1.2-3.5-2.3-5.1-3.4-2.9-1.9-6.1-3.3-9.5-3.9-.9-.2-1.2 0-1.3.9-.5 7.5-.4 15-.3 22.6 0 1 .3 1.3 1.3 1.3 2.2 0 4.3.2 6.5.3 3 .2 5.4-.9 7.3-3.3 2.3-2.9 4.9-5.7 7.6-8.2.7-.6 1.4-1.2 2.2-1.9.8 6 .8 11.7.8 17.5 0 1.1-.7.9-1.3.9-5.1.1-10.3.2-15.4.2h-28.6c-.2-.2 0-.4.2-.6 3.2-5.4 4.3-11.2 4.5-17.4.1-2.8 0-5.5-.1-8.3-.2-4.1-.1-8.2.1-12.3.4-10.2-.2-13.2-4-24.9.5-.4 1-.2 1.5-.2h41.6c1.2 0 1.5.2 1.6 1.5 0 5 .1 9.8-.3 14.7zm-599.2.4c-3.2-1.4-5.4-3.2-7.6-5-1.2-1-2.5-2-3.5-3.2-2.1-2.4-4.9-2.3-7.6-2.5-2-.1-4-.1-6-.1-.6 0-1 0-1.1.8-.1 6.9-.3 13.9.3 20.8 0 .2.1.4.2.7 6-1 10.8-4.3 15.7-7.9v20.7c-.8-.5-1.5-1-2.3-1.5-3.8-2.6-7.8-4.9-12.4-5.8-1-.2-1.2 0-1.2.9-.5 7.1-.7 14.2-.3 21.3.1 2.7.1 2.7 2.7 2.7 3 0 6.1-.1 9.1 0 1.3.1 2.1-.4 2.7-1.5 1.2-2.1 2.4-4.2 3.7-6.3 1.5-2.4 3.6-3.8 6.5-4 1.1-.1 1.4.3 1.3 1.4-.2 4.8-.4 9.5-.5 14.3 0 1.2-.5 1.4-1.5 1.4-10.4.1-20.8.3-31.2.1-4.2-.1-8.3 0-12.6 0 .9-1.9 1.8-3.9 2.6-5.8 1.4-3.1 2-6.4 1.9-9.8-.2-9 .3-18 0-27-.2-6.5-.8-12.8-2.4-19.1-.3-1.4-.2-1.8 1.3-1.8 12.9-.1 25.8-.2 38.7.1 1.1 0 2.6-.5 3.2.3.5.7.2 2.2.2 3.3.1 4 .1 8 .1 12.5zm757.2-99.9c8.1 0 15.8-.1 23.4 0 7.1.1 14.2.3 21.3.4 1.2 0 1.4.4 1.4 1.5-.1 4.1-.2 8.2-.1 12.3 0 1.3-.5 1.4-1.6 1.2-2.4-.5-4.4-1.5-6.1-3.1-.6-.5-1.2-1-1.7-1.5-3.5-4.1-8.1-5.3-13.3-5h-.7c-3.6 0-3.7 0-3.7 3.7-.1 6 0 11.9-.1 17.9 0 1 .2 1.4 1.4 1.2 3.8-.4 7.3-1.9 10.6-3.8 1.9-1.1 3.7-2.3 5.9-3.6.1 7.1.2 14-.4 21.1-1.8-1.4-3.4-2.8-5.1-4-3.3-2.5-6.8-4.6-11-5.3-.8-.1-1.2 0-1.2.9-.3 8-.5 15.9-.1 23.9 0 .7.3.8.9.8 4.3.1 8.7.1 13 .2.9 0 1.1-.5 1.4-1.1 1.7-3.1 3.5-6.1 5.2-9.2.5-.9 1.1-1.3 2-1.4.4 0 .9 0 1.3-.1 3.7-.4 3.6-.4 3.5 3.2-.2 3.7-.4 7.5-.4 11.2 0 1.3-.4 1.6-1.6 1.6-12.5.8-24.9.5-37.4.4h-5c-.8 0-1.2-.1-.8-1.1 2.4-5.3 3-11 3-16.8V66.3c-.1-6.2-1.1-12.4-4-18.8zM585.4 259.7c.5 5.6.4 11 .4 16.4 0 1.3-.8 1-1.5 1-9.7.4-19.5.3-29.2.3h-11.9c-.9 0-1.2-.1-.8-1.1 2.9-8.5 3.1-17.4 2.9-26.3-.1-6.2 0-12.5-.1-18.7-.1-5.3-1.7-10.3-3.1-15.4-.2-.6-.3-1.1-.5-1.7.5-.3 1-.2 1.4-.2 13.9-.1 27.7-.2 41.6.1 1.1 0 1.3.4 1.3 1.4-.1 4.4-.1 8.8-.1 13.2 0 1-.3 1-1.1.7-2.3-.9-4.3-2.3-6.1-3.9-.7-.6-1.4-1.2-2-1.9-2.5-3-5.8-3.9-9.5-3.8-1.8.1-3.7-.1-5.5-.2-.8-.1-1.1.1-1.2 1-.5 7.1-.4 14.2 0 21.3.1.9.3.9 1.1.7 3-.6 5.6-1.9 8.1-3.6 2.4-1.6 4.7-3.3 7-4.9.4.5.3 1.1.3 1.6v17.1c0 1.3-.2 1.6-1.5.9-4.3-2.4-8.8-4.7-13.5-6.3-1-.4-1.4-.3-1.5.9-.6 7.6-.7 15.2-.1 22.9 0 .6-.1 1.3 1 1.2 3.1-.3 6.3-.2 9.4-.6 1.6-.2 2.8-1 3.9-2.1 1.6-1.7 3.2-3.5 4.9-5.2 1.7-1.9 3.4-3.6 5.9-4.8zm19.2-108c.1 6.7-.3 13.2-.7 19.9-1.2-.4-2.1-1.1-3.1-1.7-4.2-2.5-8.5-4.7-13.4-5.3-1-.1-1.3 0-1.4 1.1-.4 7.4-.3 14.8-.3 22.3 0 1.2.4 1.4 1.5 1.4 3.7 0 7.4 0 11 .1.9 0 1.4-.3 2-1.1 2.9-4.2 5.9-8.3 10-11.4.2-.1.3-.2.7-.5.1 1.4.3 2.6.3 3.8.2 4.4.1 8.8 0 13.2 0 1-.3 1.3-1.3 1.3-12 .3-23.9.4-35.9.1-2.4-.1-4.9 0-7.4 0 .2-1.4 1-2.4 1.4-3.4 2.1-4.6 3.2-9.5 3.1-14.6-.1-8.6 0-17.2 0-25.8 0-6.2-1-12.3-3.3-18.1-.4-1.2-.3-1.4 1-1.5 13.7-.3 27.4-.3 41.1.1 1 0 1.4.3 1.3 1.4-.2 4.8 0 9.6-.5 14.8-1.3-1.1-2.5-2-3.6-3-2.5-2.2-4.9-4.5-7.5-6.5-.7-.5-1.5-.9-2.4-.9-3.5-.2-7-.4-10.6-.3-.8 0-1 .3-1 1-.3 6.7-.4 13.4 0 20.1 0 .8.3.9 1 .8 2.5-.1 4.8-1.1 7.1-2.2 2.9-1.5 5.6-3.4 8.8-4.3 1-.5 1.5-.7 2.1-.8zm48.2 43.1h-24.5c1-2.2 2.1-4.3 3.1-6.5 1.4-3 2.1-6.2 2.1-9.6 0-9.2-.1-18.3.1-27.5.1-6.3-1-12.2-3.8-17.9-1-2.1-.9-2.2 1.4-2.2 7.9-.1 15.8-.4 23.7-.1 4.7.2 9.4.7 13.9 2.1 5.8 1.7 8.7 6.1 9.5 11.7.8 5.6-.4 11-3.6 15.7-2.9 4.2-7.3 5.7-12 6.5-4.4.8-8.9 1.2-13.4 1.6-.7.1-1.4 0-1.4 1.1-.2 5.1-.6 10.2.6 15.2.7 3 2 5.8 3.6 8.4.3.5.7.8.7 1.5zm-4.8-45.2v12c0 1.1.3 1.2 1.3 1.1l11.1-1.5c.8-.1 1.2-.4 1.5-1.2 2.6-7.1 2.4-14.1 0-21.1-.2-.7-.5-1-1.2-1.1-3.7-.4-7.4-.8-11.1-1.3-1.2-.2-1.6.1-1.6 1.4.1 3.9 0 7.8 0 11.7zm546.5 45.1h-24.8c.6-1.4 1.2-2.8 1.9-4.1 2.4-4.8 1.9-9.5 0-14.3-.2-.6-.5-.8-1.2-.8l-17.4-.3c-.4 0-.9-.1-1.1.4-1.1 2.7-2.7 5.2-3.3 8.1-.2 1.1-.2 2.1.2 3.2 1 2.7 2.5 5.3 3.5 7.8h-18.8c1-1.6 1.7-2.8 2.5-4 5.7-9.6 9.5-20.1 13.3-30.5 3.4-9.4 6.6-18.9 10.8-28.1.5-1.1 1.1-1.8 2.5-1.8 2.9 0 5.7-.2 8.6-.5 1.3-.1 1.8.3 2.2 1.6 4.3 14.8 8.6 29.5 13 44.3 1.8 6.1 4.3 11.8 7.5 17.4.1.3.6.8.6 1.6zm-31.8-49.4c-.2.2-.4.3-.4.4-3.4 7.4-6.1 15.1-8.7 22.8-.3.8-.1 1.2.8 1.1 4.7-.1 9.4-.2 14.1-.2.9 0 1-.3.8-1-2-7.7-3.9-15.5-6.6-23.1zM800 151c.1 7 .1 13.8-.5 20.7-3.3-2.1-6.2-4.3-9.7-5.7-2.1-.8-4.2-1.3-6.4-1.5-1-.1-1.3.2-1.3 1.2-.3 5.8-.5 11.7-.3 17.5.1 1.6.1 3.3.1 4.9 0 .8.2 1.2 1.1 1.2 4.2-.1 8.3-.1 12.5 0 .9 0 1.3-.4 1.7-1 1.4-2.1 2.7-4.3 4.1-6.4 1.7-2.5 3.9-4.1 7-4.3 1-.1 1.3.2 1.3 1.2-.1 4.9-.5 9.7-.9 14.6-.1 1-.5 1.2-1.4 1.2-5.9.2-11.8.3-17.7.2h-25.1c-.2-.4.1-.8.3-1.1 2.6-5.4 3.7-11.2 3.7-17.1.1-8.7.1-17.3 0-26-.1-6.2-1-12.3-3.5-18-.4-1-.4-1.4.9-1.4 12.5-.1 24.9-.3 37.4.1 1.6 0 3.2.1 4.9.1.8 0 1.1.2 1.1 1.1-.2 4.5-.3 9.1-.3 13.6 0 1-.4 1-1.2.8-3.4-.7-6.2-2.6-8-5.4-2.4-3.8-5.5-5.1-9.8-4.6-2.2.3-4.5.1-6.8.1-.8 0-1.2.1-1.2 1.1-.3 6.4 0 12.9.1 19.3 0 1.3.5 1.5 1.6 1.3 3.9-.6 7.5-2 10.8-4.1 1.7-1.1 3.5-2.3 5.5-3.6zm39.7 126.3h-23.5c.9-2.3 1.8-4.5 2.4-6.8 1.6-6.5 1.7-13.1 1.5-19.7-.2-4.9-.2-9.7 0-14.6.4-7.2-.7-14.1-3.6-20.7-.5-1.2-.6-1.6 1-1.6 8 0 15.9-.4 23.9.1 4.9.3 10 .3 14.7 2.2 5.3 2.1 8.2 5.9 8.5 11.7.2 2.9.2 5.7-.1 8.6-.8 6.3-4.6 10.3-10.3 12.6-4.2 1.7-8.5 2.3-13 2.6l-6 .3c-.6 0-1.1 0-1.1.8-.1 6.1-.6 12.2 1.8 18.1.8 2.3 2.2 4.3 3.8 6.4zm-5.5-44h-.4c.2 4.3.4 8.5.5 12.8 0 .9.2 1.3 1.2 1l9-2.7c3.5-1 5.1-3.3 5.5-6.7.1-.4.1-.7.2-1.1.8-5.4-.8-10.4-2.2-15.4-.2-.6-.6-.6-1.1-.7l-11.7-.6c-.8 0-1 .2-1 1v12.4zm-444.5.8c.5 6.9.3 13.6.2 20.5-1.2-.2-2-.8-2.9-1.3-4.4-2.4-8.8-4.5-13.8-5.6-1.4-.3-1.7.1-1.7 1.3-.2 7.5-.4 15.1.2 22.6 0 .4-.1.9.6.9 3.9-.4 7.8.1 11.6-.9 1.7-.4 3-1.3 4.1-2.7 1.8-2.3 3.3-4.8 4.9-7.3.4-.7.9-1.1 1.8-1 1.2.2 2.4.1 3.6.2.8 0 1.1.3 1 1.2-.5 4.8-.9 9.7-1.3 14.5-.1 1-.7.8-1.3.8-3.3 0-6.6.1-9.9.1h-32.7c1.1-2.6 2.2-5.1 2.8-7.7 1-4.1 1.4-8.2 1.4-12.4 0-8-.2-15.9 0-23.9.1-6.3-1.4-12.2-3.7-18-.2-.4-.3-.8-.5-1.2v-.2c.3-.3.7-.1 1-.1 13.9 0 27.7-.2 41.6.2 1.2 0 1.6.3 1.6 1.6 0 4.1 0 8.2.2 12.3.1 1.4-.5 1.5-1.6 1.4-2.7-.3-4.9-1.6-6.7-3.6-1.2-1.4-2.5-2.8-3.8-4.2-1-1.1-2.2-1.4-3.6-1.6-3.2-.4-6.5-.2-9.7-.5-.9-.1-1.1.4-1.2 1.1-.7 4.6-1 9.3-.9 13.9.1 2.4 0 4.9.3 7.3.1.9.4 1 1.2.9 3.2-.7 6.2-2 8.9-3.7 3.1-1.5 5.6-3.2 8.3-4.9zm564.6 43.2c1.4-2.9 2.7-5.9 3.4-9 1.3-5.8 1.4-11.7 1.1-17.6-.2-4.6-.2-9.2 0-13.8.4-7.5-.7-14.8-4.1-21.6-.1-.3-.3-.6-.4-.9v-.4h16.9c8.9 0 17.8 0 26.7.3 1.1 0 1.5.2 1.4 1.4-.1 4.9 0 9.7 0 14.9-2-.6-3.2-1.4-4.5-2.3-2.4-1.8-4.6-3.8-6.6-6-1.2-1.3-2.6-1.8-4.3-2-3.5-.5-7-.3-10.5-.4-.9 0-1 .4-1 1.1-.2 6.6-.3 13.1.1 19.7 0 .8.1 1.5.2 2.3 6.6-.9 11.9-4.7 17.5-8.3.2 6.7.2 13.2.1 19.8-1.9-1.1-3.7-2.1-5.4-3-3.5-1.9-7.2-3.3-11.2-3.5-1-.1-1.3.2-1.3 1.2-.1 7-.2 14.1.1 21.1.1 2.2.1 2.2 2.4 2.1 3.4-.1 6.8 0 10.2-.7 1.1-.2 2-.7 2.7-1.6l4.2-5.4c1.5-1.9 3.2-3.6 5.7-4.1 1-.2 1.8-.3 1.8 1.3-.1 4.6-.1 9.2-.1 13.8 0 .9-.1 1.4-1.2 1.4-14.5.7-28.9.2-43.4.4-.2-.1-.3-.2-.5-.2zM471.5 111.1c3.4-7.4 4.1-14.9 4.1-22.5 0-7.1-.3-14.3 0-21.4.3-6.2-1.6-12-3.7-17.8-.2-.5-.3-.9-.5-1.3.4-.4.9-.3 1.3-.3 14-.4 28-.1 41.9 0 1.1 0 1.4.3 1.4 1.3-.1 4.2-.1 8.5 0 12.7 0 1.2-.5 1.4-1.5 1.3-2.2-.2-4.1-1.1-5.7-2.6-1-1-2.1-1.9-2.9-3-2.2-2.9-5.2-4.1-8.8-4.1-2.4 0-4.9 0-7.3-.1-.8 0-1 .3-1 1-.1 6.9-.1 13.8 0 20.6 0 1 .4 1.1 1.3 1.1 3.3-.2 6.4-1.1 9.3-2.7 2.6-1.4 5.2-3 7.9-4.6.4 7 .2 13.9-.1 21.1-1.9-1.1-3.4-2.5-5-3.7-3.1-2.4-6.3-4.5-10.3-5.3-.3 0-.5-.1-.8-.2-2.2-.3-2.2-.3-2.2 1.9-.1 7.4-.1 14.7-.1 22.1 0 1.1.3 1.5 1.4 1.4 3.9-.1 7.8-.1 11.7-.1 1 0 1.5-.3 2-1.1 1.3-2.1 2.7-4.2 4.1-6.3 1.7-2.5 3.9-4.5 7.1-4.8 1.1-.1 1.4.2 1.4 1.3-.3 4.9-.5 9.7-.7 14.6 0 1.3-.9 1.1-1.7 1.1-11.2.4-22.4.3-33.6.2-3.1.2-5.9.2-9 .2zm-7.7 166.3h-23.6c.5-1.4 1-2.8 1.6-4.2 2.1-5 1.3-9.8-.8-14.6-.3-.7-.7-.8-1.4-.8-5.5 0-11.1.1-16.6.1-.8 0-1.3.3-1.5 1.1-.3 1.1-.6 2.2-1.1 3.2-1.8 4-1.5 7.8.7 11.6.6 1.1 1.1 2.3 1.7 3.6h-18.9c0-.2 0-.4.1-.5 6.9-9.7 11.1-20.6 14.9-31.7 3.4-9.8 6.3-19.7 10.3-29.3.5-1.1 1.1-1.5 2.2-1.6 3.1-.3 6.2-.3 9.2-.4 1.3 0 1.9.3 2.3 1.6 3.1 8.9 5.5 17.9 8.1 27 2.9 10.3 5.9 20.6 10.4 30.4.9 1.4 1.6 2.8 2.4 4.5zm-31.5-51.5c-3.2 8.7-6.4 17-8.4 25.6-.3 1.1.5 1 1.1 1 4.3 0 8.5 0 12.8.1 1.3 0 1.6-.3 1.3-1.6-2.3-8.2-4.4-16.5-6.8-25.1zm228.9 35c2.1 1.9 4 4 5.9 6.1 2.3 2.5 4.8 5 8.3 5.6 2.6.5 5.2.2 7.6-.9 3.7-1.7 5.3-6.1 4.1-10.5-.7-2.5-2.4-4.3-4.4-5.8-3.3-2.4-6.9-4.3-10.3-6.5-1.7-1.1-3.4-2.3-5.1-3.5-5.9-4.6-7.1-10.8-6.2-17.7.5-4.1 2.2-7.8 5.6-10.4 2.5-2 5.6-2.3 8.5-2.8 8-1.2 16-.3 24 .3.7.1 1 .4 1 1.1.2 4.1.4 8.2.7 12.3.1 1.5-.6 1.6-1.7 1.5-2.9-.3-5.1-1.6-6.9-3.9-1.1-1.4-2.3-2.8-3.3-4.2-1.9-2.4-4.3-3.1-7.2-2.6-1.1.2-2.2.5-3.3.9-5.9 2.6-7 9.4-2.1 13.7 3.3 3 7.2 5.1 11 7.4 3 1.9 6.1 3.8 8.6 6.3 7.4 7.4 6.4 21.4-2.2 27.4-2.9 2-6.4 2.8-9.9 3.4-6.6 1.1-13.2.2-19.7-.8-1.2-.2-2.9.1-3.5-.8-.6-.9-.2-2.4-.2-3.6v-11.8c.3-.2.5-.2.7-.2zm352.2-149.8h-23.3c0-.9.5-1.6.9-2.3 2.4-4.7 3.5-9.6 3.4-14.8-.1-13.1.1-26.1-.4-39.2-.1-2-.2-2-2.2-1.7-3 .5-5.3 2-7.3 4.2-1.4 1.6-2.9 3.2-4.4 4.8-1.2 1.3-2.7 2.1-4.4 2.7-.8.3-1.2.2-1.2-.8-.1-5.1-.2-10.3-.4-15.4 0-.9.5-.9 1.1-.9 11.7 0 23.4-.5 35.1-.2 5.6.1 11.3.2 16.9.2 1.3 0 1.6.4 1.6 1.7-.1 4.7-.1 9.4 0 14.1 0 1.4-.5 1.5-1.6 1.4-2.3-.2-4.1-1.2-5.5-3.1-1-1.4-1.8-2.8-2.7-4.2-1.3-2.1-2.9-3.9-5.7-3.8-1.3 0-3-.9-3.7-.3-.8.6-.2 2.4-.3 3.7-.3 12.7-.3 25.3-.1 38 .1 4.8 1.1 9.3 3.2 13.6.3.6.6 1.3.9 1.9.2.1.1.3.1.4zM481.8 149c-4.2-2.9-7.4-6.4-10.4-10.1-1-1.2-2-1.8-3.5-1.9-1.5-.1-3-.2-4.5-.4-.1 1.4-.3 2.9-.3 4.3-.3 11.7-.6 23.4-.3 35.1 0 .5.1 1.1.1 1.6-.5 5.6 1.2 10.6 4 15.3.3.5.6 1.1.9 1.9h-24.5c.9-1.9 1.7-3.7 2.5-5.5 1.7-3.8 2.5-7.8 2.5-11.9.3-12.8.1-25.7-.2-38.5-.1-2.6-.1-2.6-2.6-2.2-.7.1-1.5.4-2.2.4-2.8.3-4.8 1.8-6.6 4-2.1 2.6-4.3 5.2-6.5 7.8-1.2-2.1-1.7-4.4-2.1-6.6-.5-3.2-.3-6.5-.4-9.7 0-1 .4-1.1 1.2-1.1 16.3-.4 32.5-.4 48.8-.1 1.4 0 2.8.1 4.2.1.7 0 1 .2.9.9 0 5.3-.3 10.8-1 16.6zM928 110.9c1.1-1.3 2.1-2.4 3.1-3.4 2.4-2.5 3.6-5.3 3.6-8.9-.1-12.1.2-24.2-.1-36.2-.1-2.9-.4-5.8-.5-8.8 0-1-.3-1.1-1.1-.7-.5.2-1 .3-1.6.4-3.9.8-6.9 2.8-9 6.2-1.3 2.1-2.8 4-5.3 4.8-.4.1-.7.2-1.1.3-1.8.3-2 .2-2-1.7-.1-4.4-.1-8.9-.4-13.3-.1-1.5.5-1.8 1.8-1.8 15-.3 30-.5 45-.1 2 .1 4 .1 6 .1.9 0 1.2.2 1.2 1.2 0 5.4.1 10.8-.1 16.4-2.8-1-4.7-3.1-6.5-5.2-1-1.2-2-2.5-3-3.8-1.1-1.5-2.5-2.3-4.4-2.5-4.7-.5-4.7-.6-4.6 4 .1 11.8-.2 23.6 0 35.4.1 5.8 1 11.2 3.6 16.3.6 1.1.5 1.5-.9 1.5-7.4.1-14.7.2-22.1 0-.6-.1-.9-.2-1.6-.2zm186.8 166.4h-26.5c.9-1.3 1.7-2.4 2.5-3.5 2.1-2.8 3.1-6 3.1-9.5.1-14.4.2-28.8-.2-43.2 0-1.1-.3-1.5-1.5-1.5-3.6 0-6.4 1.6-8.8 4.2-1.3 1.5-2.5 3-3.9 4.4-1.1 1.2-2.3 2.3-3.7 3.2-.5-.4-.4-1-.4-1.5-.2-4.8-.4-9.6-.4-14.5 0-1 .3-1.2 1.3-1.2 17.1-.3 34.2-.4 51.4.1.7 0 1.4-.2 1.4 1-.1 5 .1 10-.2 14.9-.1 1.2-.6 1.2-1.4 1-2.3-.6-4.2-2-5.6-3.9-1.2-1.6-2.3-3.2-3.4-4.9-.7-1-1.6-1.6-2.7-1.8-2-.4-4-.7-6-1.2-.9-.2-1.1.1-1.1.9-.5 11.5-.7 23-.6 34.4.1 3.7.2 7.5.2 11.2 0 2.4 1 4.4 2.4 6.2 1.2 1.7 2.6 3.3 4.1 5.2zM1250.7 174c.7 2.2 1 4.5 1.2 6.8.4 4 .4 8 .3 12 0 1.3-.4 1.7-1.7 1.7-12.3.3-24.7 0-37 .2h-6.3c0-.1-.1-.2-.1-.2 3.7-6.7 4.3-14 4.1-21.4-.1-6.3-.2-12.7 0-19 .2-7.8-.3-15.5-3.7-22.7v-.4h23.7l-2.7 6.3c-1.3 3.1-1.9 6.3-1.9 9.6-.1 12.8-.1 25.7.1 38.5 0 .5.1 1.1.1 1.6.2 2.4.2 2.5 2.6 2.3 2.6-.2 5.3.1 7.9-.5 1.8-.4 3.2-1.2 4.3-2.9 2.3-3.9 4.5-7.9 7.9-11.1.3-.2.6-.7 1.2-.8zm-324.2 39.7c6.3.1 11.2.7 16.2 1.1.8.1 1.1.3 1.2 1.1.2 4.1.3 8.2.6 12.3.1 1.1-.4 1.3-1.3 1.3-2.2-.1-4.1-.6-5.8-2.2-1.6-1.5-2.8-3.3-4.1-5-3.5-4.3-9-4.8-13.2-1.1-4.2 3.7-6.4 8.7-7.1 14-1 7.7-1.3 15.5.2 23.3.7 3.6 1.9 7 3.7 10.1 1.5 2.6 4.1 3.4 6.8 3.8 1.3.2 2.7.1 4.1 0 2-.1 3.7-.9 4.8-2.6 1.2-1.7 2.4-3.3 3.7-5 1.8-2.3 4.1-3.4 7.1-3.1.8.1 1.2.3 1.1 1.3-.3 4.1-.6 8.2-.8 12.3 0 .7-.3.9-.9 1-5.4.9-10.9 1.9-16.4 2.2-6.3.3-12.4-.9-18-3.9-3.9-2.1-6-5.7-7.5-9.7-2.2-5.7-3.3-11.8-3.6-17.9-.2-5 1.2-9.8 2.6-14.6.8-2.9 2-5.6 3.3-8.2 2.8-5.3 7.7-7.7 13.1-9.3 3.8-1 7.6-1.2 10.2-1.2zm324.1-121c.5 5.7.4 11.3.5 17 0 1.1-.4 1.2-1.3 1.2-12.9.2-25.8.4-38.7.2h-5.4c1.8-3 3.2-5.8 3.8-9 .6-2.7.9-5.4.9-8.2v-28c0-6-1.2-11.8-4.2-17.1-.6-1.1-.1-1.2.8-1.2 5.4-.1 10.8-.1 16.2 0 2.1.1 4.2 0 6.6 0-.8 1.7-1.4 3-2 4.4-1.7 3.5-2.5 7.1-2.6 11.1-.2 13.5-.1 27 .2 40.5.1 2.9.1 2.9 2.9 2.8 3-.1 6-.3 8.9-.3.9 0 1.5-.3 1.9-1.1 1.8-3.2 3.7-6.3 5.4-9.6.6-1.1 1.3-1.7 2.5-1.9 1.2-.3 2.3-.5 3.6-.8zm-406-36.2c0 2.2-.1 4.3 0 6.5.1 1.2-.5 1.2-1.3 1.1-2.1-.4-3.6-1.8-4.8-3.4-1.1-1.5-2.1-3-3.2-4.5-3-4.1-7-4.9-11.4-2.4-3.3 1.9-5.4 4.8-6.9 8.2-1.7 3.8-2.5 7.8-2.8 11.9-.4 7.6-.6 15.2 1.8 22.5 1.5 4.8 4.4 8.5 9.2 10.4 2.5 1 4.7.7 6.9-.8 2.4-1.7 4.2-3.9 6-6.2 1-1.3 2-2.5 3-3.8.5-.6.9-.6 1.4 0 1.1 1.3 1.8 2.8 2.1 4.5.4 2.9-.1 5.7.1 8.6 0 .6-.2.7-.8.8-8.2.9-16.3 2.1-24.6 1-2.8-.4-5.5-1.1-8.1-2.1-5.9-2.5-8.4-7.5-10.2-13.1-2-6.5-1.8-13.2-1.5-20 .1-4 .6-7.9 2.2-11.5 4-9.5 11.4-14.7 21.3-16.6 6.9-1.3 13.8-.2 20.6 1.1.9.2 1 .6 1 1.3-.1 2.1-.1 4.3 0 6.5zm333.2-8.6c-1 2.9-2.5 5.6-3.3 8.6-.5 1.9-.8 3.8-.8 5.8-.2 14.2-.2 28.5.2 42.7 0 1 .2 1.4 1.3 1.3 3.4-.2 6.8-.3 10.2-.4.9 0 1.4-.3 1.8-1 1.3-2.4 2.7-4.7 4.1-7 1.7-2.7 4-4.8 7.3-5.9.1 3.4-.4 6.6-.7 9.8-.3 2.7-.8 5.5-1.1 8.2-.1.6-.3.9-1 .9-13.9.3-27.8.3-41.8.1-.1 0-.1 0-.2-.1.3-1.2 1-2.1 1.6-3.1 2.5-4 3.7-8.3 3.7-13.1 0-11.2.2-22.3-.2-33.5-.1-2.6-1-4.8-2.3-7-1.1-1.9-2.2-3.7-3.3-5.6-.4-.6-.5-.9.5-1 7.9-.4 15.8-.2 23.7.1.1.1.2.1.3.2zM300.5 277.4c2-4.4 3.2-8.6 3.8-13.1.7-5.7.6-11.3.4-17-.1-4.2-.3-8.3 0-12.5.5-6.5-1.1-12.7-3.5-18.6-.3-.6-.5-1.3-.8-2.1 7.3-.3 14.5-.2 21.9-.1-.6 1.3-1.1 2.5-1.6 3.6-2.2 4.6-3.2 9.5-3.1 14.6.2 11.5.1 23 .2 34.5 0 1.7-.5 3.8.4 4.9.9 1.1 3.1.2 4.7.2 2.4 0 4.9-.2 7.3-.2 1 0 1.6-.4 2-1.2 1.3-2.4 2.6-4.8 4-7.2 1.5-2.7 3.8-4.5 6.9-5.2 1-.2 1.7-.2 1.7 1.2-.1 5.7-.9 11.3-2.2 16.9-.2.7-.3 1.1-1.2 1.1-13.7.5-27.1.1-40.9.2zm503.5 0h-22.9c1.1-2.6 2.1-5.1 2.7-7.7 1.1-5.1 1.2-10.2 1.1-15.3-.1-5.3-.1-10.5 0-15.8.1-7.5-.1-15-3-22.2-.3-.7-.6-1.5-1-2.4.7 0 1.4-.1 2.1-.1 6.4-.2 12.9-.1 19.3 0 .5 0 1.4-.2.9.8-3.9 9.8-3.7 20-3.5 30.2.1 4.8.1 9.5 0 14.3-.2 6.1 1 11.8 3.9 17.2.1.3.2.5.4 1zM681.6 47.8c7.8-.2 15.4-.2 23 0 .1.1.1.3.1.3-3.6 6.2-4.5 13.1-4.3 20 .2 9 0 18 .1 27 .1 5.3 1 10.3 3.3 15.1.1.2.2.4.2.6 0 .1 0 .2-.1.4h-22.8c-.2-.3-.1-.5 0-.7 3.7-5 5.1-10.7 5.2-16.7.1-5.6-.5-11.1-.2-16.7.3-5 .3-9.9-.3-14.9-.5-4.6-1.8-8.9-3.7-13 0-.5-.2-.9-.5-1.4zm440.1 83.2c-3.7 7.4-4.4 15-4.3 22.8.1 7.9 0 15.8 0 23.7 0 5.8 1.3 11.4 4.1 16.5.2.3.2.6.4.9-8.2-.2-16.2-.3-24.5-.5 2.6-3 4.4-6.1 5.2-9.7.5-2 .8-3.9.8-5.9 0-9.6.1-19.2 0-28.8-.1-6.1-1.2-12-3.6-17.7-.5-1.1 0-1.2.8-1.2 3.2-.1 6.5-.2 9.7-.2 3.7 0 7.4.1 11.4.1zm-688.9-19.9c-1.9 0-3.8-.1-5.7 0-.9 0-1.1-.2-1.1-1.1.1-3.7.4-7.3.7-11 .1-1 .5-1.2 1.5-1.2 3.3 0 6.6 0 9.9.2.7.1 1 .2 1.1 1 .1 3.6.3 7.2.5 10.8.1.9-.4.9-1.1.9h-5.8v.4zM294.2 28.9h962.2v8.2H294.2zm1.7 260h962.2v8.2H295.9z"/><path class="st1" d="M1.4 29.1c1.5 0 3-.1 4.5-.1h152.9c2.8 0 4.9-.7 6.9-2.8 8.8-9 17.9-17.8 26.6-26.9 2.1-2.1 3-1.8 4.9.1 8.8 9 17.8 17.8 26.7 26.9 1.9 2 3.9 2.7 6.6 2.7 12.6-.1 25.2 0 37.8-.1 2.7 0 3.3.8 3.3 3.4-.1 12.9 0 25.7-.1 38.6 0 2.2.6 3.7 2.2 5.3 9.3 9.1 18.3 18.4 27.6 27.5 2 1.9 1.8 2.8-.1 4.6-9.1 8.9-18 18-27.1 26.9-1.8 1.8-2.7 3.6-2.7 6.2.1 52.6.1 105.2.1 157.8H1.2v-35.6c.2-78.2.2-156.3.2-234.5zm135.5 267.7h92.3c11.8.1 23.7 0 35.5.2 3.2.1 3.9-.9 3.9-4-.1-42.5-.1-85-.1-127.5 0-1.1-.1-2.3-.2-3.4v-18.9c0-.9.6-2.7-1.2-.9-5.3 5.3-10.5 10.7-15.7 16-5.4-.7-10.9-1.3-16.3-2.3-6.8-1.2-13.8-.2-20.6-1.2 9.6-9.7 19.2-19.3 28.8-29 .6-.7 2.2-1.4 1.6-2.2-1.5-2-3.2-3.9-5.3-5.4-1.2-.9-2.4.9-3.5 1.5-7.9 5-12.1 4.9-19.6-.7-1-.8-2-1.5-2.9-2.4-8.8-8.7-17.6-17.4-26.4-26-1.2-1.2-1.4-2-.1-3.3C198 76.6 208.8 65.8 219.6 55c2.5-2.5 5.1-3 7.9-.3 10.2 10.1 21 19.7 29.9 31 8.4 10.5 8.8 17.9 1.4 29.3-2.2 3.4-2.4 5.6 1 7.9.2.1.4.3.5.5 1.4 2.1 2.5 1.6 4 0 6-6.2 12-12.3 18.2-18.2 2.1-2 1.8-3.1-.1-5-12.1-11.9-24.1-24-36.2-36.1l-50.8-50.8c-1.3-1.3-2.2-2.5-4.1-.5-1.7 1.8-2.3 2.8-.3 4.8 2.5 2.5 4.8 5.2 6.9 8 4.7 6 4.5 8.1-.9 13.5-14.4 14.7-29 29.3-43.7 43.9-8 8-16 16.1-24.1 24.1-5.3 5.3-7.3 5.4-13.2.8-3-2.3-5.8-4.8-8.6-7.4-1.4-1.3-2.2-1.4-3.7 0-2 1.8-2.3 2.9-.1 5 11.3 11.1 22.4 22.5 33.6 33.7-1.8 4.1-2.8 8.5-6.1 11.9-14.4-14.4-28.9-28.8-43.4-43.2-1.2-1.2-1.9-1.9-.3-3.6 15.2-15 30.4-30.2 45.6-45.3 2.4 3.3 3.5 7.1 4.6 11 1.1 4.1 4.4 1.6 6.6 2 2.3.5 1.7-1.6 1.7-2.8.1-7.9.2-15.8.2-23.7L158 33.6c1.4-1 1.3-1.4-.4-1.4-16 .1-32 .1-47.9.2H108c-.5-.1-1-.2-1.5-.2H6.7c-.8 0-1.8-.5-2.3.7-.1 1.2-.3 2.5-.3 3.7v255.9c0 1.3.1 2.5.2 3.8 1 1.6 2.5.7 3.7.8 28.3.1 56.7.1 85 0 14.7-.2 29.3-.3 43.9-.3zm94.3-264.7c12.4 12.5 24.9 25 37.3 37.6V34.5c0-1.8-.6-2.4-2.4-2.4h-34.9z"/><path d="M1.4 29.1v270.2c-1.6-.8-.7-2.3-.7-3.4-.1-54.4 0-108.8 0-163.1V29.1c.2-.1.4-.1.7 0z" fill="#ffdc55"/><path class="st0" d="M146.2 45.4c-.1 7.9-.1 15.8-.2 23.7 0 1.2.6 3.3-1.7 2.8-2.2-.5-5.5 2.1-6.6-2-1-3.9-2.1-7.7-4.6-11-2.2-4.6-5.7-8-9.8-10.7-7.1-4.7-15.1-6.5-23.5-7.1-4.5-.4-9.1-.4-13.6 0-22.8 1.7-39.4 12.3-47.4 34.2-6.7 18.5-6.7 37.3-.2 55.9 5.6 16.3 16.8 27.4 33.4 32.2 13.1 3.8 26.4 3.9 39.6.6 8-2 15-5.9 19.6-13.1 3.3-3.3 4.3-7.8 6.1-11.9 2.9 3 5.9 5.9 8.8 8.9 0 6-.1 12-.1 18-9.6 4.1-19.8 5.5-30 6.7-12.4 1.4-24.9 1.5-37.3.3-1.1-.1-2.7-.5-2.3 1.4.9 4.6-1.9 4.4-5 4.4-2.5 0-5.1.1-7.5.4-3.4.5-7.1.1-9.5 3.3-1.8 2-1.3 4.5-1.3 6.8v84.2c0 1.7-.3 3.5.5 5.2.6 5.6 4.7 7.5 9.4 8.3 13.6 2.3 27.3 2.2 41 .1 12-1.8 19.7-8.8 22.9-20.2 1.3-4.5 2.9-7.2 8-6.2.1 0 .3-.3.6-.6-1-2.1-2.1-4.2-3.1-6.3-10-22.4-9.9-58.6 19.7-81.8l11.4-6.9c2.2-1 4.4-1.9 6.6-2.9 8.4-2.5 16.9-4.6 25.6-5.9 6-.9 12-.4 18-1.5h1c6.8 1 13.7 0 20.6 1.2 5.4.9 10.9 1.5 16.3 2.3 4.5 1.2 9 2.3 13.5 3.5 1.4.4 2.4 1 2.4 2.8-.2 9.8-.2 19.6-.3 29.4-1 0-2-.1-3 0-3.5.6-5-.7-6-4.4-2.5-9.4-7.8-16.9-16.8-21.4-2.4-1.8-5.1-2.6-7.9-3.4-11.7-3.1-23.6-3.3-35.4-.7-5.9 1.3-11.7 2.8-16.4 6.7-2.9.9-5 2.9-7.2 4.9-3.6 2.7-6.5 6.1-8.7 10-.8 1.3-1.7 2.5-2.3 3.9-10.5 21.7-10.9 43.9-2.4 66.2 5.8 15.2 16.9 25.1 32.6 29.6 12.8 3.6 25.9 3.7 38.9.6 10.1-2.4 18-8.1 23-17.5 1.9-3.7 2.8-7.8 4.2-11.7 1.3 0 2.6.2 3.8 0 3.5-.6 4.1 1 4 4.1-.2 7.9-.2 15.9 0 23.8.1 2.7-.9 3.8-3.3 4.5-8.9 2.7-18.1 4.2-27.3 5.3-10.3 1.2-20.6 1.1-31 .8-5.9-.3-11.7-1.1-17.5-2.2-16.1-3.1-31-8.5-42.8-20.5-2.9-2.9-5.4-6.1-8.5-9.5 0 9.8-.2 19.1.1 28.4.1 3.3-.7 4.1-4.1 4.1-41.3-.1-82.6-.1-124-.1-1.3 0-2.5-.1-3.8-.2 0-1.9.1-3.8.1-5.7 5.1-.4 10.3-.4 15.4-1.4 4.9-1 6.3-2.6 6.3-7.4 0-31.2.1-62.4 0-93.7 0-4.9-1.7-6.8-6.6-7.4-5-.6-10-.8-15-1.2v-6.2h62.1c-4.6-1.8-9.2-2.9-13.7-4.3-19.2-6-33.8-17.4-42.5-35.9-3.2-6.9-4.5-14.3-5.9-21.7V96.4c.2-.7.5-1.4.6-2.2 3-23.4 15.3-40.3 36.2-50.7 14.5-7.2 30.3-9.6 46.4-10.3h13.7c13.4.5 26.5 2.3 39.5 5.9 3 1.1 4.8 2.6 4.2 6.3z"/><path d="M4.3 296.1h.8c41.6 0 83.3 0 124.9.1 2.3 0 4.5 0 6.8.1v.5c-14.6 0-29.2.1-43.8.1H8c-1.2 0-2.7.8-3.7-.8z" fill="#5a264d"/><path d="M136.9 296.8v-.5c19.7 0 39.5-.1 59.2-.1.8 0 1.5 0 2.1.6-20.4-.1-40.9 0-61.3 0zm68.9-.7c6.1 0 12.2 0 18.4.1 1.2 0 2.5-.4 3.6.5h-22c-.1-.2-.1-.4 0-.6zm62.6-135.4c-1-5.8-1-11.6 0-17.4v17.4zm-68.7 136c1.5-.9 3-.9 4.5 0h-4.5z" fill="#602e54"/><path d="M170 162.3c-7.2-7.1-14.3-14.2-21.4-21.3-1.7-1.7-3.1-3.6-4.6-5.4-1.3-1.5-1.2-3 0-4.4 1.2-1.5 2.5-2.9 3.8-4.2l29.7-29.7c.9-.9 1.6-2.4 3.2-.6 9.4 10 19.9 18.9 28.7 29.6 5.5 6.7 5.9 11.7 1.1 18.9-2.1 3.1-2.2 5.1.9 7.3.9.6 1.5 1.6 2.3 2.5-5.9 1.1-12 .6-18 1.5-8.8 1.2-17.3 3.3-25.7 5.8zm71.3 5.9c-14.8 14.9-29.7 29.7-44.5 44.7-1.8 1.8-2.6 1.3-4.1-.2-9-9-18-17.9-27-26.9 2.2-3.9 5-7.3 8.7-10 5.7 5.7 11.4 11.4 16.9 17.2 1.4 1.4 2.2 1.4 3.6 0 6.3-6.5 12.8-12.8 19.2-19.2.5-.5 1.6-1.1 1.1-1.7-1.6-1.9-3.2-3.9-5.2-5.4-1.4-1.1-2.4.7-3.4 1.4-7.9 5-16 8.2-25 2.9 4.8-4 10.6-5.4 16.4-6.7 11.9-2.6 23.7-2.4 35.4.7 2.7.5 5.5 1.4 7.9 3.2z" fill="#fdc70e"/><path class="st1" d="M152 172l-6-6c0-6 .1-12 .1-18 5.8 5.7 11.5 11.4 17.3 17.1L152 172z"/><path d="M54.3 182.5c0 30.6 0 61.3-.1 91.9 0 1.5.5 3.1-.7 4.3-.8-1.7-.5-3.5-.5-5.2v-84.2c0-2.3-.5-4.8 1.3-6.8z" fill="#684676"/></svg>