<svg xmlns="http://www.w3.org/2000/svg" viewBox="0 0 367 487"><style>.st0{fill:#f8c334}</style><path class="st0" d="M352.4 107.4c2.7-5.8 6.2-11.1 6.9-17.4-2.7 1.2-4.3.4-6 2.8 1.1-2.8 2.7-6.3 2.3-9.3-.1-.5-.3-1.6-1.1-2.6-3.2 3-6.1 7.5-8.2 11.1 1.5-6.2 3.9-11.4.9-17.6-3.5 3.7-5.5 8.2-7.4 12.8.2-3 .7-6.1.3-9.1-.6-1.1-1.6-1.9-2.5-2.8-4.9 8.4-5.7 18-10.2 26.5-1.2-3.2-1.7-6.5-2.6-9.7-.7-2.7-2.6-4.5-4.8-6.2-.7 1.3-1.2 2.6-1.2 4.1-.2 5.5.1 11 .1 16.6-2.5-.1-5-.3-7.4-.5-2.7-2.2-5.6-4.2-8.6-6-16-9.5-33.7-16.5-51.6-21.4-7.2-1.7-13.8-4.2-21.2-4.3-6.4-4.9-12.2-9.8-20.5-11.1 2.4-12.8 1.6-25.5.2-38.4-.1-6.3-2.4-11.4-7.2-15.5-10.3-8.3-25.1-11.2-37.2-5.2-8 3.9-12.4 12.2-12.7 20.8-.9 11.6 5.2 23.2 11.5 32.6 2.1 3.3 2.4 6.9 2.9 10.7-24.5 1.2-48.7 4.5-72.2 11.4-2-3.1-4.5-7.2-8.4-8.2-3.8-.9-6.9 1-10.1 2.8C62.7 82.3 48.9 90.2 35 98c-3.6 2.1-7.7 4.5-9.5 8.5-2 3.9-1.6 7.8-1.5 12.1-4.9 5.3-9.7 10.7-13.5 16.9-8.5 13.6-12.7 30.8-8.7 46.6 3.4 15.3 12.6 28.6 23.9 39.3 8.3 8 17.9 14.2 27.7 20.1-4.1 4.4-9.5 6-14.3 9.7-16.2 11.6-30.8 27.1-36.4 46.7C.2 305.5.3 313.2.8 321.1c1.7 15.3 9.9 29.8 20.5 40.8 4.9 5.3 10.4 10 16.1 14.3-.2 5.7-.6 10.7 3.2 15.4 5.8 7.2 17.4 5.9 24.1.7 18.7 8.4 38.3 14.1 58.4 17.9.1 4.2 0 8.4.6 12.5.4 2.5 2.3 4.5 3.8 6.5-1 8.3-2.4 16.5-5.1 24.4-1.1 3.5-2.6 8-.1 11.2 2.8 3.2 6.7 5.3 9.4 8.8 5 5.4 9.3 12.3 17.2 13.6h14c2.5-1.2 5.2-2.4 6.4-5 1.3-2.5-.5-5.1-2-7.1-4.1-4.9-8.7-9.4-13-14-2.5-2.7-5.6-5.6-6.7-9.2-1.4-4.6-1.5-9.8-1.5-14.6 0-3.5-.2-6.6 1.3-9.8 2.1-4.4 3.5-9 4.8-13.7 9.9.8 19.8.8 29.7.9.9 1.1 1.8 2.2 2.7 3.4.2 6.1.4 12.1-.5 18.2-.4 3.9-1.1 9 2.3 11.9 3.5 2.8 8.8 3.3 12.8 5.2 3 1.2 4.5 5.1 6.4 7.6 3.1 5 9 6.9 14.7 6.8 3.7-.1 8.1-1 10.5-4 2.3-3.1 1.6-7.4-.8-10.2-6.3-8-16-13.8-22-22.1-3.8-5.7-3.5-12-1.4-18.3 19.3-2.4 38.4-6.1 57-12.2 2.1 2.6 3.5 5.2 6.9 6.3 4.7 1.9 9-.5 13-2.8 12.9-7.8 26-15.4 39-23 3.9-2.1 7.1-4.9 9.4-8.7 2.7-4.7 2.5-9.5 1.8-14.7 9.9-11.5 16.3-25.6 17.2-40.8.7-14.5-4.2-28.4-12.4-40.2-10.6-15.1-25.2-26.3-41.2-35.2 11.2-6.1 21.6-13.5 30.7-22.5 3.1.3 6 .6 9-.4 6-1.5 10.3-7.8 10.9-13.8.4-3.7-1.3-6.7-2.7-9.9 5.5-12.3 7.3-25.9 4.2-39.1-2.3-10.4-7.4-19.7-13.9-28.1 3-1.4 6-2.8 8.3-5.3 3.9-4.3 5.9-10.3 8.6-15.4zm-52.2-6.6c2.9 1.6 5.6 3.5 8.2 5.5-3.6-.4-6.6-1.2-9.7-3.1-16-9.5-33.9-16.1-51.8-20.9-5.6-1.2-10.7-1.9-15-6.1 23.8 4.6 47.1 12.7 68.3 24.6zm-1.5 4.6c-7.2-.2-14.4-1-21.7-1-3.6 0-6.8-.6-9.8-2.5-9.5-5.5-18.2-12.5-26.9-19.3l3.3.9c19.3 5 37.9 11.6 55.1 21.9zm-77.4-34.7c14.5 10.2 27.6 22.5 43.1 32 3.4 2 6.7 3.6 10.6 3.8 14.6.8 29.2 1.1 43.8 2.2.9 3.4 1.6 7.1 3.4 10.2 1.6 2.9 4 5 6.4 7.2-12.8 1.6-25.6 3.4-38.5 4.2-4.6.3-9.5 1-14 .6-3.5-.3-6.6-1.7-9.7-3.1-10.3-4.7-20.7-9.3-30.9-14.1-4.6-2.2-9.2-4.3-14-6.1-.6 7.2-.9 14.2-.7 21.4-.5 18.3-1.5 36.7-1.9 55-.2 1.8 0 3.9-1.1 5.5-5.4 8-13.1 12.5-21.8 16.2-.5-19.3-1.1-38.5-1.5-57.8 8-6.8 16.6-13.9 18.6-24.8 1.9-12.4.6-25.7-.2-38.2 1.5-1.4 2.9-2.8 4.4-4.1.3-5.2-1.4-9.6-3.3-14.3 2.5 1.2 5 2.5 7.3 4.2zM219 221.4c.6-.7 1.2-1.4 1.9-2 2.7-.1 5.5.8 8.1 1.2 20.1 3.7 39.8 9.9 58.4 18.4-1.2.5-2.3 1-3.5 1.5-20.7-10-42.4-14.9-64.9-19.1zm63.1 20.4c-19.9 8.8-41.1 14.8-62.7 17.9.2-12 .3-23.9.6-35.9 21.2 3.3 42.7 8.9 62.1 18zM220 217.2c.5-35.6 2-71.1 3.3-106.6 13.3 6.2 26.6 12.1 39.9 18.2 4.5 1.9 8.8 4.3 13.8 4.4 8.5.2 17.1-.9 25.6-1.6.6 7.7.9 15.2-1.3 22.6-1.5-2-2.9-4-4.6-5.8l-.9 1.5c1.2 2.3 2.9 4.5 4.4 6.6-2.7 6-6.4 11.3-10.5 16.4-4.1-2.9-7.9-7-12.9-7.8 3.4 3.8 7.5 6.4 11.5 9.4-5.4 5.6-11.2 10.8-17.8 15-3-.5-6-.9-9.1-.8 2.1 1.1 4.2 2 6.3 3-6.6 3.6-13.3 7.1-20.4 9.7-4.5 1.8-9.2 2.7-13.8 4.2-1.8.8-4 1-3.8 3.5-.1 2.5 2.2 3.2 4.3 2.9 5-.6 10.1-2.5 14.9-4.1 10-3.5 19.3-8.6 28.1-14.6 13.1 3.3 26.3 5.9 39.4 9.1.6 5.6 1.8 9.2 5.4 13.6-9.9 8.9-20.1 15.9-31.9 22-22-10.5-45.9-17.4-69.9-20.8zm84.5-84.5c-.2-1.1 1.4-1.9 2-2.6 2.5 9.8 1.6 20.1-2.6 29.3-2.2-5.4.7-9.1 1.1-14.4.5-4.2-.3-8.1-.5-12.3zm-1.3 28.4c-2.4 4.8-5.4 10-9.4 13.6-.9.1-2 .1-3 .1 4.1-5.4 7.8-10.7 10.9-16.7l1.5 3zm-30.4 29.3c6.2-4.4 11.8-9.6 17-15 .8.6 1.5 1.2 2.3 1.8-4.8 4.9-9.9 9.6-15.5 13.7-1.2-.2-2.5-.4-3.8-.5zm1.6 2c-11.6 8.3-24.9 13.8-38.7 17.3-1.9.2-3.6 1.3-4.8-.9 2.9-1.7 6.4-2.4 9.7-3.3 9.6-2.6 18.6-6.7 27-11.9 2.2-1.5 4.3-1.3 6.8-1.2zm19.3-13.9c7.6 5.5 15.1 11.1 22.7 16.6l.2.6c-.3 1.5-.6 2.9-.9 4.4-12.2-2.9-24.4-5.8-36.6-8.4 5.1-4.2 9.8-8.7 14.6-13.2zm1.2-1.7c3.8-4.2 6.7-9 9.7-13.8 6.9 8.8 13 18.3 19.8 27.1-2.4.9-4.8 1.9-7.1 3-7.6-5.3-14.8-11-22.4-16.3zm10.8-16.5c1.8-4.7 3.4-9.3 3.9-14.3.6-5.1 0-10.1-.7-15.1 6.2-.8 12.4-1.4 18.5-2.3 5.8 7.1 10.8 14.7 13.7 23.4 4.5 12.4 3.8 26-1.2 38.1-4.9-1.4-8.7-1.5-13.7-.7-6.8-9.8-13.9-19.3-20.5-29.1zm-177.6 62c-10.9 1.8-21.8 4.3-32.4 7.4-4.6 1.3-8.9 3-13.7 3.7 1.4-1.8 2.1-3.2 4.4-3.8 16.4-5.1 33.4-9.5 50.5-11.2-1.9 4.1-5.1 3.1-8.8 3.9zm7.7.8c-.4 12.3-.4 24.7-1.1 37-20.1-2.8-39.8-7.7-58.7-15.4 1.6-2.5 2.8-5.8 5-7.7 4.2-2.5 9.5-3.5 14.1-5 13.3-4.2 26.9-6.7 40.7-8.9zm.4-37.1c.1 10.2-.8 20.3-.3 30.5-17.2 2.3-34.4 6-50.8 11.8 6.6-12.5 13.2-25 19.6-37.5 2.1-4.1 4.4-8.2 7-12.1 7.4-11.2 15.2-22.1 22.8-33.1.6-.8 1.2-1.7 1.8-2.5-.3 14.2-.1 28.6-.1 42.9zm-7.4-36.2c-6.2 8.8-12.3 17.7-18.3 26.7-4.5 6.6-7.8 13.5-11.5 20.5-8.1 15.8-16.4 31.5-25.1 47-5.8-2.7-11.4-5.4-17-8.4 7.4-18.1 15-36.1 22.8-54 2.7-6.2 6.4-11.2 10-17 11.1-17.2 22.2-34.5 33.4-51.6 2.6-3.9 4.9-7.5 8.6-10.4 3.9-3.1 8.1-5.9 12.4-8.5 5.6 4.9 9.4 10.9 12.9 17.4l6.3-2.1c1.3 9.4 3.4 18.5 6.9 27.4 1.6 3.9 3.8 7.4 7.5 9.6 4.1 2.7 8.9 2.2 13.6 2.3.6 19.4 1.1 38.7 1.6 58-10.8 2.7-21.8 3.7-32.8 2.5-7.9-1-14.9-4.1-21.8-7.9 0-2.6 0-5.2-.1-7.7 6.7 2.2 13.9 2.5 20.7.4 5.5-1.6 8.2-9.7 4-13.8-2.6-2.8-6.7-1.4-10-1.3-5.1.8-9.8.2-14.7-1.4.2-8.8-.1-17.5.1-26.3.1-4.3-.2-8.5-.7-12.8-3.3 3.5-6 7.4-8.8 11.4zm41.8-50.3c-1.6-5.9-5.7-11.3-9-16.4l2.7-1.5c5 2.7 10.4 5.7 15.9 7 4.2.7 8.3 1.1 11.8-1.8 4.4-3.3 6-7.9 6.7-13.2 2.4 4.7 4.5 9.6 6.9 14.3l4.2-1.2c.7 8.1 1.3 16.2 1.1 24.3-.1 6.1-.4 13-3.4 18.4-3 5.4-7.6 9.9-12.4 13.7-3.3 2.8-8 2.7-12 2-4.7-.8-7.6-4.4-9.5-8.5-3.9-9.2-5.8-18.7-7.4-28.6 2-2.5 5.6-4.8 4.4-8.5zm-12.7 9.8c-3.1-6.3-7.1-11.6-12.1-16.5 4.7-2.9 9.3-5.7 14-8.5 3 4.3 6.4 8.8 8.4 13.7.5 1.6 1.3 3.6 0 5.1-2.5 3-6.8 4.7-10.3 6.2zm3.9-28.5c-10.2 6-20.3 12.2-30 19-4 2.8-6.9 6.5-9.5 10.6-13.2 20.1-26.3 40.4-39.2 60.7-4.9 7.5-7.8 15.5-11.4 23.6-5.6 13.3-11.3 26.5-16.6 39.9-9.4-5.7-18.3-11.8-26.2-19.5-8.8-8.5-16-18.5-19.6-30.3-2.5-7.4-2.5-15.9-1.7-23.6 2.2-14.2 9.8-25.6 19.3-36 2.7 1.7 5.6 4 9.1 3.6 3.3-.4 6.7-2.6 9.5-4.3 13-7.7 26.2-15.2 39.3-22.7 2.8-1.6 5.9-3.5 7.9-6.1 2.2-3.1 2.6-6.5 3.2-10.1 8.5-2.6 17-4.4 25.7-6.1 15-2.6 29.9-4.8 45.2-4.8-1.4 2.3-2.4 4.7-5 6.1zm-23.6 98.6c4.6 1.5 9 2.3 13.8 1.6 2.7-.1 6.3-1.1 8.9 0 4.1 2.4 1.7 9.2-2 10.6-6.8 2.1-14 2-20.7-.3.1-3.9.1-7.9 0-11.9zm-.1 36.2c15.4 7.9 32.9 10.8 49.9 7.4 11.4-2 22-7.7 30-16-.5 17.7-.3 35.3-.8 53-5.4.7-10.8 1.4-16.3 1.9-7.6.6-15.3.4-23 .6-13.7.3-27.3-.1-40.9-2 .3-15 .9-29.9 1.1-44.9zm79.3-11.3c-3 4.2-7.5 7.5-11.9 10.1-13.1 7.7-29.3 9-44.1 7-8-1.5-16.3-4.3-23.2-8.5-.6-3.2-.4-6.6-.4-9.8 3.5 2 7.1 3.9 11 5.2 10.8 4 23.1 3.8 34.4 2.4 12.7-1.7 24.6-6.7 33.2-16.3.7-.9 1.5-1.7 2.2-2.6-.6 4 .2 8.8-1.2 12.5zm-6.2-139c1.7 3.7 3.5 7.6 4.1 11.7.3 4.7-5.5 7.1-8.8 9.2-1.8-4.3-3.8-8.4-5.9-12.5 4.1-2.3 6.9-5.7 10.6-8.4zM154.7 27c0-7.4 2.8-14.9 9-19.3 4.4-3.3 9.9-4 15.3-4.2 8.7-.1 18 3 24 9.4 2.9 3.1 3.8 6.9 5.1 10.8-2.6 3.1-5.1 7-9.3 8-6.7 1.5-14.1-.7-20.7.4-2.8.4-3.7 3.4-4.1 5.8-.5 4.4-.3 8.9-.8 13.3-1.7-3.2-3-6.6-4.8-9.8-1.5-2.6-3.6-4.2-5.8-6.1-.7 1.2-1.5 2.3-2.2 3.5-.3 2.8.1 5.7.3 8.5-3.4-6.3-6-12.8-6-20.3zm9.4 25c-1.5-4.5-2.1-9.3-2-14.1 1.2 1.1 2.5 2.2 3.5 3.6 2.2 2.9 3 7 5.2 9.8.9 1.3 3 1 4.4 1.6.4-4 .6-7.9.8-11.9.2-2.3.1-4.6 1.5-6.5 7.2-1.2 15.1 1 22.4-.6 3.2-.8 5.9-4.1 8.2-6.3 1.3 9.7 1.6 19.7.7 29.5-.4 3.5-.9 7.8-3.1 10.6s-6 3.7-9.2 4.9c-.3 2.4-.5 5.2-1.5 7.4-2 4.2-6.2 7.2-10.9 7-6.3-.1-12.3-3.8-17.7-6.7 2.4-5.8 3.1-12.1 1.7-18.3-1-3.5-2.9-6.6-4-10zm-62.2 27.8c9.3-2.1 18.6-4.4 28.1-5.7 12.2-1.8 25-3.9 37.3-2.9-6.4 2.5-12.5 1.6-19.1 2.5-12.1 1-24.1 3.1-36 5.6-6 1.3-11.9 3.3-18 4 2.5-1.8 4.8-2.9 7.7-3.5zm-23.3-4.3c2.9-1.5 5.8-2.6 9-1.1C92.1 77 93.8 82 93.4 87c-.2 4.9-3 8.8-7.1 11.3-14.1 8.5-28.8 16.3-42.8 24.9 1.6-5.1 2.9-9.8 1.2-15-1.4-4.2-4.5-6.5-7.9-8.9 14.1-7.7 27.9-15.8 41.8-23.8zm-51.8 33.3c1.1-3.4 4.4-5.8 7.2-7.8 3.2 1.5 6.3 2.8 7.8 6.2 2.5 5 1.5 10.2-.5 15.1-.8 1.7-1.5 3.2-3.4 3.8-3.5 1.4-6.5-.8-9.6-2.2 1.5-1.6 3.1-3.2 4.6-4.8l3.3 1.2c1.6-2 3.5-3.6 3.4-6.3.2-2.7-2.8-6.1-5.6-5.2-3 2.5-5.3 5.7-8.3 8.2.3-2.7.3-5.7 1.1-8.2zm26.4 135.8c3 1.5 5.7 3.4 9 4.4 2.8.9 5.5.9 8.4 1 .2 4.5 1.4 8.2 3.3 12.2 2.6 5.7.2 11.4-2.1 16.6-1.3-5.7-1.3-10.9-5.8-15.2-6.9 8.5-10.3 18.7-16.2 27.6.1-6.3 3.9-11.9 3.7-18.1-5.5 4.8-6.9 11.6-11.8 17.2 1.2-8.1 6.2-14.1 8.3-21.8-6 3.3-8.4 8.8-12.1 14.1.6-7.2 5.4-12.1 7.2-18.8-4.6 1.5-7.1 7.7-10.3 11.1 3.6-11.8 10.6-21 18.4-30.3zm.7-2.7c1 .4 2.1.8 3.1 1.2 3.2 1.4 6.2 3 9 5-4.6-1.1-8.5-3.3-12.1-6.2zM180 407.8c-8.8 0-17.5-.4-26.3-.7.9-3.3 1.8-6.6 2.6-9.9 6.2-25.4 12.8-50.2 16.2-76.2 2.5-14.4 4.7-28.8 7-43.2.7 11.4.9 22.8 1 34.2.3 7.7.8 15.3.5 23-.8 24.4-2.3 48.3-1 72.8zm-11.2-76.9c-1 8.8-3.1 17.3-5 26-3.9 16.6-7.8 33.3-12.3 49.8-8.7-.6-17.4-1.5-26-3 1.2-20.4 3.7-40.5 6.9-60.7.8-5 1.7-9.9 2-15 1-20.3 1.8-40.6 2.4-61 14 2 28 2.5 42.2 2.5-3.7 20.5-6.7 41-10.2 61.4zm-67.3 26.6c-6.2-2.2-12.2-5.2-17.8-8.6 1-.3 2.1-.7 3.1-.9 2.7.8 5.2 2.5 7.7 3.6 4.4 2.3 9.1 3.6 13.7 5.4-2.4.5-4.4 1.4-6.7.5zm26.6 3.1c-.3.9-.7 1.7-1 2.6-6.9-1.1-13.5-1.7-20.1-4.2 6.5-2.3 14.2 1.1 21.1 1.6zM82 348.2c-4-3-7.8-6.2-11-10.1.4-1 .8-1.9 1.2-2.8 3.8 4.3 7.6 7.8 12.4 11.1-.9.6-1.7 1.2-2.6 1.8zm-12.4-11.9c-4.2-6.9-7.4-14-7.5-22.2l2-.2c2 6.8 3 13.5 7.1 19.6-.6.9-1.1 1.8-1.6 2.8zm.2 3.3c3.4 3.8 6.9 6.9 11 9.8-5.9 4.8-11.5 9.9-17.5 14.6-2.8-.2-5.6-.3-8.4-.3 5.2-7.8 10-16 14.9-24.1zm-7.1 26.9c1.3 1.4 2.5 2.9 3.6 4.5-1.6-1.1-3.2-2.2-4.8-3.4-1.1-.8-2.1-1.6-3.2-2.4 1.5.4 3 .8 4.4 1.3zm2.6-1c5.8-5 11.4-10.2 17.4-14.8 6.1 3.3 12.2 6.4 18.8 8.7-11.2 5-22.5 9.9-33.7 15.1-.3-3.3-1-5.9-2.5-9zm3.2 11.1c9.5-4.2 19-8.5 28.4-12.7 2.6-1.2 5.1-2.3 7.8-3.1 7.5 1.7 14.9 3.4 22.6 4.5-1.5 12.6-2.9 25.3-3.9 38-18.7-3.4-37.5-8.7-54.8-16.9-.4-3.3-.1-6.6-.1-9.8zm64.2-55.6c-.6 12.5-2.8 25.2-4.8 37.5-4.5-.5-9-1.2-13.4-2.2 1.9-1 3.6-2.3 5.4-3.6-.9.4-1.9.4-2.9 0-2.2.6-4.3 1.4-6.4 2.4-8-1.9-15.5-5.2-22.6-9.2 4-3.4 8.3-6.6 11.8-10.5-1.6-.4-2.1-.3-3.4.7-3.5 2.7-6.8 5.8-10.2 8.6-4.7-3.2-8.8-6.7-12.5-11 2-3.5 4.2-6.8 5.7-10.5-3.9 1.6-5 5.1-7.2 8.5-2.2-4.5-4.2-8.9-4.9-13.8-.4-1.6-.5-4.2-1.8-5.3-1.6-1.9-3.9.4-5.8.9 1.2 8.9 3.8 17 8.9 24.4-5.6 8.9-10.8 18-16.5 26.9-4.4 1.1-7.8 2.7-11.5 5.2-11.7-9.3-22.1-19.2-28.4-33-5.3-11.2-6.4-24.2-3.4-36.3 4.7-17.6 17.8-31.6 31.8-42.5-2.4 4.6-5.8 9.5-6.9 14.6-.5 1.9.4 3.6.8 5.5 1.5-1.7 2.9-3.4 4.3-5.2-.9 2.5-2 5.3-2.2 8 .6 1.5 1.4 2.9 2.2 4.4 2.1-3.5 4-7 6.5-10.3-2 6.2-6.4 10.8-4 17.6 4.2-3 6.3-7.3 8.6-11.8-1.2 4.4-2 8.3-.8 12.9 2.3-1.8 4.2-3.8 5.5-6.4 3.9-7.3 7.4-14.7 11.8-21.8 2.1 5.5 2.2 11 5.6 15.9 3-4.5 5.3-10.2 5.1-15.7-.7-4.3-3.2-8.2-4.3-12.4-.3-1-.6-2-.9-3.1 20.4 7.7 41.3 13.6 62.9 16.3-.4 18.1-1.1 36.2-2.1 54.3zM3.3 324.8c-1.2-11-1-23.5 3.8-33.8 7.2-16.9 21.7-31 36.9-40.9 1.3-.8 2.6-1.5 4-2.3-2.4 3.3-5.1 6.3-8.5 8.7-12.9 9.6-24.7 22.3-30.6 37.4-5.5 13.8-5 29.6 1.1 43 6.5 14.5 17.2 25.4 29.6 35-.5.8-1.1 1.5-1.6 2.3-16.3-12.4-30.8-28.6-34.7-49.4zm44.8 69.1c-8.3-2.1-11.1-13.1-7.1-20 1.8-3.4 5-5.2 8.6-6.2 4-1.1 7.8-1 11.2 1.5 5.9 3.7 7.2 11.2 4.8 17.3-2.5 6.4-11.4 9-17.5 7.4zm104.6 68.4c4.5 4.8 9.4 9.4 13.5 14.6.8 1.3 2.4 2.9 1.2 4.4-1.9 3.2-6.9 4.1-10.3 4.1-4.2-.1-9.3-.2-13.1-2.3-6.1-4.1-10-11.6-16-16-1.9-1.7-4.9-3.2-4.9-6-.3-4.8 2.4-9.5 3.5-14.2 1.2-5.6 2-11.3 3-17 2.1.7 4.2 1.4 6.4 1.8 2.6.3 5.5-.6 8.1-1.3-.2 7.4-.3 15.6 1.8 22.8.9 3.5 4.3 6.4 6.8 9.1zm-8.3-34.9c-4.4 3.7-13.9 2.1-17.4-2.4-2.3-4.1-1.7-10-1.7-14.6 8.2 1 16.4 2.3 24.6 3.1-1.6 4.5-2.5 10.1-5.5 13.9zm39.5-13c6.9-.4 13.9-.9 20.8-1.2-1.3 2.3-2.1 5.9-5 6.6-6.3 1.7-11.2-1.4-15.8-5.4zm23.2 19.5c5.6 6.8 13.3 12.2 19.3 18.7 1.8 2 3.7 4.5 3.3 7.3-.2 2.3-2.1 3.8-4.2 4.5-4.7 1.6-10.5 1.4-14.8-1.1-4.3-2.7-5.5-8.1-9.1-11-4.1-2.8-10.8-2.9-14.6-6.3-2-2.3-1.4-6.2-1.2-9 .9-5.9.8-11.8.5-17.7 1 .5 2.1.9 3.2 1.4 4.3 2 8.3 1.5 12.7.3.9 4.7 1.8 9.1 4.9 12.9zm11.9-24.8c-13.7 1.8-27.2 3.5-41 3.2-11.7.1-23.4-.2-35-1.6-26.5-2.8-53.4-9.3-77.6-20.7.8-.5 1.7-1.1 2.5-1.5 2.6.7 5.1 2.1 7.6 3.1 25.5 10.5 52.1 15.3 79.5 17.5 37.7 2.4 76.6-2.1 112.3-14.8 3.4-1 4.5-3.6 6.6-6.2 1.7 2.1 3.1 3.7 2.1 6.5-3.1 1.6-6.8 1.9-10.1 3.1-15.3 5.2-31 9-46.9 11.4zm-3.1-90.1c-.2 10.1-2.8 19.9-3.3 30-2.3 19.1-3.4 38.1-6.8 57-7.9 1-15.7 1.5-23.7 1.5-1.1-21.9 0-43.9.8-65.5.6-24.4-.5-48.2-1.4-72.5 11.9-.1 23.9-1.3 35.7-2.8-.5 17.5-.3 34.9-1.3 52.3zm2.3-7c.5-15.2 1-30.4 1.1-45.5 13.1-1.8 26-4.8 38.7-8.6 11-3.2 21.4-7.8 31.8-12.3 14.8 7.3 28.8 17.5 39.4 30.3 8.9 10.8 15.4 24.9 14.8 39.2 0 13.7-6.1 26.5-14.5 37.1-2.4-.9-5-2.1-7.5-2.1-1.7.2-3.5 1.2-5 2-13.5 7.9-27.2 15.5-40.8 23.2-4.3 2.5-9.3 4.6-12 9.1-2 3.1-2.2 6.4-2.6 10-17.4 5.7-35.4 9.5-53.5 11.6 1.9-12.2 3.2-24.5 4.6-36.7 1-11.9 2.2-23.9 4-35.7.9-7.2 1.3-14.4 1.5-21.6zm109.7 62c-2.5 3.3-6.3 5.1-9.8 7.2-12 7-23.9 14.1-35.9 21.1-2.7 1.4-6 3.5-9.2 3.4-3.9-.3-5.7-3.1-8-5.8 3.7-1.2 7.6-1.5 11.2-2.6 2.8-2.8 2.5-9.8-2.2-10.3-3.3-.4-3.9 2.6-5.5 4.8-1.7.6-3.3 1.2-5 1.8.8-3.4 1.4-7.5 3.9-10.2 2.8-2.9 6.9-4.7 10.3-6.7 13.9-7.9 27.6-15.6 41.5-23.6 3.8-2.8 9.5.6 11.6 4 2.3 5.7.7 12.2-2.9 16.9zm7.7-97.6c8.2 11.3 13.4 24.4 13 38.6.1 15.3-6.5 28.8-15.8 40.6-.7-.6-1.4-1.1-2.1-1.7 9.3-11.8 15.4-25.6 15.2-40.8-.4-14.9-6.8-28.4-16.4-39.6-10.6-12.6-23.7-21.3-37.9-29.3l3.3-1.2c15.8 8.4 30.1 19 40.7 33.4zm-24.9-45.7c-9 6.5-18.8 11.4-28.7 16.2-40.4 17.6-84 22.4-127.7 19.9-31.5-2-63.5-9.2-92-23.2-12.7-6-24.9-14-35.2-23.6-9.6-9.1-17.4-19.7-21.7-32.2-2.8-8-3.1-16.4-2.5-24.8 1-12.8 7.4-25.1 15.4-34.9 5.2-6.7 11.6-11.9 17.5-18 2.6 2.9 1.6 4.8 1 8.3-1.3-.5-2.5-1-3.8-1.4-9.6 8.5-17.9 18-23 29.9-6.1 13.7-6.2 29.9-.4 43.7 5.9 14.3 16.2 25.4 28.2 34.8C62.1 243.9 92 254.8 122 260c10.6 2.3 21.2 3.1 32 4.1 33.4 2 68.1-.4 100.2-9.9 21.3-6.3 42.8-15.9 60.2-29.7 3.9-2.8 6.1-6.7 11.3-6.7-4.2 5-9.7 9-15 12.9zm33.6-21.5c-3 7.7-13.5 10.6-20.1 5.6-4.5-3.1-5.1-7.8-6-12.8 1.5-2.6 2.8-5.8 4.9-7.9 4.4-3.8 11.3-4.2 16.3-1.4 5.2 3.6 7.5 10.6 4.9 16.5zm2.5-55c3.2 13 2.4 26.5-3.1 38.8-.7-.6-1.5-1.2-2.2-1.7 4.5-11.2 5.9-23.5 2.8-35.3-2.5-10.7-8.3-19.5-14.9-28.2 1.2.1 2.3.2 3.5.3 6.5 7.4 11.1 16.7 13.9 26.1zm-8.1-30.5c-3 1.6-7.2 2-10-.3-4.1-3.2-6.9-8.1-7.3-13.3-.7-7.2-.8-14.7-.5-21.9 3.7 5.5 2.2 11.7 7.1 16.6 5.5-8.5 6-18.2 10.4-27.1.1 5.4-.7 10.8-1.3 16.2.6.4 1.2.8 1.9 1.1 2.5-6.1 4.2-12.2 8-17.6-.1 7.1-3.3 13.4-3.7 20.3.8.2 1.4.1 1.7-.5 3.4-4.4 5.5-9.7 9-14.1-.8 6.6-4 12-6 18.2 1.9.8 2.8-1.4 3.8-2.5 2.1-3.2 2.8-4.2 5.3-6.2-.6 1.9-.9 2.7-1.7 4.6-2.5 5.7-5.6 11.2-8.3 16.8-2 3.8-4.6 7.6-8.4 9.7z" id="Layer_1"/><g id="Layer_2"><path class="st0" d="M82.3 83.7C71.2 89.4 60.5 95.9 49.7 102c1.2 3.4 1.9 7 2.5 10.5 8.6-4.3 16.8-9.5 25.3-14.1 2.3-1.3 4.9-2.5 6.8-4.4 1.4-3.8 0-7-2-10.3zm-28.5 26c-.5-2.3-1-4.7-1.6-7 9.9-5.5 19.6-11.2 29.6-16.5.3 2.2.7 4.3 1 6.5-9.4 6.1-19.4 11.1-29 17zM321 361.9c-11.1 5.9-22.1 12-32.9 18.5 1.5 3.4 2.1 6.9 2.6 10.5 8.9-4.8 17.5-10 26.4-14.9 2-1.2 4.3-2.4 5.9-4.1 1-3.7-.5-6.7-2-10zm.2 9c-.9.9-2 1.5-3.1 2.2-8.5 5-17.4 9.6-25.8 14.8-.4-2.4-.9-4.7-1.4-7.1 9.8-5.5 19.4-11.3 29.4-16.3.6 2.1 1.1 4.2.9 6.4z"/><circle class="st0" cx="188.1" cy="43.8" r="3.5"/><circle class="st0" cx="203.9" cy="41" r="3.5"/></g></svg>