<svg xmlns="http://www.w3.org/2000/svg" viewBox="0 0 367.23 486.49"><defs><style>.a{fill:#ffc72c}.b{fill:#3d0941}</style></defs><path class="a" d="M308.88 0h1.27l.13.16c2.42 2.65 2.36 5.47 2.37 8.84 0 18.31.14 36.69.24 55 .07 5.7-.74 11.29-.44 17 .12 3.94.7 8.12.13 12s-4.41 5.16-7.34 7c-33.15 18.79-66.17 37.81-99.28 56.68l-3.25-3c-.08-18.22.27-36.45-.33-54.65.17-11-.32-22 .23-33 .08-3.3 2.31-5 4.82-6.71 13.41-8 27.21-15.36 40.38-23.73Q271.57 21.81 295.3 8c4.45-2.6 9.07-5 13.35-7.88z"/><path class="b" d="M310.05 1.86c1.65 6 1 11.87 1.1 18.14q.17 35 .13 70c-.14 2 .19 4.08-1.51 5.49-2.59 2.13-5.78 3.6-8.67 5.29q-41.37 23.6-82.7 47.26c-4.66 2.62-8.7 5.61-14 6.94-.34-28 .05-56-.24-84a34.1 34.1 0 01.47-7.56c1.31-1.92 3.76-3.2 5.71-4.37 33.26-18.95 66.21-38.72 99.71-57.19z"/><path class="a" d="M79.27 64.09c6.52 2.08 12.73 5.29 19.06 7.81 6.91 12.68 13.08 25.74 19.91 38.46a81.47 81.47 0 0122.1-5.43c2.54-.27 4.8 1.16 7 2.25 2.92.48 6.25.7 8.94 2 3.26 2.1 5.64 5.94 7.39 9.33 2.69 5.35 5 11.49 5.24 17.53.31 3.15-2.69 5.88-4.5 8.15.65 4.77 2.86 8.33 5.78 12a25.24 25.24 0 01-10.9 3.24 30.35 30.35 0 01-8.2 5.91c-.43.79-.86 1.58-1.28 2.38 5-.65 9.46-1.93 14.51-1.3 13 1.72 25.94 3.7 38.95 5.07 4.68.24 10.18 1.21 14.47-1 10.12-4.74 20.08-9.81 30.12-14.71 3.53-1.8 6.95-1.28 10.73-1.17 6.09-5.36 12.2-9.91 20.27-11.79 2.58-.54 5.59.65 8.12 1.26.12-6-.4-12.16.25-18.14.2-3.3 3.88-4.18 6.2-5.75 12.87-7.42 25.84-14.77 38.5-22.54 11.1-6.3 21.89-13.2 33.15-19.25.92 1.81 1.92 3.4 1.84 5.6.09 14.35.33 28.68.27 43-.05 3.58.25 7.28-.28 10.83a20.5 20.5 0 01-4.55 3.2c-10.05 5.53-19.88 11.45-29.92 17-2 1.21-4.42 2.28-6 4-.56 3.57-.3 7.32-.29 10.93.32 10.33.19 20.67.33 31-.15 2.1.28 5.19-1.71 6.53-2.8 2.24-6.21 3.8-9.3 5.62-19.68 11.27-39.34 22.6-59.08 33.77-1.22 1-2.63.91-2 2.84 3.61 2.88 8.08 4.75 12 7.11 2.75 1.64 5.9 3.21 7.36 6.23 1.63 3.18 2.82 6.6 4.22 9.89 6.77 3.65 13.5 7.37 20.25 11.05 4 1.93 5.87 7.11 8.18 10.71 12.82 21.37 25.54 42.8 38.47 64.1-8.36 4.74-16.62 9.69-24.83 14.71-.44 2.22.35 5-1.95 6.26-3.74 2.67-7.79 4.91-11.71 7.31-1.47.68-3.25 2.17-4.87 1.34-5.43-2.16-10.28-5.63-15.64-8 1 5.55 2 11.07 3 16.63 1 4.7 2.65 9.62 7.19 12 8.54 4.71 20 5.34 29.4 7.75 1.78.54 3.94 1.23 5.27 2.6a8.09 8.09 0 011.69 5.68 7 7 0 01-5.24 4.45 74.82 74.82 0 01-14 1.86c-5.17.24-9.67-1.95-14.95-1.44-4.93.45-10 4.11-14.83 3.51-2.18-.35-5.12-1.22-5.8-3.62-2.07-6.25-1.2-13.45-3.3-19.73-.69-2-2.09-3.29-3.56-4.72-3.34-3.16-6.62-5.91-9.07-9.87-3.78-6.1-6.55-13.13-9.31-19.74-3.36 2.09-6.75 4.17-10.19 6.13.34 5.58 1.43 11 2.16 16.56a237.74 237.74 0 012.22 26.52 14.26 14.26 0 006 11.94c8.59 6.27 20 9.37 29.35 14.44 2.74 1.51 5.74 4 6.46 7.22a25.63 25.63 0 01-.59 4.6c-5.85 2.91-11.84 4.93-18.49 4.25-10-.94-20.15-6.29-29.13-10.56-2-1.08-5-2.25-6-4.38-1.86-4.88-2.11-10.83-3.36-15.85-1.29-5.3-6.05-8.57-8.33-13.75-3.2-7.27-5.76-14.88-8.29-22.42-2.59 1.34-5.1 2.81-7.64 4.22 3 10.23 5.89 20.5 8.9 30.73.47 2 1.43 5.46-.67 6.91a61.74 61.74 0 01-15.34 7.68c-8.81 3.15-17.58 6.41-26.39 9.55a45.54 45.54 0 00-9.36 4.69c-9 5.65-18.12 11.23-27.15 16.9-1.54.85-3.26 2.09-5 2.28a19.69 19.69 0 01-6-2.7c-14.51-8.9-29.17-17.53-43.7-26.39-12.71-7.5-25.18-15.45-38-22.69-1.35-5.46 0-10.35.79-15.76.63-4.16 1.21-8.33 1.71-12.51-10.13-5.71-20.31-11.35-30.48-17-2.94-1.84-6-3.37-5.78-7.39-.11-11.34.24-22.7.12-34.05 0-3.27-.21-6.73.45-9.93.94-1.53 2.79-2.57 4.22-3.61 4.71-3.07 9.35-6.24 14-9.36-.12-8.62 0-17.25-.08-25.88a81.91 81.91 0 01-9.38-5.35c-2.68-1.83-4.19-3.69-4.44-7C10.18 232.75 5.53 178 .79 124c-.31-4.55-1.26-9.49-.51-14 .88-4.28 3.84-7.27 7.52-9.38 19.25-11.17 38.63-22.09 57.86-33.26C70 65 74.12 62.41 79.27 64.09z"/><path class="b" d="M73.49 65.21c4.7-1 9.08 1.56 13.31 3.23 3.38 1.56 7.26 2.66 10.31 4.81 2.22 2.47 3.49 5.93 5.07 8.84 4.94 9.52 9.71 19.13 14.75 28.6q-2.54 1.94-5 3.9c-3.9-7.79-8-15.5-11.89-23.28-1-1.85-2.07-4.13-4-5.16-2.88-.86-5.17.6-7.61 1.89-12 7-24.11 13.89-36.16 20.86-5.68 3.32-11.27 5.91-16.27 10.2.9 6.32 2 12.6 3.11 18.89 6.86 39.9 13.91 80.27 20.69 120.09.39 3.31 2.47 4.72 5.1 6.29 29.5 17.13 58.93 34.43 88.44 51.54 3.61 2.33 7.78 3.4 8.89 8 12.38 42.45 25 85.22 37.27 127.62-10.22 3.65-20.41 7.4-30.59 11.15-7.25-28.76-14.76-57.46-22-86.22-1.21-4.19-1.31-8.23-5.59-10.52-20.74-12.18-41.66-24.34-62.32-36.61-1.64-.84-3.83-2.29-5.7-1.57a26.45 26.45 0 00-4.56 3.24c-7.38-3.78-14.77-7.54-22.13-11.36-2.15-1-4.93-2.5-7.34-2.11-3.29.92-6.24 3.55-9 5.52v-24c-3.88-2.51-8.1-4.57-11.8-7.33-2.06-1.46-2-4.41-2.29-6.66Q9.14 203 2.05 121c-.33-4.39-1.63-9.56.58-13.6 1.74-3.38 4.93-5.14 8.07-7q26.12-14.83 52.12-29.86c3.38-1.87 6.9-4.37 10.67-5.33zm229.14 85.55c-4.34-3.1-9.2-4.82-14.24-6.39 0-6.13-.34-12.32.11-18.43-.12-1.38 1.77-2.26 2.7-3q30.45-17.53 60.78-35.3a102.55 102.55 0 0113.18-7.1c.28 13.46.06 27 .13 40.42-.07 5.43.25 11-.47 16.3v.18l-.15.12c-4.13 3.26-8.83 5.51-13.51 8.24-8.14 4.71-16.36 9.29-24.45 14.1 0-3.8.14-7.17-1.91-10.52-12.27 6.79-24.29 14.06-36.46 21.06V152.8c4.88.24 9.74.19 14.6.83"/><path class="b" d="M95.77 87.62c5.1 9.36 9.83 18.92 14.71 28.4q-1.58 2.4-3.1 4.82l-7.76-17.14c-1.13-2.25-2.07-4.64-4.62-5.7-2.13-.28-4.55 1.35-6.41 2.29q-18.06 10.5-36.3 20.71c-2.59 1.49-4.9 3.1-6.18 5.91-1.16 2.36-.51 4.75 0 7.18C55.2 167.9 64.24 202 73.29 236c1.1 4 1.84 8.09 3.32 11.92.54 1.51 2.3 2.42 3.56 3.3 5.56 3.36 11.22 6.56 16.7 10.05.42 2.38.68 5.2 1.87 7.32a35.35 35.35 0 005.14 5.87c5.37 5.3 10.57 10.76 15.93 16.07 4.5 4.5 9.79 7.87 14.49 12.12-24-14-48-28-71.93-42.07C55.06 219 48 177.45 40.78 135.94c-.9-5.45-2-10.89-2.63-16.36 2.34-1.6 4.73-3.1 7.19-4.52 14.4-8.26 28.83-16.51 43.18-24.87a25.19 25.19 0 017.25-2.57z"/><path class="b" d="M95.05 99.7c3.47 5.27 5.61 11.45 8.45 17.09 1 2.38 2.85 5.23 2.33 7.86A69.07 69.07 0 00105 137c.12 10.05 3.57 20 4 30a114.44 114.44 0 01-2.1 17c-.33 2.47-2.2 3.22-3.84 4.81-3.67 2.83-4.56 7.86-5.11 12.18a292.69 292.69 0 00-1.08 58c-6-3.83-12.23-7.42-18.33-11.16q-14.31-53.7-28.63-107.4c-.9-3.65-2.38-7.51-2.4-11.29.68-3.44 3.46-5.06 6.24-6.71 11.53-6.44 23-13 34.46-19.56a38.33 38.33 0 016.84-3.17zm46.46 6.3c-7.55 3.74-13.78 9.13-17.47 16.82-2.89 5.64-3.18 11.59-2.94 17.81 2.56 1.72 6 3.38 7 6.5 1.16 4.56.87 10.4-3.78 12.92-3.36 1.71-8.84 1.52-11.34-1.66-2.18-2.43-1.81-6.42-1.62-9.44.27-3.77 3.45-5.66 6-8-.22-6-.8-11.78 1.56-17.46a35.16 35.16 0 0111.08-13.8c3.25-2.56 7.58-2.93 11.51-3.69z"/><path class="b" d="M144.65 107.1l1.73 1.81c4.92.3 9.41 0 12.57 4.46 5.07 7.14 8.74 16.2 8.35 25.07a27.3 27.3 0 00-4 5.67c-.68 4.19 2.8 8.53 5 11.8-2.39.88-4.85 1.55-7.3 2.28 1.61-7.68 1.49-15.35 1.27-23.26-.37-5.87-3.72-10.14-8.1-13.74-2.6 5.57-4 12.9-8.78 17-4.61 3.95-11.6 4.64-17.41 5a37.33 37.33 0 01-4.87-4.17c-1.53-14.32 8.08-27.49 21.54-31.92zm-15.91.9c-5.15 4.85-9.84 9.44-12.2 16.31-1.89 5.3-1.4 10.36-1.33 15.88-1.78 1.64-4.1 3.46-5.06 5.73s-1.06 5-1.42 7.45c-1-9.22-3.13-19.28-.75-28.56 2.39-8.13 9-12.65 16.68-15.35z"/><path class="b" d="M148.84 137.86a67 67 0 005.45-11.68 1.29 1.29 0 012.26-.3 16.65 16.65 0 013.61 8.06 113.1 113.1 0 01.12 15.07c-.14 3.46-.38 6.66-2.39 9.61-2.11 3.17-5.37 4.17-8.31 6.24a1.28 1.28 0 00-.54.94c-.27 3 .17 6.17-.11 9.2a1.34 1.34 0 01-.55.94 16.88 16.88 0 01-14.2 1.71 1.29 1.29 0 01-.86-1.13c-.47-6.67-1-13.21-3.06-19.63a1.2 1.2 0 010-.5 34.41 34.41 0 00-.19-9.88 1.3 1.3 0 011.16-1.49 48.68 48.68 0 0012.76-3.16 1.34 1.34 0 00.24-.12l2.35-1.51a3.37 3.37 0 00.62-.51l1.52-1.64a1.84 1.84 0 00.12-.22z"/><path d="M364.8 137.48v-.18.19l-.15.11z" fill="#fff"/><path class="b" d="M278.57 144.32c2.43-.61 5.28.4 7.68.93l.06 4.45a24.48 24.48 0 00-6.14 1.14c-2.67 1.19-4.81 3.3-6.94 5.25-.07 1.1-.15 2.21-.23 3.31a24.47 24.47 0 004.26 2.47c3-.28 5.9-1.31 8.84-1.87-3 2.83-6.67 5.83-10.76 6.78-4.37.35-8.86-.88-13.26-1.06a74.41 74.41 0 01-4 7.1c-2.19 2.69-5.48 4.71-8.33 6.66-7.2 4.73-14.34 10.08-21.84 14.18a18.09 18.09 0 01-5.6 2.21c-13.35.8-26.6-1.08-39.8-.89a113.12 113.12 0 00-15.93-26.81c7.79 1.28 15.59 2.19 23.42 3.18 7.58 1 15.64 2.3 23.3 1.85 2.7-.18 5.09-1.47 7.48-2.62 7.75-4 15.61-7.69 23.36-11.64 2.65-1.28 5.06-2.69 8.08-2.78 3.42-.28 6.27.41 9-2.15a42 42 0 0117.35-9.69zm9.72 1.99l2.76 1a87.94 87.94 0 019 3.79c-3.89 0-7.78-.09-11.67-.23z"/><path class="b" d="M286.19 151.8q.07 3.07.12 6.15c-2.73.6-5.45 1.34-8.22 1.75-1.63.14-3.37-.62-2.85-2.58 2.57-3.81 6.53-5.12 10.95-5.32zm38.21.09c.27 3 .33 6 .45 9-9.19 5.39-18.5 10.58-27.71 15.95-2.85 1.66-5.73 3.23-8.72 4.61-.08-2.89-.12-5.77-.13-8.66 12.04-6.97 23.93-14.22 36.11-20.9zm-214.97 4.86c2.42 3.16 4.42 6 8.77 6.32 4.55.65 7.57-1.62 10.86-4.33.83 4.75 1.6 9.5 2.21 14.29-7.61 3.94-15.21 7.89-22.74 12 1.86-9.63 3.59-18.6.9-28.28zm176.89 6.07v8.83c-12.1 7-24.15 14.17-36.33 21a14 14 0 00-3.42 2.66A34.2 34.2 0 00246 203c.13 14.86-.14 29.72.09 44.58C225.39 235.74 204.63 224 184 212a91.84 91.84 0 00-.72-15c12.76-.28 25.33 1.51 38.08 1 2.49-.08 4.53-1.11 6.7-2.22 7.71-4.11 14.5-9.21 21.89-14.11 3.1-2.12 6.52-4.24 9.16-6.92 1.82-1.8 2.67-4.53 3.72-6.84 4.16.08 8.33 1.19 12.47 1 3.96-.91 7.7-3.8 11.02-6.09z"/><path class="b" d="M324.81 163.08c-.12 14.33.13 28.67.18 43 0 2.68-.66 3.37-2.85 4.75-23.32 13.41-46.85 26.75-70.13 40.23l-4.15-2.56c.16-13.5.1-27 .1-40.49 0-3.87-.33-8 .56-11.83 2.7-2.33 6.21-3.82 9.26-5.67 9.45-5.54 19-11 28.37-16.6.3 3.42-.6 6.76 2.1 9.34 2.8-.55 5.3-2.09 7.74-3.5 9.54-5.68 19.29-10.99 28.82-16.67zM164 167.67a140.11 140.11 0 0110 14.6c3.21 5.72 6.53 11.42 7.64 18 1.21 7.63-.47 15.22-.4 23.21.07 6.86-.28 13.68-.77 20.52-.45 5.48.32 10.79.79 16.23 4.42 3.25 9.33 5.25 14.28 7.51-3.43 2-7.25 3.72-10.28 6.28-2.85 2.43-1.77 6.86-1.2 10.06.48 2.79 2.75 3.84 4.92 5.21 7.9 4.41 15.81 8.83 23.63 13.38 2.37 1.31 5 2.91 7.67 3.39 2.35-.56 4.57-2.12 6.61-3.39 5.23-3.44 10.52-6.78 15.79-10.14 5.09 3.68 10.63 6.69 15.78 10.28 4.46 3 5.95 8.48 7.72 13.25 8 23.9 13.87 49.18 19.45 73.73 1.5 6.18 1.19 11.84 4.26 17.59 1.69 3.73 4.88 6 8.58 7.46 8.32 3.34 18.07 4.45 26.77 6.42 2.12.61 4.43 1.19 5.29 3.49s.79 4.64-1.68 5.76c-4.59 1.64-9.72 2.09-14.57 2.46-4.57.37-8.64-1.11-13.09-1.55-6.64-.58-11.49 4.18-18 3.57-1.78-.18-3.69-.73-4.26-2.64-1.9-6.26-1.06-13.62-3.29-19.84-.87-2.27-2.67-3.85-4.41-5.47-3.21-2.93-6.29-5.68-8.58-9.43-4-6.52-6.77-14.09-9.79-21.13-4.25-11.09-6.54-23-11-34a31.74 31.74 0 00-4.36-7.69c-2.08-2.51-5-3.93-7.79-5.49a31 31 0 00-9.32-9.47c-11.28-7.52-22.94-14.53-34.7-21.27-3.66-2.18-7.22-4.34-11.41-5.39 2.85 3 6.38 4.88 10 6.85 11.24 6.26 22.2 13 33 20 3.74 2.53 8.37 5.45 10.09 9.82 4.72 12.47 7.14 25 10.12 37.93 3.26 16 5.35 32.24 7.1 48.45.61 4.91.23 9.85.77 14.74.85 5.34 4.73 9.1 9.11 11.87 8.42 5.22 18.37 8.28 27.1 13a11.15 11.15 0 015.37 5.61c1.09 1.92-.78 3.88-2.37 4.77-5.71 3.17-13.21 3.34-19.5 2.21-10.39-2.35-20.26-7.7-29.64-12.64-1.3-5.22-1.9-10.57-3-15.82-1.35-6-6-8.67-8.58-14.42C220.4 418 218 410 215 402.29c-4.83-14.71-10-29-12.82-44.28-.88-4.82-4.45-6.16-7.69-9.16-2.39-2.17-4.53-4.41-5.51-7.57-2-5.94-3.92-12-5.65-18 1.34-5.11 1.55-11-.39-15.95-1.32-3.38-4.35-5.23-6.37-8.42-1.23-1.66-2.2-4.24-4.38-4.77-3.22-1-6.89-1.09-10.23-1.29a68.63 68.63 0 01-6.05-6.48c-4-4.84-8.69-8.43-13.2-12.8q-5.07-4.94-10.06-10c-1.88-2-4-4.2-5.09-6.76-.64-3.17-.26-6.62-.29-9.85.06-10 .65-20 .17-30a27.06 27.06 0 00-2.64-11.47c-4.06-7.69-10.25-14-18.41-17.25 8.06-4.35 16.25-8.46 24.28-12.87 1.44 4.93 4.14 9 7.19 13 1.93 2.48 3.7 5.9 6.43 7.55 3.17.64 6.77-.9 9.51-2.4 2.06-1.26 4-2.88 3.5-5.56-1-4.33-4.27-8.12-5.61-12.36a48.17 48.17 0 01-.92-6.56 75.21 75.21 0 0113.23-1.37z"/><path class="b" d="M150.17 177.56a45.35 45.35 0 015.61 12.55c-2.84 1.61-6.19 3.76-9.5 4-2.14.17-2.89-1.6-4.11-3-2.61-3.59-5.09-7.27-7.77-10.81 6.08.41 10.27-.17 15.77-2.74zm-47.29 13.71c3.36-1.35 6.29.24 9.05 2.07a37.67 37.67 0 0110.78 12.26c2.88 5.2 2.66 10.62 3 16.4.19 11-.74 22.05-.49 33.07-.15 2.8 2.11 5.21 3.74 7.28 3.6 4 7.61 7.71 11.42 11.55 4.61 4.66 10 8.73 14.15 13.76 2 2.35 4.26 5.54 7.14 6.84 3.62.87 7.43 1 11.09 1.66a20.43 20.43 0 005.55 7.86c5 4.28 3.8 11.53 4 17.37a20.55 20.55 0 01-13.49 1.05c-3.37-1.85-4.93-6.51-7.87-9.05-3.6-3.07-7.13-6.2-10.69-9.31-3.61-3.7-9.11.28-13.48-2.54-13-8.24-21.72-18.93-32.56-29.47-2.51-2.46-4.65-4.9-5-8.58-2.22-20.38-1.67-41.15.53-61.51.43-3.64 1.15-7.57 3.13-10.71zM183.53 214q29.44 17 59 33.77c3.21 1.59 3.73 4.42 5.4 7.3l4.21-1.85c5 3 10.09 5.85 15.18 8.7 2.12 1.3 4.19 2.32 5.29 4.68 2.13 4.37 3.65 9 5.56 13.5 13.1 31.51 26.19 63.19 39.33 94.66a17.73 17.73 0 011.26 5.26 36.48 36.48 0 01-4 3.93c-15.44-36.41-30.51-73.12-45.83-109.59-1.65-3.92-5.27-5.27-8.67-7.34-25.7-14.79-51.25-29.84-77-44.6.11-2.82.2-5.62.27-8.42z"/><path class="b" d="M183.36 224.62L263.28 271c4.07 2.19 5.05 7.19 6.84 11.11q21.3 51.24 42.72 102.45c-2.84 1.69-5.66 3.41-8.49 5.11-3.23-6.82-6-13.88-8.9-20.85-11.93-28.8-24.07-57.53-35.86-86.38.62-2.75 1.48-5.17.27-7.93s-4.1-4.21-6.5-5.64c-8.83-4.81-17.52-9.85-26.27-14.77-2.51-1.57-5-1.25-7.78-1.09-12.13-6.84-24.11-13.94-36.14-21q.11-3.65.19-7.39z"/><path class="b" d="M183 234.12c11.52 7 23.29 13.59 34.9 20.44-4.17 2.4-8.32 4.84-12.48 7.28-7.61-6.62-15.34-13.1-23-19.66.18-2.69.37-5.37.58-8.06zm-.72 10.56c7.21 6 14.29 12.1 21.41 18.17-2.12 1.26-4.23 2.51-6.34 3.78-4.61-2.39-9.31-4.58-14-6.89a90.34 90.34 0 01-1.07-15.06zm65.37 6.32c1.16-1 3 .34 2.2 1.73a1.42 1.42 0 01-2.2-1.73zM223 254.45c1.23.46 2.44 1 3.65 1.5-8.61 5.2-17.19 10.43-25.84 15.57-1.52 1.23-4.21 2-3.54 4.42 2 2.35 5.21 3.77 7.83 5.28 3.49 1.82 6.81 4.08 10.43 5.63 2.7 1.31 5.41-.57 7.74-1.81 8.85-5.34 17.79-10.54 26.64-15.88a62.72 62.72 0 016.37 3.9c2 1.39 2.66 4.46 2 6.7-1.92 2.13-4.72 3.57-7.11 5.12-8.58 5.4-17.15 10.83-25.64 16.36a22.49 22.49 0 01-5.29 2.73 22.33 22.33 0 01-6.23-2.74c-9.16-5.31-18.4-10.48-27.62-15.69-.51-3-.91-5.92-1.29-8.88a75.19 75.19 0 0110.81-7q9.17-5.33 18.25-10.75a51.49 51.49 0 018.84-4.46z"/><path class="b" d="M228.37 257.25c6.66 3.4 13 7.35 19.62 10.9-10.23 5.78-20.08 12.32-30.54 17.65-6.23-3.48-12.56-6.83-18.66-10.55 9.73-6.18 19.66-12.13 29.58-18zm51.06 20.96c6.45 3.47 12.8 7.14 19.3 10.52q-5.76 4-11.6 7.87c-2.47-6.17-5.13-12.26-7.7-18.39zm-21.78 4.73c12.48 30.35 25.21 60.58 37.77 90.89 2.36 5.66 4.65 11.34 7.21 16.92-5.6-3-11.19-6.09-16.88-9-1.88-8.73-3.94-17.48-6.06-26.16-3.87-14.21-7.47-28.67-12.46-42.53-1.71-4.48-3.27-8.81-7.37-11.68-5-3.52-10.39-6.62-15.58-9.92 4.49-2.77 8.96-5.6 13.37-8.52zm42.64 7.17c14.49 23.59 28.39 47.6 42.89 71.19q-11.74 6.9-23.43 13.9c-10.55-25.61-21.24-51.18-31.84-76.78 4.14-2.75 8.17-5.68 12.38-8.31zM134 302.63c1.22.48 2.43 1 3.65 1.44 3.28.81 6.4.34 9.7 0 4 3.67 8.15 7.16 12.24 10.73 3.08 2.71 4.86 7.55 8.46 9.43 4 1.56 9.21.68 13.4.08 2.14 6.11 3.84 12.37 6 18.46 2.26 5.81 7.51 8.46 11.46 12.52 2.2 3.91 2.35 9.14 3.56 13.45 3 11.31 6.78 22.43 10.53 33.51l-8 5.17c3.43 11.78 6.6 23.64 10.26 35.35-4 3.76-8.84 6-13.82 8.21-11.57-39.22-23-78.5-34.46-117.74-1.25-4-2.11-8.32-3.84-12.18-1.05-2.29-3.18-3.48-5.24-4.76-7.9-4.55-15.83-9.24-23.9-13.67zm-93.75 16.75a21.69 21.69 0 016.26 2.4c7.19 3.74 14.4 7.46 21.66 11.06-4.31 5.73-8.5 11.56-12.69 17.38-1.89 2.56-2.54 5.46-3.34 8.48-13-7.2-26.2-14.08-39.24-21.25 7-4.89 14.24-9.52 21.06-14.74 1.84-1.27 4.04-3.05 6.29-3.33zm33.9 9.7c4.64 2.21 9 5.05 13.44 7.62q27.22 16 54.44 31.92c-9.24 4.82-18.38 9.84-27.61 14.71-5.78-3.84-11.78-7.2-17.71-10.78-12.84-7.62-25.66-15.28-38.52-22.87 3.36-4.57 6.69-9.16 9.94-13.81a32.19 32.19 0 016.02-6.79zm156.1 2.61a18 18 0 018.89 9.44c5.19 11.73 7.58 24.77 12.16 36.77q-4.41 2.81-8.81 5.64c-2.11-12.11-4.81-24.06-7.62-36-1.33-5.36-3.24-10.54-4.62-15.85zM11.5 338.91c13.57 7.34 27.12 14.74 40.79 21.9-2.41 14.56-4.39 29.26-6.29 43.89-9.54-5.22-19-10.65-28.53-15.83-1.94-1.14-4.42-2.35-5.72-4.24-.65-3.1-.33-6.47-.4-9.63-.07-12 .23-24.06.15-36.09z"/><path class="b" d="M56.82 351.15c17.29 10.09 34.43 20.54 51.72 30.63 2.56 1.64 5 2.9 5.36 6.23 4.85 32 9.33 64 14.4 95.93-22.39-13.63-44.91-27.05-67.34-40.6-5.65-3.44-11.32-6.66-16.77-10.33.84-9.29 2.65-18.48 3.63-27.76 2-15.45 4.47-30.84 6.53-46.28a23.42 23.42 0 012.47-7.82zm86.31 19.1c8.32 31 15.85 62.33 24.17 93.36-7.12 4.34-14.2 8.74-21.29 13.12-5.12 3.11-9.81 6.51-15.4 8.77-1.69-8.43-2.64-17-4-25.5-3.82-25-7.22-50-11.31-74.93 9.3-4.9 18.5-10 27.83-14.82z"/><circle class="a" cx="154.93" cy="137.3" r="2.69"/><circle class="a" cx="146.37" cy="140.88" r="2.69"/><rect class="a" x="208.45" y="62.08" width="99.63" height="4.08" rx="2.04" ry="2.04" transform="rotate(-30 258.259 64.12)"/><rect class="a" x="208.37" y="76.36" width="99.63" height="4.08" rx="2.04" ry="2.04" transform="matrix(.87 -.5 .5 .87 -4.61 139.6)"/><rect class="a" x="208.43" y="90.82" width="99.63" height="4.08" rx="2.04" ry="2.04" transform="rotate(-30 258.24 92.855)"/><rect class="a" x="253.19" y="191.27" width="66.29" height="2.73" rx="1.36" ry="1.36" transform="rotate(-30 286.346 192.626)"/><rect class="a" x="252.7" y="200.92" width="66.29" height="2.73" rx="1.36" ry="1.36" transform="rotate(-30 285.86 202.276)"/><rect class="a" x="252.35" y="210.33" width="66.29" height="2.73" rx="1.36" ry="1.36" transform="rotate(-30 285.496 211.698)"/><rect class="a" x="298.26" y="115.55" width="66.29" height="2.73" rx="1.36" ry="1.36" transform="rotate(-30 331.411 116.921)"/><rect class="a" x="297.77" y="125.2" width="66.29" height="2.73" rx="1.36" ry="1.36" transform="rotate(-30 330.925 126.571)"/><rect class="a" x="297.42" y="134.62" width="66.29" height="2.73" rx="1.36" ry="1.36" transform="rotate(-30 330.566 135.975)"/></svg>