<svg version="1.1" id="Layer_1" xmlns="http://www.w3.org/2000/svg" x="0" y="0" viewBox="0 0 1078.9 886.3" xml:space="preserve"><style>.st5{fill:#fff}.st6{fill:#f7c851}</style><g id="Background_-_OG" fill="none" stroke="#fff" stroke-miterlimit="10"><path d="M865.5 489.7c8.9-22.2 17.8-44.1 26.5-65.6 56.9-140.6 105.3-260 105.3-260l-206.1 1.3 54.5-152.9L224.2 15l31.3 141.3H82.9l132.2 333.5m108.4 273.6l42.7 107.8 345.3 2.5s17.5-44 43.9-110" stroke-width="25"/><path d="M33.4 785.8c-9.3-92.9-18.6-185.2-27.9-278 356-38 711.9-38.2 1068-.3-9.3 92.7-18.6 185.2-27.9 278.3-337.4-35.8-674.7-36.7-1012.2 0z" stroke-width="10"/></g><path class="st5" d="M832.1 629.3c3.2-7.9 6.1-15.1 9-22.3 4.2-10.3 8.3-20.6 12.4-30.9.7-1.7 1.4-2.3 3.4-2.1 4.2.5 8.5.5 13.3.8-1.9 32.8-3.9 65.5-5.8 98.5-5.3-.3-10.3-.6-15.7-1 1-16.9 2-33.7 2.9-50.5-.2-.1-.4-.1-.6-.2-4.7 12-9.4 24-14.2 36.1-3.8-.2-7.5-.3-11.2-.7-.7-.1-1.7-1.2-1.9-2.1-2.8-11.5-5.6-23.1-8.3-34.6-.1-.4-.3-.8-.8-1.2-1 16.9-1.9 33.9-2.9 51-5.5-.3-10.7-.6-16.2-1 1.9-32.8 3.9-65.5 5.8-98.5 5.3.3 10.4.6 15.7 1 5 19.1 10 38 15.1 57.7zm-49.7 39.2c-5.2-.3-10.1-.6-14.9-.7-1.7 0-1.6-1.2-1.9-2.2-3.5-13.1-6.9-26.2-10.3-39.4-1.2-4.6-2.4-9.2-4.1-13.7-.9 18-1.8 35.9-2.7 54.4-5.2-.2-10.4-.5-15.7-.7 1.6-33 3.2-65.7 4.8-98.6 6.2.3 12.2.6 18.1 1.1.6 0 1.3 1.2 1.5 1.9 3.7 13.4 7.2 26.9 10.8 40.3.2.8.5 1.6 1.2 2.4.7-14.6 1.4-29.2 2.2-44 5.3.3 10.3.5 15.7.8-1.5 32.7-3.1 65.4-4.7 98.4zm-420.1-58.6c-.8-14.6-1.6-29.2-2.4-43.9 5.3-.3 10.3-.6 15.7-.9 1.8 32.8 3.6 65.5 5.4 98.5-5.2.3-10.2.7-15.2.9-.6 0-1.4-1.2-1.7-2l-18.3-48.3c-.4-.9-.7-1.9-1.5-2.7 1 17.9 2 35.8 3 54.2-5.2.3-10.3.6-15.7.8-1.8-32.9-3.6-65.5-5.4-98.5 4.9-.3 9.5-.6 14.2-.9 5-.2 5-.2 6.8 4.5 4.7 12.3 9.4 24.5 14.1 36.8.2.5.4 1.1.6 1.6 0 0 .2-.1.4-.1zm586.6 15c-1.3 17.8-2.7 35.6-4.1 53.8-5.2-.4-10.3-.7-15.7-1.1 2.5-32.8 4.9-65.5 7.4-98.4 4.2.3 8.2.6 12.2.9.6 0 1.2.2 1.8.2 5.1.4 5.1.4 6.3 5.3 3.1 12.9 6.2 25.7 9.3 38.6.2.6.4 1.3.9 1.8 1.1-14.6 2.2-29.2 3.4-44.2 5.2.4 10.3.8 15.7 1.1-2.5 32.8-4.9 65.4-7.4 98.4-5.3-.4-10.3-.8-15.3-1.3-.5-.1-1.2-1.1-1.3-1.8-4-16.8-7.9-33.7-11.9-50.6-.2-.9-.5-1.8-.7-2.7h-.6zM223 674.4c-2.5-32.8-4.9-65.3-7.3-98 .8-.2 1.4-.4 2-.4 10.5-.8 21-1.6 31.5-2.2 7-.4 11.2 3.7 11.7 10.7 1.7 22.7 3.4 45.4 5.1 68 .2 2.9.5 5.8.6 8.7.2 5.9-3.9 10.3-9.7 10.8l-30.9 2.4h-3zm27.4-17.7c-1.7-22.5-3.4-44.7-5-67.1-4.4.4-8.6.7-12.9 1.1 1.7 22.4 3.3 44.6 5 67 4.4-.4 8.5-.7 12.9-1zm306.5-45.2V650c0 6.5-4.6 10.9-11.1 10.8-7.6-.1-15.2-.2-22.8-.2-6-.1-10.5-4.3-10.5-10.3.1-26 .3-52 .5-78.1.1-5.9 5-10.4 10.9-10.3 7.6.1 15.2.2 22.8.4 6.3.1 10.6 4.4 10.6 11v38.2h-.4zm-28.4 33.4h12.8V578h-12.8v66.9zm191.2 20.4H704c.5-13.4 1-26.4 1.6-39.8h-13c-.5 12.7-1.1 25.7-1.6 38.7h-15.7c1.3-33.1 2.6-65.8 3.9-98.7 2.1 0 4-.1 5.9 0 8.5.3 16.9.7 25.4 1 6.6.3 11.1 4.9 10.8 11.5-.4 10.3-1 20.7-1.4 31-.1 3.6-1.5 6.4-4.9 8.3 5.4 3 6.3 7.6 6 13-.6 11-.9 22-1.3 33.1.1.7 0 1.3 0 1.9zm-15.5-55.7c.4-8.7.8-17.4 1.1-26.1 0-.5-.8-1.4-1.2-1.5-3.2-.1-6.4-.1-9.8-.1-.4 9.2-.7 18.3-1.1 27.6 3.8.1 7.3.1 11 .1zm-546.8-28.9c5.3-.4 10.3-.9 15.6-1.3 2.3 27.5 4.5 55 6.8 82.7 4.3-.4 8.5-.7 12.9-1.1-2.3-27.6-4.5-54.9-6.8-82.6 5.1-.4 10.3-.9 15.6-1.3.4 4.9.8 9.5 1.2 14 1.3 16.1 2.7 32.2 4 48.3.7 8.6 1.5 17.2 2.1 25.8.4 5.9-4 10.6-10.4 11.1l-22.8 1.8c-5.6.4-10.5-3.5-11-9.1-1.1-11.8-2.1-23.7-3-35.5-1-11.5-1.9-23-2.8-34.5-.5-6-.9-11.9-1.4-18.3zm342 34.9v15.9c0 6 .2 12 .2 18 0 6.9-3.8 10.9-10.6 11.1-7.8.3-15.6.4-23.4.4-5.7 0-10.2-4.5-10.4-10.2-.1-4.9-.1-9.8-.1-14.6-.2-20.9-.4-41.8-.5-62.7 0-6.7 4.3-11 11-11.1 7.4-.1 14.9-.2 22.3-.2 6.6 0 10.9 4.3 10.9 10.9v18.4h-15.6V578h-12.7v67h13.1v-13.7h-5v-15.7h20.8zm-400.5-4.4c-5.2.5-10.1.9-15.4 1.4-.3-3.2-.7-6.2-1.1-9.6-4.2.4-8.3.8-12.8 1.2.8 8.2 1.5 16.2 2.3 24.6 5.2-.5 10.3-1 15.4-1.4 2-.2 4.2-.4 6.1 0 4.5.9 7.6 4.7 8.1 9.5 1.2 12.4 2.3 24.9 3.4 37.3.5 5.7-3.9 10.5-9.8 11-7.2.6-14.3 1.3-21.5 2-8 .7-12.7-3.4-13.2-11.4-.3-4.5-.8-9-1.2-13.7 5.3-.5 10.3-1 15.5-1.5.4 3.5.8 6.8 1.2 10.4 4.3-.4 8.4-.7 12.8-1.1-.8-8.9-1.7-17.7-2.5-26.7-6 .5-11.7 1-17.4 1.6-6.2.7-11.4-3.2-12.1-9.4-1.2-11.9-2.4-23.8-3.4-35.8-.5-5.3 3.3-10.1 8.7-10.6 8.3-.9 16.7-1.7 25-2.3 5.4-.4 9.7 3.3 10.4 8.8.6 4.7 1 9.5 1.5 14.3.1.4 0 .8 0 1.4zm483.2-49c2.9 24.3 5.8 48.2 8.6 72.1h.6c3.8-23.8 7.6-47.5 11.4-71.2H619c-5.6 32.9-11.1 65.5-16.6 98h-23.7c-4.3-33.1-8.5-66-12.7-98.9h16.1zm44.8 1.5c13.1.4 25.9.8 38.7 1.2v15.3h-23.4c-.1 3.8-.3 7.9-.4 12-.1 3.5-.1 7-.4 10.5-.2 1.9.5 2.2 2.1 2.2h13.9v15.8h-16.5c-.3 8.6-.5 17.3-.8 26.3 5.7.2 11.4.4 17 .6 2.4.1 5.6-.7 6.9.6 1.2 1.2.4 4.5.4 6.8 0 2.6-.1 5.1-.2 7.7 0 .2-.2.5-.4.8-13.2-.4-26.4-.8-39.9-1.2 1-32.8 2-65.4 3-98.6zm291.6 97.8c-.3 5.3-.7 10.4-1 15.7-13.5-.9-26.7-1.8-40.2-2.7 2.2-32.8 4.4-65.5 6.7-98.4 13 .9 25.9 1.7 39 2.6-.4 5.2-.7 10.3-1.1 15.7-7.7-.5-15.3-1-23.2-1.5-.3 3.4-.5 6.6-.7 9.8-.3 4.4-.5 8.9-.9 13.3-.2 1.9 1 1.9 2.2 2l10.5.6c1.1.1 2.2.2 3.5.4-.4 5.2-.7 10.2-1 15.6-5.5-.4-10.8-.7-16.4-1.1-.6 8.9-1.2 17.7-1.8 26.6 8.2.3 16.1.8 24.4 1.4zm-626.6-50.6c5.4-.3 10.6-.6 16.3-.9.4 5.2.7 10.3 1.1 15.6-5.6.4-10.8.8-16.4 1.2.6 8.9 1.2 17.7 1.8 26.5 8.3-.5 16.2-1 24.5-1.6.3 5.3.7 10.3 1 15.6-13.4.9-26.6 1.8-40.1 2.7-2.2-32.8-4.3-65.5-6.5-98.5 13.1-.9 25.8-1.7 39-2.6.3 5.3.7 10.4 1 15.6-7.9.5-15.4 1.1-23.3 1.6.5 8.3 1 16.4 1.6 24.8zm93-30.2V565c14.1-.6 28.4-1.2 42.8-1.7.2 5.3.5 10.3.7 15.7-4.6.2-9.1.4-13.8.6 1.1 27.6 2.2 55.1 3.3 83.1h-15.7c-.2-4.9-.4-10.2-.6-15.4-.8-20.1-1.7-40.1-2.5-60.2-.3-6.8-.2-6.8-7-6.6-2.1-.1-4.3.1-7.2.2zm631.3 104.1c-5.4-.5-10.4-.9-15.7-1.3 2.3-27.5 4.5-54.9 6.8-82.7-4.6-.4-9-.8-13.7-1.2.4-5.2.8-10.3 1.2-15.6 14.4 1.2 28.7 2.4 43.2 3.6-.4 5.2-.8 10.2-1.3 15.6-4.5-.3-8.9-.6-13.8-1-2.1 27.3-4.4 54.8-6.7 82.6zm-895.7-85c-4.7.4-9.1.8-13.7 1.2-.5-5.2-.9-10.2-1.4-15.6 14.4-1.3 28.6-2.5 43.2-3.8.5 5.2.9 10.3 1.4 15.6-4.6.5-9.1.9-13.8 1.3 2.4 27.6 4.8 55 7.2 82.6-5.3.5-10.3.9-15.6 1.4-2.4-27.6-4.9-55-7.3-82.7z" id="STUDENT_GOVERNMENT"/><path class="st6" d="M681.8 706.1c-.4 10.4-.8 20.8-1.2 31.6-3-.2-5.9-.3-9-.5.7-19.3 1.4-38.3 2.1-57.3 3.5 0 6.7-.1 9.9.1.6 0 1.5 1.2 1.7 2 2.1 7.3 4.1 14.6 6.2 21.9.2.6.4 1.2 1.1 1.8.3-8.4.7-16.8 1-25.5 3 .2 5.8.3 8.3.4 0 6 .1 11.8 0 17.6-.3 12.5-.8 25-1.2 37.4-.1 1.9-.4 2.7-2.6 2.6-6.8-.2-6.8-.1-8.7-6.6-2.2-7.7-4.3-15.5-6.4-23.2-.2-.8-.5-1.6-.7-2.4-.2 0-.4 0-.5.1zm-190.1 2.7v19.5c0 4-2 6.1-5.9 6.2-4.5.2-9.1.3-13.6.4-3.6 0-6.2-2.5-6.2-6.1-.2-15.2-.4-30.4-.5-45.7 0-3.6 2.4-6.1 6.1-6.1 4.5-.1 9.1-.1 13.6-.1 3.6 0 5.9 2.3 6 5.9.1 8.6 0 17.3 0 25.9.2.1.3.1.5.1zm-17.1-22.6v13.7c0 7.9 0 15.7.2 23.6 0 .8.8 2.2 1.2 2.2 2.2 0 4.4-.3 6.7-.6.1 0 .1-.6.1-1l-.3-32.3v-5.6h-7.9zm189.2 6.9c-.4 12.5-.7 25-1.1 37.5-.1 3.7-2.4 6.1-6.1 6.1-4.5 0-9.1 0-13.6-.3-4-.2-6.3-2.7-6.2-6.7.4-15.1.9-30.3 1.4-45.4.1-3.2 2.6-5.7 5.8-5.7 5 0 9.9.2 14.9.5 2.8.2 4.9 2.4 5 5.2.1 2.9 0 5.9-.1 8.8zm-9.6 34.3c0-6-.1-11.8 0-17.6.1-6.5.4-13 .5-19.5 0-.8-.7-2.3-1.3-2.4-2.1-.3-4.2-.1-6.4-.1-.4 13.4-.7 26.4-1.1 39.6h8.3zm-71.3 7.8h-9.2c-.4-3.3-.8-6.4-1.3-9.9-2.8 0-5.4-.1-8 .1-.7.1-1.5 1.3-1.7 2.2-.5 2.4-.7 4.9-1 7.4h-9.6c2.7-19.2 5.4-38.3 8.1-57.4h16.2c2.1 19.2 4.3 38.3 6.5 57.6zm-11.5-19.1c-1.1-9.4-2.1-18.6-3.1-27.8h-.5c-1.2 9.2-2.4 18.4-3.6 27.7 2.5.1 4.7.1 7.2.1zm-191.7 20.8c-.4-2.6-.8-5-1.1-7.5-.2-1.4-.7-2.2-2.3-2.1-2.5.2-4.9.4-7.6.5-.3 3.2-.7 6.3-1 9.6-3.2.2-6.2.4-9.5.6.4-4.2.7-8.2 1-12.1 1.1-12.4 2.3-24.8 3.5-37.3.2-2.3.3-4.6.7-6.9.1-.7 1.1-1.7 1.8-1.8 4.3-.3 8.7-.5 13.1-.5.6 0 1.6 1 1.7 1.6 3 17.7 5.9 35.4 8.7 53.1.1.8 0 1.7 0 2.7-2.9.1-5.8.1-9 .1zm-2.9-18.5c-1.5-9.5-3-18.7-4.4-27.9h-.5c-.8 9.3-1.5 18.6-2.3 27.9h7.2zm43.2-25.2h-8.7c-.1-1.6-.3-3.4-.5-5.3-2.1 0-4.2-.1-6.3.1-.5 0-1.2 1-1.3 1.7-.1 1.9 0 3.8 0 5.6.1 2.4.3 4.8.5 7.1h9.7c4.8 0 7.1 2.2 7.2 7 .1 6.8.4 13.7.5 20.5.1 4-2 6.3-6 6.5-4.8.2-9.6.3-14.4.2-2.7 0-5-2.1-5.3-4.7-.3-3.2-.4-6.5-.6-10.1h9.1c.1 1.6.2 3.5.3 5.6h7.4v-15.6c-3.4 0-6.5-.1-9.6 0-4.8.2-7.4-2.2-7.5-7-.1-6.4-.4-12.8-.5-19.2-.1-4.3 2-6.4 6.3-6.6 4.4-.2 8.7-.3 13.1-.4 4-.1 6.2 2 6.5 6 .2 2.2.1 4.4.2 6.7.1.5 0 1-.1 1.9zm11 27.6h8.6c.1.6.2 1.2.2 1.8.1 4.5.2 4.6 4.7 4.1.9-.1 1.9-.2 3-.4v-15.5H438c-5.4 0-7.4-2-7.5-7.4-.1-6.3-.3-12.7-.4-19 0-4.4 2.1-6.3 6.5-6.4 4.2-.1 8.4-.3 12.6-.3 4.3 0 6.5 2 6.9 6.3v8.2h-9c0-1-.1-2 0-3.1.2-1.9-.6-2.5-2.4-2.3-1.8.2-3.5.2-5.3.3v14.5h10.2c4.5 0 6.5 1.8 6.7 6.2.3 7.3.4 14.5.5 21.8 0 3.4-2.4 5.8-5.8 5.9-4.3.2-8.5.3-12.8.4-4.7.1-7.1-2.3-7.1-7-.2-2.7-.1-5.3-.1-8.1zm96-26.5h-8.6v-7.9h-7.8v39.4h7.7v-7.9h8.8c0 4.2.2 8.5-.1 12.7-.2 2.7-2.8 4.4-5.8 4.5-4.6.1-9.2.1-13.9 0-3.5-.1-5.9-2.6-5.9-6.1-.1-15-.1-30-.1-44.9 0-4.4 2.4-6.8 6.8-6.9h12.3c4.2 0 6.6 2.3 6.6 6.5.1 3.2 0 6.3 0 9.5.2.2.1.5 0 1.1zm60.9-8.2v-8.6h25v9.1h-8c-.1 1.9-.2 3.6-.2 5.3-.2 13.7-.5 27.4-.6 41 0 1.9-.6 2.6-2.5 2.5-2-.2-4.1-.3-6.5-.4 0-3.7-.1-7.5 0-11.2l.6-33.3c.1-4 0-4-4-4.2-1.2-.1-2.4-.2-3.8-.2zm-42.5-8.9v57.6h-8.8c0-.8-.1-1.7-.1-2.6 0-17.4.1-34.9.1-52.3 0-2.1.6-2.9 2.8-2.7 1.9.1 3.9 0 6 0zm74.1 1.4h8.8c0 4.5.1 9 0 13.4-.3 13.7-.7 27.3-1 41-.1 3.4 0 3.4-3.3 3.2-1.8-.1-3.7 0-5.8 0 .4-19.5.8-38.5 1.3-57.6z" id="ASSOCIATION"/><path d="M360.1 503.1c-.5.8-.5 1-.6 1-4.6.6-4.9 3.8-4.7 7.5.5 9 .7 17.9 1.1 26.9.2 3.7 1.1 4.7 4.8 5.4.3.1.5.3.8.4 0 .3 0 .5-.1.8-6.9.3-13.7.6-20.6 1-.1-.2-.2-.4-.2-.6.8-.3 1.6-.8 2.4-1 1.9-.5 2.9-1.8 2.9-3.7v-14.9c-5.3 0-9.8-.1-14.3.1-.5 0-1.4 1.2-1.4 1.9.1 4.4.2 8.7.5 13.1.2 2.4 1.5 4 4.1 4.1.5 0 1 .3 1.5.4 0 .3 0 .6-.1.8-6.9.3-13.8.6-21.1 1 .4-.7.5-1 .7-1.1 4.8-1.7 4.9-1.7 4.7-6.7-.3-9.2-.7-18.5-1.1-27.7-.2-3.7-.9-4.5-4.5-5.5-.4-.1-.7-.3-1.1-.4 0-.3 0-.5.1-.8 6.8-.3 13.6-.6 20.5-.8.1.2.1.4.2.7-.4.3-.9.6-1.3.8-3.2.9-3.8 1.6-3.7 4.8.1 4.2.2 8.5.4 12.4 5 0 9.5 0 14-.1.4 0 1.2-1 1.2-1.5-.1-4.2-.1-8.4-.7-12.5-.2-1.2-1.9-2.3-3.1-3.3-.6-.5-1.5-.4-2.3-.6v-.8c6.9-.5 13.7-.8 21-1.1zM41.6 528.3c5.9-.7 11.7-1.4 17.6-2.1.1.2.1.4.2.6-.3.3-.6.8-1 .9-2.6.6-2.9 2.4-2 4.3 3.3 7.1 6.8 14.1 10.9 21.2.3-1 .7-1.9.9-2.9 1.1-4.3 2.1-8.6 3.2-12.9 1.3-5-1.5-9.5-6.5-10.6-.3-.1-.5-.4-1.3-1 6.9-.8 13.2-1.6 19.5-2.4.1.3.2.6.2.9-.7.3-1.3.6-2 .8-1.8.6-2.5 1.6-1.6 3.5 3.3 6.9 6.7 13.8 10 20.7h.7c.5-1.9 1-3.8 1.4-5.7 1-4.8 1.9-9.7 2.8-14.5.8-3.9.3-4.6-3.8-5.4-.3-.1-.5-.4-1.3-1.1 4.2-.5 7.7-.9 11.8-1.4-.5.9-.7 1.2-.9 1.5-1 1.6-2.6 3-3 4.8-2.7 12.7-5.2 25.4-7.8 38.1 0 .2-.1.5-.5 1.5-.9-1.1-1.6-1.7-2-2.5l-11.7-23.4c-.4-.9-1-1.7-1.8-3.3-1.3 5-2.4 9.2-3.5 13.4-1.4 5.4-2.7 10.7-4.1 16.1-.2.7-.9 1.3-1.4 1.9-.5-.5-1.1-1-1.4-1.6-5.4-10.9-10.7-21.8-16.1-32.6-1.2-2.5-2-5.4-5.8-5.6.1-.5.2-.8.3-1.2zm499.1 12.8c6.3-.2 6-4.5 6-8.6v-22.6c0-6.5 0-6.5-6-9.5 1.4-.1 2.1-.3 2.9-.3 7.2 0 14.4.1 21.6.2 2 .1 4.1.5 6 1 4.9 1.5 7.5 4.5 7.7 8.5.3 5.2-1.7 8.5-6.6 10.7-1 .5-2 .8-3.5 1.4 5.3 6.8 9.6 14 15.5 20.3-4.1 0-8.3.1-12.4-.1-.6 0-1.3-1-1.8-1.7-4.3-5.8-8.5-11.5-13.4-17.2v12.3c0 3.7.7 4.6 4.4 5.4.3.1.5.2.7.9h-20.6c-.1-.2-.3-.5-.5-.7zm16.1-19.9c2.7-.5 4.9-.8 7.1-1.3 2.6-.6 4-2.5 4.2-4.9.3-2.4.4-5 0-7.4-.7-4.3-4.8-6.9-9-5.5-1 .3-2.2 1.6-2.3 2.5-.1 5.3 0 10.6 0 16.6zm321.4 33c-3.8-.2-7.7-.4-11.7-.8-.6-.1-1.3-1-1.7-1.7-3.5-5.4-6.9-10.8-10.4-16.2-.4-.7-1-1.4-2-2-.3 4.6-.7 9.2-.8 13.8 0 1.9 1 3.4 3.1 3.8.7.1 1.3.5 1.9.8-.1.3-.1.5-.2.8-6.9-.5-13.8-.9-21.1-1.4.5-.7.6-1.1.8-1.1 4.7-.9 5.2-1.3 5.6-6.3.5-6 .8-11.9 1.2-17.9.2-3.2.4-6.5.5-9.7.1-4.1-.1-4.3-4-5.6-.4-.1-.7-.4-.9-1.2 1.8 0 3.6-.1 5.4 0 6.4.5 12.8.9 19.1 1.6 2.4.3 4.8 1.2 7 2.2 3.5 1.6 5.4 4.5 5.4 8.3 0 3.9-1.6 7.2-5.2 9-1.7.9-3.4 1.4-5.7 2.3 4.5 7.1 9 14 13.7 21.3zm-13.1-33c-.1-4.8-1.8-7.9-5.4-8.6-5.1-.9-6.3-.2-6.3 4.6-.1 3.7-.3 7.3-.7 11-.3 2.2.2 3.3 2.6 2.9.9-.1 1.9 0 2.8-.1 3.1-.4 5.6-1.7 6.3-5 .3-1.6.4-3.2.7-4.8zm-333.6-20.5v11.7c-.2 0-.4.1-.6.1-.3-.6-.7-1.2-.8-1.9-1.3-5.7-5.3-8-10.8-8.5-7.7-.7-8.2-.2-8.2 7.4 0 2.9.1 5.8 0 8.7-.1 1.8.7 2.1 2.4 2 4.3-.4 6.7-2.6 7.7-6.7.2-.8.6-1.6.9-2.5.2 0 .5.1.7.1v20.2c-.2 0-.4.1-.7.1-.3-1.2-.6-2.3-.9-3.5-1.2-4.1-4.3-6.3-8.4-6-.5 0-1.4.9-1.4 1.5-.1 4.6-.1 9.2 0 13.9 0 2.5 1.7 3.4 3.9 3.5 7.6.4 13.8-1.8 17.5-9.1.4-.8.9-1.5 1.8-2.9.2 1.2.4 1.8.3 2.2-.6 3.2-1.2 6.4-2 9.5-.2.7-1.1 1.6-1.7 1.6-11.5.2-22.9.2-34.4.3-.2 0-.4-.2-1.3-.7 1.2-.3 1.8-.5 2.4-.7 2.3-.5 3.6-1.9 3.6-4.3 0-8.6-.1-17.1-.1-25.7 0-1.5-.1-2.9-.1-4.4 0-3.5-.5-4.2-4-5.1-.5-.1-1.1-.3-1.5-1.1 11.6.3 23.5.3 35.7.3zm-423.6 19.8c11.7-1.2 23.5-2.4 35.6-3.6.4 4.3.8 8.2 1.2 12.2-.2.1-.5.1-.7.2-.3-.3-.7-.6-.8-1-3.1-8.3-6.9-8.9-16-8-3.5.3-3.9 1-3.6 4.5.3 4.5.9 9 1.4 13.5 7.4.7 9-4.4 9.9-10 .3.1.6.2 1 .3l2.1 20.1c-.3.1-.6.2-.8.3-.5-1-1-1.9-1.4-2.9-1.7-4.4-4.6-6.2-8.8-5.9-1.3.1-1.8.6-1.7 1.9.5 4.5.9 9 1.4 13.5.2 2.2 1.4 3.4 3.8 3.3 9.7-.3 14-3.9 17-10.8.3-.7.7-1.4 1-2.1.2 0 .5.1.7.1 0 .8.2 1.6.1 2.3-.3 3.1-.6 6.1-1 9.2-.1.6-.8 1.4-1.2 1.5-11.5 1.2-23 2.3-34.4 3.3-.1 0-.3-.2-.9-.5.9-.4 1.4-.7 2-.9 2.4-.6 3.3-2.3 3.1-4.6-.9-9.9-1.9-19.7-2.8-29.6-.3-3.7-2.4-5.4-6.4-5.1-.1-.4.1-.8.2-1.2zm566.7-8.6c-.2 5.4-.4 10.7-.6 16.1-.1 2.9-.2 5.8-.2 8.7-.1 3.6.8 4.8 4.2 6.1l1.8.9h-14.2c0-.2-.1-.5-.1-.7.4-.2.8-.4 1.2-.5 3.2-.5 4.3-1.7 4.4-4.9.3-9.2.6-18.5 1-27.7.2-3-2-4.3-3.5-6.2-.4-.5-1-.8-1.8-1.4.7-.3 1.1-.6 1.5-.6 3.6 0 7.2 0 10.8.3.8.1 1.8.9 2.3 1.6 5.7 7.4 11.4 14.8 17 22.2.7.9 1.5 1.8 2.2 2.7.4-.2.6-.3.6-.4.2-6.2.6-12.5.6-18.7 0-2.7-1.1-4.8-4.1-5.4-.5-.1-1-.5-2-1.1h13.7c0 .2.1.4.1.7-.3.2-.6.5-.9.6-3.9 1.5-4.1 1.9-4.3 6.2-.3 11.4-.7 22.7-1 34.1 0 .6-.1 1.1-.6 1.9-5.1-5.4-9.3-11.4-13.8-17.1-4.6-5.8-9-11.8-13.6-17.6-.2 0-.4.1-.7.2zm115.9 36c.5-.1.9-.2 1.4-.3 2.9-.3 3.9-1.3 4.2-4.2.3-4.2.6-8.4.9-12.5.4-6 .7-12 1-17.9.1-2.3-.8-4-3.2-4.6-.6-.2-1.2-.4-1.7-1.3 2.5 0 5-.1 7.5 0 8.5.4 16.9 1.1 25.4 1.4 2.4.1 3 .8 2.8 3-.3 3.2-.5 6.4-.8 9.5-.2.1-.5.1-.7.2-.3-.7-.7-1.3-.9-2-1.4-6.1-4-8.5-10.3-9.3-1.7-.2-3.4-.3-5.1-.3-2.1-.1-3.2 1-3.3 3.1-.2 4.3-.4 8.5-.6 12.8-.1 1.6.5 2.1 2.1 2.1 4 0 6.3-1.6 8-5.6.4-1.1.9-2.1 1.4-3.2.3.1.6.2.9.2-.4 6.7-.7 13.4-1.1 20.1-.3.1-.5.1-.8.2-.3-.8-.7-1.6-.9-2.5-.9-5.3-4.1-7.7-9.9-7.3-.2 5.4-.5 10.8-.5 16.3 0 .8 1.6 2.1 2.6 2.2 8.6 1.4 14.4-.7 18.9-8 .4-.6.8-1.2 1.7-2.3.1 1.3.4 1.8.2 2.3-.8 3.1-1.7 6.1-2.4 9.2-.3 1.5-1.1 1.9-2.5 1.8-6.6-.4-13.1-.7-19.7-1.1-4.2-.3-8.4-.6-12.5-.9l-2.1-.3v-.8zm-388.5-46c.2 4.3.4 8.3.6 12.4-.3.1-.5.2-.8.3-.4-.7-.9-1.4-1.1-2.1-2.1-6.1-4.9-8.1-11.4-8.2-7.9-.1-7.9-.1-7.8 7.8.1 3.3 0 6.6 0 10 7.5 1 9.7-3.5 11-9.2.4.1.7.3 1.1.4v20.4c-.4-.7-.8-1.4-1-2.1-1.5-5.8-4.1-7.7-10.2-7.2v11.9c0 .6.1 1.2.1 1.8.1 4.2.8 4.9 5 4.9 7.4-.1 13.1-2.8 16.3-9.8.3-.7.8-1.3 1.2-2 .3.1.6.2.8.3-.4 3-.8 6.1-1.4 9.1-.7 3.7-.7 3.6-4.6 3.8-10 .3-20 .7-30 1-.8 0-1.6-.1-2.4-.1 0-.2-.1-.5-.1-.7.7-.3 1.4-.6 2.1-.8 2.3-.5 3.2-2 3.2-4.3-.3-9.9-.5-19.8-.8-29.8-.1-3.9-.9-4.5-4.8-5.4-.4-.1-.7-.2-1.1-.4v-.8c12-.4 23.9-.8 36.1-1.2zm244.6-.3h14.6c-.8.7-1 1.1-1.3 1.2-3.9.6-4.1 3.5-4.2 6.5-.1 6.1 0 12.2-.3 18.2-.1 2.9-.6 5.8-1.5 8.5-1.8 5.2-5.9 8-11.3 8.1-3.5.1-7.2-.1-10.6-.9-5.8-1.5-9.1-6.1-9.2-12.1 0-6.7.3-13.3.3-20 0-4 1.5-8.8-4.7-10.1h20.5c0 .3.1.5.1.8-.7.2-1.5.3-2.2.5-3 .7-3.9 1.7-4 4.8-.2 7.8-.4 15.6-.5 23.3-.1 7.4 3.1 11.3 9.1 11.5 6.4.1 10.8-4.2 11.1-11.2.3-7.3.4-14.7.5-22.1.1-3.9-.8-5-4.8-6-.3-.2-.6-.5-1.6-1zm-465.1 11.7c.4 4.3.8 8.5 1.2 12.8l-.6.3c-.5-.5-1-1-1.4-1.6-1.7-2.1-3.1-4.5-5-6.4-2.6-2.5-5.9-3-9.3-2-2.7.7-4.3 2.6-4.6 5.3-.2 2.6.7 4.9 3.3 6.1 4 1.8 8 3.4 12 5.1 4.6 2 7.9 4.8 8.8 10.1.9 5.1-2.3 12.2-8.9 14.1-4.4 1.3-8.7 1.4-13.1.3-1.6-.4-3.4-.9-4.4 1.2-.1.1-1.6-.1-1.6-.3-.5-4.7-.8-9.4-1.2-14.2l.9-.3c.5.8 1 1.6 1.4 2.5 1.8 4.4 4.2 8.4 9.2 9.5 2.2.5 4.8.3 7-.3 2.6-.7 3.8-3 4.1-5.7.3-2.8-.9-5.1-3.4-6.3-3.7-1.8-7.5-3.2-11.3-4.9-3.6-1.7-7-3.7-8.4-7.8-2.8-8.2 2.9-16.3 11.8-16.6 2.2-.1 4.4.2 6.6.5 2.1.3 4.4 1.5 5.6-1.5.1 0 .8.1 1.3.1zm233 16.1c.4.8.9 1.6 1.2 2.4 1.7 4.8 4.1 8.9 9.4 10.3 4.2 1.2 8.1-.3 9.8-3.5 1.7-3.3.9-6.8-2.3-8.7-2.5-1.5-5.3-2.7-7.9-4.2-2.2-1.2-4.5-2.4-6.6-3.9-4.3-3.2-5.6-8.2-3.9-13.3 1.7-5.2 5.7-8.3 11.1-8.3 2.5 0 5.1.2 7.6.8 2.5.6 4.9 1.9 6.6-1.7.2.2.4.3.6.5v13.4c-.2 0-.3.1-.5.1-.5-1-.9-2.1-1.4-3.1-2.9-6.2-7.7-9.2-13-8.2-2.6.5-4.3 2.1-5 4.6-.7 2.6.3 5.2 2.7 6.6 3 1.8 6.2 3.3 9.3 4.9 1.3.7 2.6 1.2 3.9 1.9 5.3 3.1 7.6 7.7 6.6 13.6-.9 5.1-5.2 9.1-10.9 10.2-4.1.8-8 .5-11.9-.9-1.6-.6-3.3-1.3-4.5.9-.1.1-1.6-.3-1.7-.5-.1-4.6-.1-9.1-.1-13.7.4-.1.7-.1.9-.2zm470.6 26.1c.8-5.1.3-10.2 1.6-15.1h.9c.5 1.8.9 3.6 1.4 5.3 2 6.3 6.7 9.6 12.8 9.1 2.8-.2 4.6-1.8 5.6-4.3 1-2.6.8-5.1-1.4-7.1-1.5-1.4-3.3-2.4-5-3.6-2.8-1.9-5.8-3.6-8.5-5.7-4.4-3.5-5.7-8.2-3.9-13.3 1.9-5.4 5.6-8.3 11.3-8.3 2.4 0 4.7.5 7.1 1 2.8.6 5.5 3.4 8.4-.3.2.2.3.4.5.6l-.9 12.9c-.3.1-.5.1-.8.2-.3-.5-.5-1-.8-1.6-1.3-2.5-2.4-5.3-4.1-7.6-2-2.7-5-3.7-8.4-3.4-2.7.2-4.8 1.6-5.6 4.2-.8 2.6-.3 5.2 2.1 6.8 3.5 2.4 7 4.6 10.6 6.8 4.9 3 8 6.9 7.4 13-.6 6-5.4 10.9-11.4 11.4-4.1.4-8.2.1-12-1.7-1.9-.9-3.8-1.8-5.4.6-.3.2-.9.1-1.5.1zm134.7-30.6c-.5.1-1 .2-1.5.2-3.9-.1-4.6.8-3.1 4.5 1.5 3.7 3.1 7.4 4.7 11.1.6 1.5 1.2 2.9 2.2 5.3 3.8-5.5 7.4-10.4 10.6-15.4 1.2-1.9.2-3.3-2-4.1-.8-.2-1.5-.4-2.3-.7 0-.3.1-.6.1-1 4.3.4 8.6.8 13.4 1.3-8.4 5.3-12.1 14-18 20.6-.6.6-.9 1.7-1 2.5-.4 3.6-.8 7.3-1 11-.2 3.6.3 4.2 3.8 5.4.4.1.8.5 1.2.7-.1.2-.1.5-.2.7-7-.7-13.9-1.4-21.1-2.1.4-.6.4-.9.5-.9 5-1.1 5-1.1 5.9-6.4.8-4.9 1.1-9.7-1.5-14.4-2.2-3.9-3.6-8.3-5.3-12.5-1.4-3.2-2.2-6.9-6.4-8.1l.3-.9c6.9.7 13.7 1.4 20.6 2.1.1.4.1.8.1 1.1zm-30.1 8.6c-.3-.6-.7-1.1-.8-1.7-.9-6.2-3.4-8.8-9.2-10-1.6-.3-2.2.2-2.3 1.7l-1.5 17.1c-.4 4.6-.7 9.2-1.1 13.8-.4 4.8-.1 5.2 4.5 6.6.2.1.4.3.6.4-.1.3-.1.6-.2.9-7.2-.6-14.4-1.3-21.6-1.9v-.7c.5-.1 1-.4 1.5-.4 3.7-.3 4.7-1.1 5.1-4.7.9-9.2 1.7-18.4 2.6-27.5.2-2 .4-4 .6-6.2-3.4-.7-6.6-.5-8.9 1.7-2.1 2-3.5 4.7-5.3 7.3-.1-.6-.3-1.1-.3-1.6l.6-8.4c.1-1.6.8-2.2 2.5-2 11.1 1.1 22.3 2.1 33.4 3.1.5 0 1 .3 1.6.4-.3 4-.7 8-1 11.9-.3 0-.6.1-.8.2zm-765.1 19.2c-7.1.5-14.3 1-21.4 1.5 0-.2-.1-.5-.1-.7.5-.2.9-.5 1.5-.7 3.5-.9 4.3-1.7 4.1-5.4-.5-8.5-1.2-17-1.8-25.6-.2-2.7-.4-5.4-.7-8.2-7.6.2-11.2 4.2-11.9 11.5-.4-.1-.7-.3-1.1-.4-.3-3.9-.7-7.9-1-12 12.5-.9 24.7-1.8 37.3-2.8.4 4.1.7 8 1 12-.3.1-.6.2-1 .3-.4-.8-.9-1.6-1.2-2.5-2.1-5.6-6.4-8-12.3-6.7.3 4.3.5 8.6.8 12.9.4 6 .9 12.1 1.4 18.1.1 1 .3 2 .4 3 .2 2.6 1.6 4 4.3 4.2.6 0 1.2.2 1.9.4-.2.5-.2.8-.2 1.1zm240.7-49.8c-6.5-.9-11.1 2.5-12.3 8.7-.1.6-.6 1.2-.9 1.7-.3-.6-.8-1.2-.8-1.8-.1-3.5 0-7 0-10.8h14.8c6.7 0 13.4-.1 20-.2 1.9 0 2.6.6 2.5 2.5-.1 2.6.1 5.1.1 7.7 0 .7-.3 1.4-.4 2.1-.2 0-.5 0-.7-.1-.4-1.2-.7-2.4-1.1-3.5-1.7-4.7-5.4-7.2-10.3-6.8-.5 0-1.4 1-1.4 1.5.1 10.8.2 21.6.4 32.4.1 3.5 1.3 4.6 4.8 5.1.4.1.8.3 1.3.4 0 .2 0 .4-.1.7h-21.6c-.1-.1-.1-.2-.2-.3.7-.2 1.4-.6 2.1-.6 2.9-.3 4.1-2.1 4.1-4.7 0-7.4-.2-14.9-.2-22.3-.1-3.9-.1-7.8-.1-11.7zm-158.4 37c-4.9 8-14.2 11.6-23.8 9.4-8.9-2.1-15-9.1-16-18.1-1.2-11.2 3.3-19.8 12.4-23.8 5-2.2 10.2-2.5 15.5-1 5.3 1.5 5.3 1.5 9.2-2.1.3 5 .5 9.6.8 14.3-.3.1-.5.2-.8.3-.5-.6-1.1-1.3-1.6-1.9-2-2.3-3.7-5-6-7-5.3-4.7-15.8-4.2-18 5.9-1.6 7.1-1.5 14.1.4 21 3.8 13.6 15.9 11.7 22.6 5.7 1-.9 1.9-2 2.9-2.9.5-.4 1.4-.4 2.1-.6.2.2.2.5.3.8zm437.5-35.2c6.7.3 13.4.6 20 .8 0 .3 0 .5.1.8-.6.1-1.1.3-1.7.4-3.6.4-4.3 1.5-3 5 2.3 6.3 4.6 12.7 7 19 .5 1.3 1 2.5 1.5 3.8.3-.2.5-.2.6-.3 3.3-7.3 6.6-14.6 9.7-22 1.2-2.8.5-3.7-2.5-4.5-.7-.2-1.4-.5-2-1.2h13c-.6.8-.8 1.3-1.1 1.4-2.9.7-4.2 3-5.3 5.5-4.9 11.2-9.9 22.4-14.8 33.5-.4.8-1.2 1.5-1.8 2.2-.5-.7-1.2-1.4-1.5-2.2-4-10.6-7.9-21.3-12-31.9-1.4-3.6-1.9-7.9-6.6-9.4.1-.4.3-.6.4-.9zm-30 40.2c.5-.1 1-.3 1.5-.4 3.2-.4 4.4-1.5 4.6-4.7.4-9.6.8-19.3 1.1-28.9.1-4.3-.2-4.7-4.3-5.9-.4-.1-.8-.3-1.1-.5 0-.3 0-.5.1-.8 7.2.3 14.3.5 21.5.8 0 .3.1.6.1.9-.6.1-1.3.2-1.9.3-2.7.4-4 1.5-4.2 4.3-.4 10.3-.8 20.7-1.1 31-.1 2.2 1 3.5 3.2 4 .8.2 1.5.5 2.3.7 0 .3-.1.5-.1.8-7.2-.3-14.3-.5-21.5-.8-.2-.2-.2-.5-.2-.8zm229.1 14.5c-7.4-.6-14.4-1.2-21.4-1.8 0-.3 0-.6-.1-.9.6-.1 1.2-.3 1.8-.3 2.7-.2 4-1.3 4.3-3.8.6-5.8 1-11.6 1.5-17.3.3-3.9.7-7.8 1-11.7.4-4.5-.2-5.3-4.5-6.5-.2-.1-.4-.3-.5-.4 0-.3.1-.5.1-.8 7.1.6 14.1 1.1 21.2 1.7v.7c-.3.2-.5.4-.8.4-4.9.8-5 .8-5.6 5.6-.8 7.3-1.3 14.6-1.9 21.9-.2 2.2-.4 4.4-.5 6.6-.1 3.6.3 4.2 3.8 5.3.3.1.6.2.9.4.2-.1.3.2.7.9z" opacity=".8" fill="#fff" id="WEST_CHESTER_UNIVERSITY"/><path class="st5" d="M451.1 813.3c-.7 3.6-1.4 7-2 10.5-.2 1.3-.8 1.9-2.2 1.9-10.4-.1-20.9 0-31.3-.1-.6 0-1.1-.5-1.7-.7.5-.4.9-1.2 1.5-1.2 2.9-.4 3.7-2.3 3.7-4.9v-26.2c0-3.7-.3-4-3.8-5.2-.5-.2-.9-.8-1.3-1.2.4-.3.9-.8 1.3-.8H448v11.9c-.2.1-.4.3-.7.4-.5-.6-1.3-1.2-1.5-1.9-1.7-7.7-7.7-8.3-15-7.7-.6.1-1.6 1.2-1.6 1.8-.1 4.3-.1 8.7-.1 13 4 .7 6.6-.7 7.9-4.1.2-.6.3-1.4.6-1.9.4-.6 1-1.1 1.5-1.7.3.6.8 1.3.8 1.9.1 5.1.1 10.3 0 15.4 0 .6-.5 1.3-.7 1.9-.5-.6-1.3-1-1.5-1.7-1.5-4.6-3-6.1-6.9-6.2-.6 0-1.6.9-1.6 1.4-.1 4.2 0 8.4-.1 12.6 0 2.5 1.8 2.7 3.5 2.8 6.8.3 12.3-1.8 15.5-8.3.8-1.9.9-1.8 3-1.7zm184.9-6.9c-1.7-1.6-3.5-2.9-4.8-4.5-2.6-3-3.3-6.6-1.8-10.3 1.8-4.3 5.5-6.2 9.9-6.7 2.5-.3 5.2-.1 7.6.4 4.2.9 6.6 3.7 7.1 7.5.4 3.2-1.6 6.2-5.6 8.1-.5.3-1.1.5-1.8.9 1.4 1.1 2.6 2.1 3.8 3.2 4.2 3.7 5.4 8.3 3.6 13.5-1.6 4.9-5.8 7-10.6 7.7-3.4.5-6.8.2-10-1.5-3.4-1.8-5.3-4.3-5.4-8.3 0-4 1.7-6.9 5.2-8.7 1-.5 1.8-.8 2.8-1.3zm2.4 1.6c-2.9 4-3.6 8.2-1.8 12.7.9 2.2 2.7 3.4 5.1 3 2.4-.4 3.7-1.9 4-4.4.7-5.1-1.2-8.1-7.3-11.3zm5.6-7.8c2.7-3 2.7-6.4 1.6-9.9-.8-2.6-3.1-3.7-5.7-2.8-2.3.8-3.5 3-2.9 5.5 1 3.7 4 5.5 7 7.2zm-26.7 1.5c1.4 1.2 2.7 2.1 3.8 3.1 4.2 3.7 5.4 8.3 3.7 13.4-1.6 5-5.7 7.1-10.6 7.8-3.5.5-7 .2-10.2-1.5-3.3-1.8-5.2-4.3-5.2-8.2 0-3.9 1.5-6.8 4.9-8.6 1-.5 2-1 3.1-1.5-.9-.7-1.7-1.3-2.5-2-3.8-3-5.9-6.8-4.5-11.6 1.4-5 5.4-7.1 10.2-7.8 2.4-.3 5-.2 7.4.3 4.5.9 7.1 3.9 7.4 7.7.3 3.2-1.8 6.1-5.8 8-.5.4-1 .6-1.7.9zm-8.2 6.3c-3 4.1-3.6 8.4-1.6 12.9.9 2.1 2.8 3.1 5 2.7 2.2-.4 3.6-1.8 3.9-4.2.8-5.1-1.3-8.4-7.3-11.4zm5.6-7.8c2.7-3 2.7-6.4 1.6-9.9-.8-2.6-3.2-3.7-5.7-2.8-2.3.8-3.5 3-2.8 5.5 1 3.7 3.9 5.5 6.9 7.2zm-160.2 26.7v-14.5c.2-.2.4-.4.5-.6.6.5 1.4 1 1.8 1.6 1.6 2.7 2.7 5.7 4.7 8 2.3 2.7 5.7 3.2 9.2 2.4 2.7-.6 4-2.5 4.6-5 .5-2.3-.6-4.2-2.5-5.5-1.9-1.2-4.1-2.2-6.1-3.3-2.5-1.4-5-2.6-7.3-4.2-4.4-3.1-5.8-7.9-4.2-12.9 1.7-5.3 5.7-8.4 11.1-8.2 3 .1 6 .9 9 1.4 1.3.2 2.6 1 3.5-.8.2-.4 1.1-.6 1.5-.5.4.1.8.8.8 1.3.1 3.4.1 6.9 0 10.3 0 .5-.7.9-1.1 1.4-.5-.4-1.1-.7-1.4-1.2-1.5-2.3-2.6-4.8-4.4-6.8-2.2-2.4-5.2-3.2-8.5-2.3-2.1.6-3.6 1.8-4 3.9-.4 2.3.1 4.4 2.2 5.6 3.7 2 7.4 3.9 11.1 5.8 4.2 2.2 7.3 5.2 7.7 10.1.5 7.4-4.8 13.4-12.3 13.6-3.5.1-7.1-.8-10.6-1.3-1.3-.2-2.6-1.1-3.5.8.2.5-.8.6-1.8.9zm115.1-.5c-.9-2.5.3-2.8 1.8-3.2 6.4-1.7 10.8-5.7 12.9-12 .1-.4.2-.8.3-1.4-1 .2-1.8.3-2.6.4-7.8.7-12.3-3-13-11-.4-5.5 1.5-10.1 6.5-12.9 4.5-2.6 10.4-2.2 14.5 1 3.5 2.8 5.3 6.7 5.7 11.1 1 13.4-5.9 23.1-18.9 26.6-2.4.7-4.8 1-7.2 1.4zm16.6-26.9c.1 0 .1 0 .2-.1-.5-3.3-.8-6.6-1.6-9.8-.3-1-1.9-2.3-2.9-2.3s-2.6 1.2-2.9 2.2c-1.5 5.1-1.1 10.3.8 15.3.2.6.8 1.1 1.3 1.6 2.1 1.6 4.4.8 4.7-1.9.2-1.6.3-3.3.4-5zm-76.4-11.6v31.9c0 2.7 1.6 3.7 4.1 4 .6.1 1 .7 1.6 1.1-.6.2-1.1.7-1.7.7-6 .1-12 .1-18 0-.6 0-1.1-.5-1.7-.7.5-.4 1-1 1.5-1.1 3.5-.8 4.1-1.4 4.1-5v-28.5c0-.7-.1-1.5-.1-2.2-5.7-.4-9.2 2.2-10.4 7.4-.2.7-1 1.3-1.5 1.9-.3-.7-.9-1.4-.9-2-.1-3 0-6 .1-9 0-.2.1-.5.2-.9h35.4c.2 3.5.4 6.9.4 10.2 0 .6-.7 1.1-1.1 1.7-.5-.5-1.2-.8-1.5-1.4-.8-1.6-1.2-3.4-2.1-4.9-1.8-2.8-4.9-3.2-8.4-3.2zm54.8 37.5h-22.3c0-.2-.1-.5-.1-.7 1.1-.2 2.1-.6 3.2-.7 2.5-.2 3.7-1.8 3.7-4.1.1-8.7.1-17.4 0-26.2 0-2.3-1-3-3.4-2.5-1.2.2-2.4.6-3.8 1 1.1-2.2 13.7-7.5 16.6-7.2v32.2c0 5.8 0 5.8 5.5 7.1.2 0 .4.3.6.4v.7z" id="EST_1998"/><g id="RAM"><path class="st5" d="M405.8 284.8l136.5 4.7 41.7 83.4-7.6 108.1-187.7-.9z"/><path class="st6" d="M759.8 365.7c3-1.9 5.5-3.3 7.8-5 25.7-18.6 51.4-37.3 77-56 7.1-5.2 14.5-9.3 23.4-10.3 4.5-.5 8.9-.1 13.1 1.5 7.2 2.8 10.6 10.2 8.6 18.4-1.3 5.7-4.1 10.5-8.2 14.6-3.7 3.8-7.5 7.6-11.5 11-10.1 8.6-18.3 18.9-27 28.9-15.2 17.5-26.6 37.7-39.7 56.7-8.1 11.8-16 23.7-26 34-8.4 8.6-17.9 15-30.2 16.5-14.7 1.8-28.9 0-42.1-7-9.7-5.1-19-10.8-28.2-16.7-5.6-3.5-9-9.2-11.6-15.1-3.9-8.8-7.8-17.7-10.5-26.9-2.1-7.1-2.4-14.7-3.3-22-1.5-12.2-3.1-24.4-4.4-36.7-.9-8.2-1.4-16.5-2.3-24.8-1.2-11.6-2.5-23.1-3.8-34.7-.6-5.2-1.2-10.4-1.8-15.5-.1-.6-.2-1.3-.4-2.2-2.2 3.8-4.1 7.5-6.4 10.8-2.5 3.6-5.5 6.7-8.2 10.2-.8 1-1.5 2.5-1.5 3.8-.4 7.8.1 15.7-1.1 23.3-1.6 9.9-4.4 19.6-6.9 29.4-.5 2-.5 3.7 0 5.7 6.6 23.4 13.2 46.8 19.6 70.2.5 1.8 1.4 2.9 2.9 4 21.1 15.1 42.1 30.3 63.1 45.4.4.3.7.6 1 .8-58.3-.9-116.6-1.7-175.4-2.6-4.6-25.8-2.6-52 .3-78.7 6.7 4.4 12.9 8.4 18.7 12.2-1.7-15.3-3.9-30.8-5.1-46.3-1.2-15.6 1.5-31 5.9-46.5-8.4 3.8-16.3 7.5-24.3 11.1-.1-.2-.3-.3-.4-.5 4.3-7.4 8.5-14.7 13-22.4-4.1.4-7.8.8-11.6 1.1-10.1.8-20.1 1.8-30.2 2.4-10.5.6-21 .9-31.5.9-6 0-12.1-.8-18.1-1.5-8.5-1-13.9-6.9-19.1-12.9-1.7-1.9-2.9-4.2-4.7-6.7-1.3 5.5-2.7 10.7-3.8 15.9-3.5 17.5-5.8 35.1-6 52.9-.3 23.8 7.6 44.9 23.2 63 .3.4.6.9.8 1.3l.6-.3v-16c.4.2.7.2.7.3 4.5 13.5 13.3 24.2 23 34.2 12.6 13 26.7 24.3 41.3 34.9.7.5 1.4 1.1 2.5 1.9-42.9.9-85.3 1.8-128.4 2.7 2.1-25.1 4.2-50.1 6.4-75.6-.5 1-.9 1.8-1.3 2.5-3.7 6.7-7.1 13.6-11.2 20.1-5.5 8.6-14 13.5-23.4 16.5-29.6 9.7-57.8 6.4-84.6-9.5-9.8-5.8-19-12.3-26.8-20.5-7.6-7.9-12-17.8-15.8-27.9-7-18.1-11.2-36.9-14.9-55.8-3.6-19.1-5.8-38.4-5.2-57.9.6-17.6 2.8-34.9 6.3-52.1 3.2-15.8 6.7-31.6 12.5-46.7 10.3-26.5 25.3-49.9 45.1-70.3 23.9-24.7 52.8-40.6 86-48.9 18.2-4.6 36.8-5.4 55.6-4.1 28.4 2 55.4 9.9 81.6 20.4 12.2 4.8 22.4 13.2 32.8 20.9 6.2 4.6 12.3 9.3 18.3 14.1 1.6 1.3 2.8 1.4 4.7.3 12.9-7.4 25.9-14.7 38.9-21.8 8-4.4 16.9-6.3 25.9-7.8 11.1-1.9 22.3-4 33.6-3.2 8.9.6 17.8 2.4 26.6 4 13.8 2.6 27.6 5.4 41.4 8.4 10 2.2 18 8.1 25.2 15 9.1 8.6 14.5 19.6 19.4 30.8 6 13.7 9.4 28.2 10.8 43 1.8 18.4 3.6 36.8 4.4 55.2.7 16 .1 32-.2 48-.2 10.8-.5 21.6-1.1 32.3-.7 12.7-1.9 25.4-2.9 38.1 0 6.5-.4 12.8-.9 19.8zM678.7 86.8l-10.5-2.1c-8.7-1.6-17.4-3.5-26.2-4.5-5.6-.7-11.5-.3-17.2.1-8.5.6-17 1.2-25.3 3.8-18.1 5.6-34.4 14.5-49.5 25.9l-3.6 2.7c8.9 11.1 17.6 21.9 26.3 32.7l-.6.9c-1.4-.5-3-.8-4.2-1.6-1.9-1.3-3.4-3.2-5.1-4.6-20-16.5-40.6-32.2-62.5-46.2-15.1-9.6-30.3-18.7-47.6-24-19.6-6-39.4-9.9-59.8-11.2-19.4-1.2-38.2 1.7-56.6 7.4-13.3 4.2-26.7 8.1-38.4 16-21.2 14.3-39.9 31.2-54.2 52.6-8 12-15.8 24.1-20.6 37.7-6.4 18.3-9.3 37.5-11.2 56.7-1.6 15.6-2.6 31.2-3.5 46.8-.4 7.4-.1 14.8-.1 22.2 1.1-4.4 2-8.8 2.9-13.2 8.3-39.3 21.2-77 40.2-112.5 10.8-20.2 22.7-39.4 40.4-54.5 12.8-11 26-21 43.3-24.3 16-3.1 31.8-5.6 47.9-1.2 12 3.2 22.9 8.1 31.2 17.7 6.2 7.2 12.5 14.4 18.6 21.6 1.2 1.4 2.4 2.1 4.3 2 5.8-.1 11.6-.1 17.5 0 .6 0 1.2.1 1.8.2-.8.8-1.6 1.1-2.5 1.4-10.1 3-19.5 6.9-27.6 14-8 7-14.7 14.7-16.3 25.6-.7 4.7-.8 9.5-1.1 13.7-6.5-1.1-13.2-2.2-19.9-3.3-.1.3-.2.5-.3.8 3.7 6.3 7.4 12.7 11.2 19 .3.5 1.6.9 2.2.7 3.3-1 6.5-2.2 9.6-3.5.6-.3 1.2-1.1 1.5-1.7 2.9-6.8 6.9-12.3 14.3-14.8 13.6-4.4 27.4-5.5 41.5-4.2 3.5.3 7 1.4 10.3 2.8 5.6 2.3 10.8 5.6 16.4 7.8 16.2 6.2 32.5 12 48.8 17.8 2.1.7 4.6.7 6.8.4 6.3-.8 11.6-3.8 16.5-7.8 2.7-2.2 5.6-2.7 8.9-1.9 6.5 1.7 11.8 5.4 16 10.6 1.8 2.2 3.5 4.5 5.4 6.8 1.6-2.4 3-4.6 4.4-6.7 1.3-1.9 3.1-2.9 5.3-2.3 2.4.6 4.7 1.5 6.9 2.5 3.3 1.6 4.3 1.3 4.9-2.5.1-.8-.2-1.8-.4-2.7-.5-2.3-1.5-4.6-1.5-6.9 0-4 .5-8 1.1-12 2.4-16.7 6.6-32.9 11.1-49.2 4.5-16.6 13.5-29.9 27.3-40.1 6.6-4.7 13.7-8.6 21.5-11.4zm72.9 276.5c.4-5.7.8-11.1 1.1-16.6.6-9.5 1.1-19 1.7-28.4.8-13.8 2-27.7 2.3-41.5.3-17.1 0-34.2-.3-51.4-.2-9.2-.4-18.5-1.4-27.7-1.2-11.9-3.4-23.7-4.8-35.5-2.1-17.7-8-34.2-18-48.8-10.7-15.7-24.8-25.6-45.1-21.2-22 4.8-38.6 17.2-47.1 38-8.6 20.9-12.9 43.1-15.6 65.6-.3 2.2 0 4.5 0 6.7.3.1.5.2.8.3.8-1 1.8-1.9 2.5-3 3.1-4.6 5.9-9.4 9.1-13.9 8.8-12.2 18.5-23.5 30.9-32.3 15.3-10.9 30.6-9.4 43.9 1.4 11.5 9.5 18.1 22.2 21.1 36.6 1.8 8.6 2.4 17.4 3.3 26.2 1.3 12.3 2.4 24.7 3.4 37 .8 9.7 1.5 19.4 2.3 29.2 1 12.7 2 25.4 2.9 38.1.8 11.1 1.5 22.2 2.2 33.3.2 2.6.4 5.2.6 7.9h4.2zm-56.7 86c8.8 6.4 17 12.7 26.6 16.7 1.5.6 3.1 1 4.7 1.1 5.1.3 10.3.5 15.4.5 9.2 0 17.6-2.6 24.3-9.2 9.2-9.2 17.7-19 25-29.9 11.6-17.3 23.5-34.5 35.6-51.5 10-14.1 21.2-27.1 33.4-39.3 6.5-6.5 12.8-13.1 19.1-19.7 1-1.1 1.8-2.5 2.3-3.9 1.1-3.1.2-5.9-2.1-8.2-2.2-2.2-4.6-1.9-7.1-.6-2.5 1.3-5.1 2.4-7.4 4-7.2 5-14.7 9.8-21.4 15.5-18.4 15.7-36.5 31.6-54.5 47.7-16.7 14.9-33 30.2-47.8 46.9-12.5 14.2-27.1 24.7-46.1 29.9zm-403.8-221c-.2.3-.4.7-.6 1 .4 1 .6 2.1 1.2 3 2.4 3.5 4.8 7.1 7.5 10.4 6.1 7.5 13.5 13.8 18.6 22.2 7.1 11.9 15.1 23.2 20.4 36.1 3.7 9 7.3 18.1 7.6 28 .3 8.6.2 17.1.4 25.7.3 13.5-3.6 25.8-10.6 37.2-9 14.8-20.6 27.5-33 39.5-.9.9-2 1.7-3.2 2.7.8.4 1 .6 1.3.6 7.9.6 15.8 1.5 23.8 1.7 13.9.4 25.8-4.6 35-15.2 6.2-7.1 10.3-15.4 12.8-24.3 4.4-15.6 6.5-31.6 6.9-47.8.2-9.9-.3-19.4-4.1-28.7-5-12.6-11.4-24.3-20.3-34.5-12.2-14-24.2-28.2-36.5-42.1-5.1-5.7-10.7-10.9-18.1-13.6-2.9-1-6-1.3-9.1-1.9zm34.2 12.9c.4-.8.6-1.5.9-2.1 4.6-10.6 8.9-21.3 13.9-31.6 4-8.3 8.7-16.2 13.5-24.1 2.6-4.3 6.8-6.1 11.8-5.9 3.6.1 7.2.4 10.7.7 6.1.5 12.3.9 18.8 1.4-2.8-6.4-6.2-11.9-10.7-16.6-4.8-5-10.5-7.4-17.4-7.3-6.9.1-13.4 1.6-19.7 4.2-18.7 7.5-30.9 21.6-38.8 39.6-3.3 7.5-5.6 15.5-8.3 22.9 5 2.9 9.7 5 13.7 8 4.2 3.1 7.6 7 11.6 10.8zm210.1 33c.1 0 .5-.1.9-.2 19.4-7.5 38.8-15 58.2-22.6.7-.3 1.4-1.4 1.5-2.2.4-4.4.6-8.9.8-13.3.2-5.9-1-7.7-6.7-8.7-6.5-1.2-13.2-1.9-19.8-2.8-7.4-1-14.7-1.9-22.1-2.8-.9-.1-2.2.1-2.8.7-5.1 4.8-9.5 10.3-9.8 17.4-.6 11.5-.2 23-.2 34.5zM295 247.9c-.3.1-.6.2-.9.2-.8 9.3-1.7 18.5-2.5 27.8-1.4 16.8-.1 33.5 3.2 50 2.1 10.5 6.3 19.7 16.3 25.2 1-3.4 1.9-7 3.2-10.4 1.6-4.2 1.7-8.3.7-12.5-.4-1.7-.6-3.5-.7-5.3-1.1-14-1.3-28.1 1-42 .8-4.6-.3-8.2-2.7-12.1-4.8-7.9-11.6-14-17.6-20.9zm281.3 36h.3c0 2-.1 3.9 0 5.9.5 6.6 1.6 12.9 6.2 18.1 1.5 1.7 2.9 2.6 5 1.1l17.1-11.7c7.3-5.1 10.2-12.1 9.1-20.9-.3-2.4-.2-5.5-1.6-7-3.9-4.2-6.9-5.6-12.3-3.2-1.7.7-2.7.6-4-.8-.8-.9-2.2-1.6-3.5-1.9-6.2-1.5-15.8 5-15.7 11.7.1 2.9-.4 5.8-.6 8.7zm50.5-41.8c-.1 0-.3 0-.4-.1v-6.4c.1-5.3-3.1-8.7-8.3-8.3-2.8.2-5.5.9-8.2 1.6-3 .8-5 2.9-5.5 6.1-.2 1.2-.6 2.3-.8 3.5-1.5 7-.1 13 6.2 17.4 2.5 1.8 4.7 4 7 6.1 3.4 3.1 7.3 2.2 8.1-2.3.7-5.9 1.2-11.7 1.9-17.6zm-158.1-22c-5.5.1-10.5-.1-14.5-3.9-3.9-3.8-4.1-8.9-4.3-14.2h-2.7c-3.9.1-4.3.5-5 4.3-1.6 8.8 3.8 16.8 12.6 18.7 5.2 1.1 11.2-.9 13.9-4.9zm-107-37.5c4 2.6 7.8 4.7 11.1 7.3 8.8 6.7 14.8 15.5 19.1 25.6.7 1.7 1.6 3.2 2.4 4.9.3-.1.7-.2 1-.2-.1-2.2.2-4.6-.4-6.7-2.6-9.6-7.7-17.9-14.8-24.8-4.8-5-11.1-6.5-18.4-6.1z"/><path class="st5" d="M535.4 274.2c0-11.5-.4-23 .1-34.4.3-7.1 4.7-12.7 9.8-17.4.6-.6 1.9-.8 2.8-.7 7.4.9 14.7 1.8 22.1 2.8 6.6.9 13.2 1.6 19.8 2.8 5.8 1 7 2.9 6.7 8.7-.2 4.4-.4 8.9-.8 13.3-.1.8-.8 1.9-1.5 2.2-19.4 7.6-38.8 15.1-58.2 22.6-.3 0-.7.1-.8.1zm40.9 9.7c.2-2.9.7-5.8.6-8.7-.1-6.7 9.5-13.3 15.7-11.7 1.2.3 2.6.9 3.5 1.9 1.3 1.4 2.3 1.6 4 .8 5.4-2.4 8.4-1 12.3 3.2 1.4 1.5 1.3 4.6 1.6 7 1.2 8.8-1.7 15.8-9.1 20.9L587.8 309c-2.1 1.4-3.5.6-5-1.1-4.6-5.2-5.7-11.5-6.2-18.1-.1-2 0-3.9 0-5.9h-.3zm50.5-41.8c-.7 5.8-1.2 11.7-2.2 17.5-.8 4.5-4.7 5.4-8.1 2.3-2.3-2.1-4.4-4.3-7-6.1-6.3-4.4-7.7-10.3-6.2-17.4.2-1.2.6-2.3.8-3.5.6-3.2 2.5-5.2 5.5-6.1 2.7-.7 5.5-1.4 8.2-1.6 5.2-.4 8.4 3 8.3 8.3v6.4c.4.2.5.2.7.2z"/><path class="st5" d="M678.7 86.8c-7.8 2.8-15 6.7-21.6 11.7-13.8 10.2-22.8 23.5-27.3 40.1-4.4 16.2-8.6 32.5-11.1 49.2-.6 4-1.1 8-1.1 12 0 2.3 1 4.6 1.5 6.9.2.9.5 1.8.4 2.7-.6 3.7-1.6 4.1-4.9 2.5-2.2-1.1-4.5-2-6.9-2.5-2.2-.5-4 .4-5.3 2.3-1.4 2.1-2.8 4.3-4.4 6.7-1.8-2.3-3.6-4.6-5.4-6.8-4.2-5.2-9.4-8.9-16-10.6-3.3-.9-6.2-.3-8.9 1.9-4.9 3.9-10.2 6.9-16.5 7.8-2.2.3-4.7.3-6.8-.4-16.3-5.8-32.6-11.6-48.8-17.8-5.6-2.1-10.8-5.4-16.4-7.8-3.3-1.4-6.8-2.4-10.3-2.8-14.1-1.4-28-.3-41.5 4.2-7.4 2.4-11.4 8-14.3 14.8-.3.7-.9 1.5-1.5 1.7-3.2 1.3-6.4 2.4-9.6 3.5-.6.2-1.9-.2-2.2-.7-3.8-6.3-7.5-12.6-11.2-19 .1-.3.2-.5.3-.8 6.7 1.1 13.4 2.2 19.9 3.3.3-4.2.4-9 1.1-13.7 1.6-10.9 8.3-18.6 16.3-25.6 8.1-7.1 17.6-11 27.6-14 .9-.3 1.7-.6 2.5-1.4-.6-.1-1.2-.2-1.8-.2-5.8 0-11.7-.1-17.5 0-1.9 0-3.1-.6-4.3-2-6.1-7.3-12.3-14.4-18.6-21.6-8.3-9.6-19.2-14.4-31.2-17.7-16.2-4.4-32-1.9-47.9 1.2-17.3 3.3-30.4 13.3-43.3 24.3-17.7 15.1-29.6 34.3-40.4 54.5-19 35.5-31.9 73.2-40.2 112.5-.9 4.4-1.8 8.8-2.9 13.2 0-7.4-.4-14.8.1-22.2.9-15.6 1.9-31.2 3.5-46.8 2-19.2 4.8-38.3 11.2-56.7 4.8-13.7 12.6-25.8 20.6-37.7 14.3-21.4 32.9-38.3 54.2-52.6 11.8-7.9 25.1-11.8 38.4-16 18.4-5.8 37.3-8.7 56.6-7.4 20.4 1.3 40.2 5.3 59.8 11.2 17.4 5.3 32.5 14.4 47.6 24 21.9 13.9 42.5 29.7 62.5 46.2 1.8 1.5 3.3 3.3 5.1 4.6 1.2.8 2.8 1.1 4.2 1.6l.6-.9c-8.7-10.8-17.4-21.7-26.3-32.7 1.3-.9 2.5-1.8 3.6-2.7C565 98.9 581.3 90 599.4 84.4c8.2-2.6 16.8-3.2 25.3-3.8 5.7-.4 11.5-.8 17.2-.1 8.8 1 17.5 2.9 26.2 4.5 3.6.3 7.1 1.1 10.6 1.8z"/><path class="st5" d="M751.6 363.3h-4.2c-.2-2.7-.5-5.3-.6-7.9-.8-11.1-1.4-22.2-2.2-33.3-.9-12.7-1.9-25.4-2.9-38.1-.7-9.7-1.4-19.4-2.3-29.2-1.1-12.3-2.2-24.7-3.4-37-.9-8.7-1.6-17.6-3.3-26.2-3-14.4-9.6-27.2-21.1-36.6-13.2-10.9-28.6-12.4-43.9-1.4-12.4 8.8-22.1 20.2-30.9 32.3-3.3 4.5-6.1 9.3-9.1 13.9-.7 1.1-1.7 2-2.5 3-.3-.1-.5-.2-.8-.3 0-2.2-.2-4.5 0-6.7 2.7-22.5 7-44.7 15.6-65.6 8.5-20.8 25.1-33.3 47.1-38 20.4-4.4 34.5 5.6 45.1 21.2 10 14.6 15.8 31.1 18 48.8 1.4 11.9 3.6 23.7 4.8 35.5.9 9.2 1.2 18.4 1.4 27.7.3 17.1.7 34.2.3 51.4-.3 13.8-1.5 27.7-2.3 41.5-.6 9.5-1.1 19-1.7 28.4-.3 5.5-.7 10.9-1.1 16.6zm-56.7 86c19-5.2 33.6-15.7 46.1-29.8 14.8-16.7 31.1-32.1 47.8-46.9 18-16.1 36.1-32 54.5-47.7 6.7-5.7 14.2-10.5 21.4-15.5 2.3-1.6 4.9-2.7 7.4-4 2.5-1.3 4.9-1.5 7.1.6 2.3 2.3 3.2 5.1 2.1 8.2-.5 1.4-1.3 2.8-2.3 3.9-6.3 6.6-12.7 13.2-19.1 19.7-12.2 12.2-23.4 25.2-33.4 39.3-12.1 17-24 34.2-35.6 51.5-7.3 10.9-15.7 20.7-25 29.9-6.7 6.6-15.1 9.2-24.3 9.2-5.1 0-10.3-.2-15.4-.5-1.6-.1-3.2-.5-4.7-1.1-9.6-4.1-17.8-10.4-26.6-16.8zm-403.8-221c3 .6 6.2.9 9.1 2 7.4 2.6 13.1 7.8 18.1 13.6 12.3 13.9 24.3 28.1 36.5 42.1 8.9 10.3 15.3 22 20.3 34.5 3.7 9.3 4.3 18.8 4.1 28.7-.4 16.3-2.5 32.2-6.9 47.8-2.5 9-6.6 17.2-12.8 24.3-9.2 10.7-21.1 15.6-35 15.2-7.9-.2-15.8-1.1-23.8-1.7-.2 0-.4-.2-1.3-.6 1.2-1 2.3-1.8 3.2-2.7 12.4-12 23.9-24.7 33-39.5 7-11.4 10.8-23.7 10.6-37.2-.2-8.6-.1-17.1-.4-25.7-.4-9.9-3.9-19-7.6-28-5.3-12.9-13.2-24.3-20.4-36.1-5.1-8.4-12.5-14.7-18.6-22.2-2.7-3.3-5.1-6.9-7.5-10.4-.6-.9-.8-2-1.2-3 .2-.5.4-.8.6-1.1zm34.2 12.9c-4-3.8-7.4-7.7-11.5-10.8-4.1-3-8.8-5.2-13.7-8 2.7-7.4 5-15.4 8.3-22.9 7.9-18 20.1-32.1 38.8-39.6 6.3-2.5 12.8-4.1 19.7-4.2 6.9-.1 12.7 2.3 17.4 7.3 4.5 4.7 7.9 10.2 10.7 16.6-6.6-.5-12.7-1-18.8-1.4-3.6-.3-7.2-.6-10.7-.7-5-.2-9.3 1.7-11.8 5.9-4.7 7.9-9.4 15.8-13.5 24.1-5 10.4-9.3 21.1-13.9 31.6-.4.6-.6 1.3-1 2.1z"/><path class="st5" d="M361.7 182.6c7.3-.4 13.6 1.1 18.5 6 7.1 6.9 12.2 15.2 14.8 24.8.6 2.1.3 4.5.4 6.7-.3.1-.7.2-1 .2-.8-1.6-1.7-3.2-2.4-4.9-4.3-10.1-10.3-18.9-19.1-25.6-3.4-2.5-7.1-4.6-11.2-7.2z"/></g></svg>